<svg width="167" height="167" viewBox="0 0 167 167" fill="none" xmlns="http://www.w3.org/2000/svg">
<path d="M83.505 167.01C129.624 167.01 167.01 129.624 167.01 83.505C167.01 37.3865 129.624 0 83.505 0C37.3865 0 0 37.3865 0 83.505C0 129.624 37.3865 167.01 83.505 167.01Z" fill="url(#paint0_radial_1_98)"/>
<path d="M111.215 97.4998C108.282 97.3351 105.349 97.8184 102.624 98.9151C99.8984 100.012 97.4482 101.695 95.447 103.845C93.4457 105.996 91.9425 108.56 91.0441 111.357C90.1457 114.154 89.8742 117.114 90.2488 120.028C83.2816 116.799 77.3832 111.645 73.2495 105.174C69.1159 98.7028 66.9195 91.1842 66.9195 83.5053C66.9195 75.8264 69.1159 68.3078 73.2495 61.8365C77.3832 55.3652 83.2816 50.2112 90.2488 46.9828C89.9315 49.674 90.1617 52.4016 90.9256 55.0016C91.6894 57.6016 92.9711 60.0203 94.6936 62.1123C96.4161 64.2043 98.5438 65.9264 100.949 67.1751C103.354 68.4237 105.987 69.1732 108.689 69.3783C111.391 69.5835 114.107 69.2402 116.673 68.369C119.239 67.4978 121.602 66.1167 123.621 64.3087C125.639 62.5008 127.271 60.3034 128.419 57.8485C129.567 55.3936 130.206 52.7321 130.299 50.0238C130.41 46.3296 129.495 42.6769 127.657 39.4708C126.977 38.2797 126.179 37.1603 125.274 36.1298C124.079 34.816 122.722 33.66 121.235 32.6898C120.807 32.3998 120.373 32.1154 119.935 31.8368C110.659 25.8862 99.9533 22.5421 88.9401 22.1555C77.9268 21.7689 67.0126 24.354 57.3428 29.6395C47.6731 34.9251 39.6044 42.7162 33.9837 52.195C28.363 61.6739 25.3975 72.491 25.3984 83.511C25.3994 94.531 28.3668 105.348 33.9892 114.826C39.6115 124.303 47.6815 132.093 57.3522 137.377C67.0229 142.661 77.9376 145.244 88.9508 144.856C99.964 144.467 110.669 141.121 119.944 135.169C121.006 134.489 122.047 133.775 123.069 133.028C126.177 130.438 128.431 126.971 129.537 123.079C130.644 119.188 130.55 115.053 129.269 111.215C127.988 107.378 125.58 104.016 122.358 101.569C119.136 99.122 115.251 97.7038 111.211 97.4998H111.215ZM77.7558 133.216C77.6599 133.487 77.4825 133.721 77.2479 133.887C77.0134 134.053 76.7332 134.143 76.4458 134.143C76.3489 134.143 76.2523 134.133 76.1578 134.112C64.5525 131.656 54.1438 125.287 46.6758 116.071C39.2077 106.854 35.1342 95.3514 35.1379 83.4892C35.1415 71.6271 39.222 60.1266 46.6957 50.9149C54.1694 41.7032 64.582 35.34 76.1888 32.8918C76.5199 32.8184 76.8663 32.8686 77.1629 33.0329C77.4596 33.1972 77.6859 33.4643 77.7994 33.7839C77.9128 34.1034 77.9055 34.4534 77.7789 34.768C77.6523 35.0826 77.415 35.34 77.1118 35.4918C68.2927 40.0324 60.8944 46.9138 55.7281 55.3815C50.5618 63.8492 47.8271 73.5761 47.8239 83.4953C47.8207 93.4146 50.5491 103.143 55.7099 111.614C60.8708 120.085 68.2647 126.972 77.0808 131.518C77.3796 131.671 77.6127 131.928 77.7368 132.24C77.8609 132.552 77.8677 132.899 77.7558 133.216Z" fill="white"/>
<defs>
<radialGradient id="paint0_radial_1_98" cx="0" cy="0" r="1" gradientUnits="userSpaceOnUse" gradientTransform="translate(-42.2535 -161.332) scale(368.591)">
<stop stop-color="#360DFF"/>
<stop offset="0.069" stop-color="#4D0FE6"/>
<stop offset="0.271" stop-color="#8E17A2"/>
<stop offset="0.44" stop-color="#BD1D71"/>
<stop offset="0.569" stop-color="#DB2053"/>
<stop offset="0.641" stop-color="#E62248"/>
<stop offset="0.723" stop-color="#B71C77"/>
<stop offset="0.856" stop-color="#7214C0"/>
<stop offset="0.952" stop-color="#460EED"/>
<stop offset="1" stop-color="#360DFF"/>
</radialGradient>
</defs>
</svg>
