<svg width="22" height="15" viewBox="0 0 22 15" fill="none" xmlns="http://www.w3.org/2000/svg">
<g clip-path="url(#clip0_291_19)">
<path d="M16.0059 0H5.33793C3.92316 0.000530074 2.56649 0.562779 1.5661 1.56317C0.565709 2.56356 0.00345976 3.92023 0.00292969 5.335V13.041C0.00292969 13.3555 0.127884 13.6572 0.350302 13.8796C0.57272 14.102 0.874384 14.227 1.18893 14.227H20.1549C20.469 14.2262 20.7698 14.1009 20.9916 13.8786C21.2134 13.6562 21.3379 13.355 21.3379 13.041V5.335C21.3374 3.92075 20.7756 2.56454 19.7758 1.56423C18.7761 0.563924 17.4202 0.00132485 16.0059 0ZM8.89193 12.45H1.77893V5.337C1.7788 4.86959 1.87076 4.40673 2.04957 3.97487C2.22838 3.54302 2.49053 3.15062 2.82104 2.82011C3.15155 2.4896 3.54395 2.22745 3.9758 2.04865C4.40766 1.86984 4.87052 1.77787 5.33793 1.778C6.28122 1.77826 7.18581 2.1531 7.85282 2.82011C8.51983 3.48712 8.89466 4.39171 8.89493 5.335L8.89193 12.45ZM19.5619 12.45H10.6709V5.337C10.6671 4.02047 10.1734 2.75249 9.28593 1.78H16.0059C16.9488 1.78159 17.8526 2.15685 18.5194 2.82357C19.1861 3.4903 19.5613 4.39411 19.5629 5.337L19.5619 12.45ZM17.1909 4.742H12.7449C12.7055 4.742 12.6665 4.74976 12.6301 4.76484C12.5937 4.77991 12.5607 4.80201 12.5328 4.82987C12.5049 4.85773 12.4828 4.8908 12.4678 4.92719C12.4527 4.96359 12.4449 5.0026 12.4449 5.042V6.228C12.4449 6.30756 12.4765 6.38387 12.5328 6.44013C12.5891 6.49639 12.6654 6.528 12.7449 6.528H15.4129V7.714C15.4129 7.87127 15.4754 8.02211 15.5866 8.13331C15.6978 8.24452 15.8487 8.307 16.0059 8.307H17.1909C17.3482 8.307 17.499 8.24452 17.6102 8.13331C17.7215 8.02211 17.7839 7.87127 17.7839 7.714V5.343C17.785 5.26446 17.7704 5.18648 17.7411 5.11361C17.7118 5.04074 17.6683 4.97442 17.6131 4.9185C17.5579 4.86259 17.4922 4.81819 17.4197 4.78789C17.3473 4.75759 17.2695 4.74199 17.1909 4.742ZM6.81693 4.742H3.85393C3.77437 4.742 3.69806 4.77361 3.6418 4.82987C3.58554 4.88613 3.55393 4.96243 3.55393 5.042V6.82C3.55393 6.89956 3.58554 6.97587 3.6418 7.03213C3.69806 7.08839 3.77437 7.12 3.85393 7.12H6.81793C6.8975 7.12 6.9738 7.08839 7.03006 7.03213C7.08632 6.97587 7.11793 6.89956 7.11793 6.82V5.042C7.11793 4.96243 7.08632 4.88613 7.03006 4.82987C6.9738 4.77361 6.8965 4.742 6.81693 4.742Z" fill="white"/>
</g>
<defs>
<clipPath id="clip0_291_19">
<rect width="21.34" height="14.227" fill="white"/>
</clipPath>
</defs>
</svg>
