<svg width="742" height="168" viewBox="0 0 742 168" fill="none" xmlns="http://www.w3.org/2000/svg">
<g clip-path="url(#clip0_163_2)">
<path d="M244.58 57.3389C238.554 57.9983 232.986 60.8631 228.947 65.3818C224.907 69.9006 222.682 75.7538 222.7 81.8149C222.885 95.5359 230.859 107.032 245.136 108.145C249.959 108.478 254.761 107.253 258.835 104.649C262.908 102.044 266.036 98.1996 267.758 93.6819L291.864 100.728C284.817 120.94 266.275 133.177 244.024 132.25C219.362 131.323 197.853 112.78 197.853 81.6289C197.853 54.3719 221.588 33.0479 245.136 32.8619C272.209 32.6769 285.745 49.3619 290.936 64.9409L267.573 71.2409C260.713 58.6359 251.07 56.5969 244.58 57.3389Z" fill="#212121"/>
<path d="M329.125 36.1997H303.351V128.912H329.125V36.1997Z" fill="#212121"/>
<path d="M344.511 128.174V37.4978H368.616V51.0337C371.583 43.8017 376.033 39.3518 385.116 36.0148C391.792 33.6038 403.102 34.1598 409.407 37.8688L402.731 59.9338C395.314 56.4108 383.077 55.8548 376.031 63.8278C369.731 71.0598 368.614 76.4378 368.614 100.542V128.357L344.511 128.174Z" fill="#212121"/>
<path d="M455.02 57.3389C448.995 57.9987 443.427 60.8636 439.388 65.3823C435.348 69.901 433.123 75.754 433.14 81.8149C433.326 95.5359 441.298 107.032 455.577 108.145C460.399 108.478 465.201 107.251 469.273 104.647C473.346 102.043 476.473 98.1989 478.194 93.6819L502.294 100.728C495.248 120.94 476.706 133.177 454.455 132.25C429.793 131.323 408.284 112.78 408.284 81.6289C408.284 54.3719 432.018 33.0479 455.568 32.8619C482.639 32.6769 496.175 49.3619 501.368 64.9409L478.003 71.2409C471.152 58.6359 461.51 56.5969 455.02 57.3389Z" fill="#212121"/>
<path d="M554.588 57.3389C548.563 57.9983 542.995 60.8631 538.956 65.3818C534.916 69.9006 532.691 75.7538 532.708 81.8149C532.893 95.5359 540.866 107.032 555.144 108.145C559.967 108.479 564.77 107.253 568.843 104.649C572.916 102.044 576.044 98.1997 577.765 93.6819L601.871 100.728C594.825 120.94 576.282 133.177 554.031 132.25C529.37 131.323 507.86 112.78 507.86 81.6289C507.86 54.3719 531.594 33.0479 555.144 32.8619C582.215 32.6769 595.752 49.3619 600.944 64.9409L577.58 71.2409C570.719 58.6359 561.078 56.5969 554.588 57.3389Z" fill="#212121"/>
<path d="M654.341 33.7889C660.723 33.7273 667.053 34.9359 672.963 37.3442C678.873 39.7525 684.245 43.3123 688.766 47.8166C693.288 52.3208 696.868 57.6794 699.298 63.5805C701.728 69.4815 702.961 75.807 702.923 82.1889C702.923 108.889 681.785 131.697 654.341 131.697C626.714 131.697 605.575 108.89 605.575 82.1889C605.575 55.4879 626.714 33.7889 654.341 33.7889ZM654.527 108.889C667.135 108.889 678.818 99.0609 678.818 82.3729C678.818 66.7969 667.135 56.2279 654.527 56.2279C641.919 56.2279 630.051 66.7969 630.051 82.3729C630.051 99.0589 641.919 108.887 654.527 108.887V108.889Z" fill="#212121"/>
<path d="M708.483 112.966C708.501 109.728 709.476 106.568 711.286 103.883C713.096 101.198 715.66 99.1088 718.655 97.8779C721.65 96.647 724.942 96.3297 728.117 96.9657C731.292 97.6018 734.207 99.1628 736.497 101.452C738.786 103.742 740.347 106.658 740.983 109.832C741.619 113.007 741.302 116.299 740.071 119.294C738.84 122.289 736.751 124.853 734.066 126.663C731.382 128.473 728.221 129.448 724.983 129.466C720.607 129.466 716.411 127.727 713.316 124.633C710.222 121.539 708.483 117.342 708.483 112.966Z" fill="#212121"/>
<path d="M83.505 167.01C129.624 167.01 167.01 129.624 167.01 83.505C167.01 37.3865 129.624 0 83.505 0C37.3865 0 0 37.3865 0 83.505C0 129.624 37.3865 167.01 83.505 167.01Z" fill="url(#paint0_radial_163_2)"/>
<path d="M111.215 97.4998C108.282 97.3351 105.349 97.8183 102.624 98.9151C99.8984 100.012 97.4482 101.695 95.447 103.845C93.4457 105.996 91.9425 108.56 91.0441 111.357C90.1457 114.154 89.8742 117.114 90.2488 120.028C83.2816 116.799 77.3832 111.645 73.2495 105.174C69.1159 98.7028 66.9195 91.1842 66.9195 83.5053C66.9195 75.8264 69.1159 68.3078 73.2495 61.8365C77.3832 55.3652 83.2816 50.2112 90.2488 46.9828C89.9315 49.674 90.1617 52.4016 90.9256 55.0016C91.6894 57.6016 92.9711 60.0203 94.6936 62.1123C96.4161 64.2043 98.5438 65.9264 100.949 67.1751C103.354 68.4237 105.987 69.1732 108.689 69.3783C111.391 69.5835 114.107 69.2402 116.673 68.369C119.239 67.4978 121.602 66.1167 123.621 64.3087C125.639 62.5008 127.271 60.3034 128.419 57.8485C129.567 55.3936 130.206 52.7321 130.299 50.0238C130.41 46.3296 129.495 42.6769 127.657 39.4708C126.977 38.2797 126.179 37.1603 125.274 36.1298C124.079 34.816 122.722 33.66 121.235 32.6898C120.807 32.3998 120.373 32.1154 119.935 31.8368C110.659 25.8862 99.9533 22.5421 88.9401 22.1555C77.9268 21.7689 67.0126 24.354 57.3428 29.6395C47.6731 34.9251 39.6044 42.7162 33.9837 52.195C28.363 61.6739 25.3975 72.491 25.3984 83.511C25.3994 94.531 28.3668 105.348 33.9892 114.826C39.6115 124.303 47.6815 132.093 57.3522 137.377C67.0229 142.661 77.9376 145.244 88.9508 144.856C99.964 144.467 110.669 141.121 119.944 135.169C121.006 134.489 122.047 133.775 123.069 133.028C126.177 130.438 128.431 126.971 129.537 123.079C130.644 119.188 130.55 115.053 129.269 111.215C127.988 107.378 125.58 104.016 122.358 101.569C119.136 99.122 115.251 97.7038 111.211 97.4998H111.215ZM77.7558 133.216C77.6599 133.487 77.4825 133.721 77.2479 133.887C77.0134 134.053 76.7331 134.143 76.4458 134.143C76.3489 134.143 76.2523 134.133 76.1578 134.112C64.5525 131.656 54.1438 125.287 46.6758 116.071C39.2077 106.854 35.1342 95.3514 35.1379 83.4892C35.1415 71.6271 39.222 60.1266 46.6957 50.9149C54.1694 41.7032 64.582 35.34 76.1888 32.8918C76.5199 32.8184 76.8663 32.8686 77.1629 33.0329C77.4596 33.1972 77.6859 33.4643 77.7994 33.7839C77.9128 34.1034 77.9055 34.4534 77.7789 34.768C77.6523 35.0826 77.415 35.34 77.1118 35.4918C68.2927 40.0324 60.8944 46.9138 55.7281 55.3815C50.5618 63.8492 47.8271 73.5761 47.8239 83.4953C47.8207 93.4146 50.5491 103.143 55.7099 111.614C60.8708 120.085 68.2647 126.972 77.0808 131.518C77.3796 131.671 77.6127 131.928 77.7368 132.24C77.8609 132.552 77.8677 132.899 77.7558 133.216Z" fill="white"/>
</g>
<defs>
<radialGradient id="paint0_radial_163_2" cx="0" cy="0" r="1" gradientUnits="userSpaceOnUse" gradientTransform="translate(-42.2535 -161.332) scale(368.591)">
<stop stop-color="#360DFF"/>
<stop offset="0.069" stop-color="#4D0FE6"/>
<stop offset="0.271" stop-color="#8E17A2"/>
<stop offset="0.44" stop-color="#BD1D71"/>
<stop offset="0.569" stop-color="#DB2053"/>
<stop offset="0.641" stop-color="#E62248"/>
<stop offset="0.723" stop-color="#B71C77"/>
<stop offset="0.856" stop-color="#7214C0"/>
<stop offset="0.952" stop-color="#460EED"/>
<stop offset="1" stop-color="#360DFF"/>
</radialGradient>
<clipPath id="clip0_163_2">
<rect width="741.304" height="167.011" fill="white"/>
</clipPath>
</defs>
</svg>
