<svg width="543" height="167" viewBox="0 0 543 167" fill="none" xmlns="http://www.w3.org/2000/svg">
<g clip-path="url(#clip0_151_153)">
<path d="M46.5796 57.3389C40.5545 57.9983 34.9862 60.8631 30.9467 65.3818C26.9073 69.9006 24.6821 75.7538 24.6996 81.8149C24.8846 95.5359 32.8586 107.032 47.1356 108.145C51.9587 108.478 56.7613 107.253 60.8346 104.649C64.9079 102.044 68.0361 98.1996 69.7575 93.6819L93.8636 100.728C86.8166 120.94 68.2746 133.177 46.0236 132.25C21.3616 131.323 -0.147461 112.78 -0.147461 81.6289C-0.147461 54.3719 23.5876 33.0479 47.1356 32.8619C74.2086 32.6769 87.7445 49.3619 92.9355 64.9409L69.5725 71.2409C62.7125 58.6359 53.0696 56.5969 46.5796 57.3389Z" fill="white"/>
<path d="M131.125 36.2H105.351V128.912H131.125V36.2Z" fill="white"/>
<path d="M146.511 128.174V37.4978H170.616V51.0337C173.583 43.8017 178.033 39.3518 187.116 36.0148C193.792 33.6038 205.102 34.1598 211.407 37.8688L204.731 59.9338C197.314 56.4108 185.077 55.8548 178.031 63.8278C171.731 71.0598 170.614 76.4378 170.614 100.542V128.357L146.511 128.174Z" fill="white"/>
<path d="M257.02 57.3389C250.995 57.9987 245.427 60.8636 241.388 65.3823C237.348 69.901 235.123 75.754 235.14 81.8149C235.326 95.5359 243.298 107.032 257.577 108.145C262.399 108.478 267.201 107.251 271.273 104.647C275.346 102.043 278.473 98.1989 280.194 93.6819L304.294 100.728C297.248 120.94 278.706 133.177 256.455 132.25C231.793 131.323 210.284 112.78 210.284 81.6289C210.284 54.3719 234.018 33.0479 257.568 32.8619C284.639 32.6769 298.175 49.3619 303.368 64.9409L280.003 71.2409C273.152 58.6359 263.51 56.5969 257.02 57.3389Z" fill="white"/>
<path d="M356.588 57.3389C350.563 57.9983 344.995 60.8631 340.956 65.3818C336.916 69.9006 334.691 75.7538 334.708 81.8149C334.893 95.5359 342.866 107.032 357.144 108.145C361.967 108.479 366.77 107.253 370.843 104.649C374.916 102.044 378.044 98.1997 379.765 93.6819L403.871 100.728C396.825 120.94 378.282 133.177 356.031 132.25C331.37 131.323 309.86 112.78 309.86 81.6289C309.86 54.3719 333.594 33.0479 357.144 32.8619C384.215 32.6769 397.752 49.3619 402.944 64.9409L379.58 71.2409C372.719 58.6359 363.078 56.5969 356.588 57.3389Z" fill="white"/>
<path d="M456.341 33.7889C462.723 33.7273 469.053 34.9359 474.963 37.3442C480.873 39.7525 486.245 43.3123 490.766 47.8166C495.288 52.3208 498.868 57.6794 501.298 63.5805C503.728 69.4815 504.961 75.807 504.923 82.1889C504.923 108.889 483.785 131.697 456.341 131.697C428.714 131.697 407.575 108.89 407.575 82.1889C407.575 55.4879 428.714 33.7889 456.341 33.7889ZM456.527 108.889C469.135 108.889 480.818 99.0609 480.818 82.3729C480.818 66.7969 469.135 56.2279 456.527 56.2279C443.919 56.2279 432.051 66.7969 432.051 82.3729C432.051 99.0589 443.919 108.887 456.527 108.887V108.889Z" fill="white"/>
<path d="M510.483 112.966C510.501 109.728 511.476 106.568 513.286 103.883C515.096 101.198 517.66 99.109 520.655 97.8782C523.65 96.6473 526.942 96.3299 530.117 96.966C533.292 97.602 536.207 99.1631 538.497 101.453C540.786 103.742 542.347 106.658 542.983 109.833C543.619 113.008 543.302 116.3 542.071 119.294C540.84 122.289 538.751 124.853 536.066 126.663C533.382 128.473 530.221 129.448 526.983 129.466C522.607 129.466 518.411 127.728 515.316 124.633C512.222 121.539 510.483 117.342 510.483 112.966Z" fill="white"/>
</g>
<defs>
<clipPath id="clip0_151_153">
<rect width="543" height="167" fill="white"/>
</clipPath>
</defs>
</svg>
