<svg width="194" height="56" viewBox="0 0 194 56" fill="none" xmlns="http://www.w3.org/2000/svg">
<path d="M193.5 28C193.5 31.6146 190.959 35.1669 186.095 38.4859C181.249 41.7936 174.203 44.7923 165.451 47.3186C147.954 52.3693 123.753 55.5 97 55.5C70.2474 55.5 46.0463 52.3693 28.5493 47.3186C19.7975 44.7923 12.7513 41.7936 7.90459 38.4859C3.0414 35.1669 0.5 31.6146 0.5 28C0.5 24.3854 3.0414 20.8331 7.90459 17.5141C12.7513 14.2064 19.7975 11.2077 28.5493 8.6814C46.0463 3.63072 70.2474 0.5 97 0.5C123.753 0.5 147.954 3.63072 165.451 8.6814C174.203 11.2077 181.249 14.2064 186.095 17.5141C190.959 20.8331 193.5 24.3854 193.5 28Z" stroke="white"/>
<path d="M82.66 21.22C85.036 21.22 86.548 22.696 86.548 24.856C86.548 27.016 85.036 28.492 82.66 28.492H78.898V34H77.368V21.22H82.66ZM82.39 27.106C84.01 27.106 84.982 26.35 84.982 24.856C84.982 23.362 84.01 22.606 82.39 22.606H78.898V27.106H82.39ZM89.8668 32.596H96.7968V34H88.3368V21.22H89.8668V32.596ZM106.975 34L105.733 30.454H100.135L98.8749 34H97.2909L101.971 21.22H103.951L108.631 34H106.975ZM100.585 29.14H105.265L102.925 22.516L100.585 29.14ZM107.452 21.22H109.126L112.744 27.304L116.452 21.22H118.126L113.518 28.726V34H111.988V28.69L107.452 21.22Z" fill="white"/>
</svg>
