<svg xmlns="http://www.w3.org/2000/svg" width="103.671" height="143.481" viewBox="0 0 103.671 143.481">
  <path id="Trazado_437" data-name="Trazado 437" d="M42.2.674c-.172.172-.374.345-.545.545a9.9,9.9,0,0,0-.745.8c-.231.259-.488.545-.717.833s-.459.545-.69.831c-.429.545-.888,1.119-1.319,1.693C36.6,7.5,35.026,9.828,33.364,12.5c-.259.429-.517.831-.776,1.262l-.917,1.462c-.2.316-.374.6-.574.919-.747,1.262-1.464,2.524-2.153,3.729-1.348,2.355-2.612,4.707-4.132,7.489-1.2,2.238-2.612,4.879-4.017,7.548l-1.952,3.815c-.631,1.262-1.291,2.555-1.922,3.817-1.377,2.784-2.555,5.308-3.643,7.746-.976,2.21-1.924,4.477-2.784,6.715L-8.1,46.47l-2.324-1.407c4.362-6.2,17.361-23.872,21.262-28.034a33.279,33.279,0,0,1,3.243-3.1,19.258,19.258,0,0,1,4.074-2.324C24.037,8.937,36.921,3.055,42.2.674m-86.884,42.3a12.869,12.869,0,0,1,2.41.429,17.959,17.959,0,0,1,2.41,1.119c.745.4,1.493.862,2.324,1.407.717.488,1.436,1,2.21,1.579.717.545,1.434,1.119,2.153,1.693.66.545,1.348,1.148,2.093,1.779.545.458,1.981,1.807,2.555,2.353,0,1.119.029,3.213.057,4.275.057,1.924.229,3.874-.545,5.079a16.345,16.345,0,0,1-1.262,1.579c-3.129,3.615-12.08,13.571-13.487,15.064-.372.4-1.579,1.893-1.95.774a11.15,11.15,0,0,1-.316-2.524c-.372-6.112-.488-19.34-.517-19.885v-.029c.086-4.848.057-9.439,1.148-13.085a7.512,7.512,0,0,1,.719-1.605M45.874-.7a3.663,3.663,0,0,1,1.262.029,3.727,3.727,0,0,1,1.979,1.2A13.46,13.46,0,0,1,51.44,4.606,56.512,56.512,0,0,1,54.08,14.7,205.374,205.374,0,0,1,57.007,49.97c.029,4.132.114,8.408.114,12.654,0,4.189-.2,18.852-.431,21.864-.086,1.348-.057,3.415-1.462,2.841A10,10,0,0,1,53.621,86.3C53.1,85.9,42.574,77.171,37.9,72.983c-1.807-1.607-4.072-3.186-5.279-5.308A28.379,28.379,0,0,1,31.009,64c-3.327-8.665-6.6-17.445-9.64-26.282l.057-.088.229-.458.259-.459.488-.948,3.987-7.546C27.711,25.7,29.059,23.2,30.407,20.7c.633-1.176,1.264-2.324,1.924-3.5.086-.143.172-.316.257-.459.173-.316.374-.6.545-.919l.919-1.462c.257-.431.517-.833.774-1.262,1.664-2.669,3.214-4.965,4.791-7.031.431-.574.89-1.148,1.293-1.663.229-.288.459-.545.688-.8s.459-.545.688-.8.488-.517.719-.776.486-.486.745-.745c.114-.114.429-.431.86-.831.259-.259.631-.6.976-.948a.028.028,0,0,0,.029-.029c.029-.086.143-.143.259-.172m-80.918,42.15q5.554,0,11.106.086a11.782,11.782,0,0,1,2.639.4c.862.257,1.722.545,2.583.888a46.084,46.084,0,0,1,4.934,2.412l1.235.66.631.315.6.316L-8.9,47.9l4.82,2.755,9.641,5.51,4.822,2.755.315.172.029.029h.029l.086.057.145.086.574.374,1.176.745c.774.517,1.548,1,2.324,1.521,1.55,1.033,3.041,2.065,4.505,3.184.372.288.717.545,1.089.833l.547.429.515.431a23.96,23.96,0,0,1,1.981,1.836,1.975,1.975,0,0,1,.229.259l.231.257c.143.173.315.345.458.517l.862,1.033a9.5,9.5,0,0,1,1.319,2.267,6.853,6.853,0,0,1,.574,2.467,9.338,9.338,0,0,1-.086,1.262c0,.059-.029.088-.029.145a13.166,13.166,0,0,1-1.722,3.989c-2.238,3.558-5.424,6.139-8.665,8.751a59.591,59.591,0,0,1-8.379,5.624,100.525,100.525,0,0,1-30.53,11.563c.288-.172.545-.316.745-.431.374-.229.747-.488,1.119-.745s.719-.517,1.062-.8l.431-.343a41.9,41.9,0,0,0,3.729-2.984,64.783,64.783,0,0,0,7.232-7.863c1.091-1.407,2.153-2.841,3.155-4.305l.374-.545.172-.286.2-.288a8.14,8.14,0,0,0,.688-1.2,10.639,10.639,0,0,0,.976-2.61,9.359,9.359,0,0,0-.288-5.6,4.676,4.676,0,0,0-.315-.66l-.088-.143-.086-.145-.172-.286c-.229-.374-.488-.774-.745-1.148-.517-.745-1.033-1.464-1.579-2.181q-1.636-2.108-3.357-4.132c-.574-.688-1.176-1.348-1.779-2.01-.143-.172-.315-.343-.459-.486l-.459-.488-.917-.948-3.731-3.788L-18,60.443l-.919-.946c-.315-.316-.631-.633-.974-.948-1.291-1.234-2.641-2.41-3.96-3.558-.66-.574-1.348-1.148-2.01-1.722l-1-.862-.517-.431-.259-.2-.114-.114-.057-.057-.029-.029h-.029c-.345-.316-.688-.631-1.033-.919-.345-.315-.717-.6-1.062-.917-.717-.6-1.462-1.178-2.181-1.752-.745-.545-1.52-1.089-2.267-1.634-.774-.517-1.548-1.033-2.381-1.493-.8-.488-1.636-.919-2.467-1.319-.143-.086-.316-.145-.459-.231-.745-.372-1.434-.688-2.093-.946a8.772,8.772,0,0,0-1.867-.374,5.533,5.533,0,0,1,2.5-.459c.8-.029,1.836-.057,3.012-.114.948.029,2.036.029,3.127.029m14.864,19.34,6.915,7.029c.459.488.948.948,1.378,1.436.517.574,1.062,1.2,1.722,1.95,1.234,1.462,2.324,2.784,3.3,4.074.6.774,1.091,1.464,1.521,2.1.231.343.488.717.688,1.06l.316.517a2.277,2.277,0,0,1,.2.459,6.847,6.847,0,0,1,.431,2.21,8.279,8.279,0,0,1-.257,2.324A10.165,10.165,0,0,1-4.8,86.182a9.994,9.994,0,0,1-.6,1.062l-.717,1.091c-.976,1.491-2.01,2.927-3.043,4.275a73.04,73.04,0,0,1-6.856,7.891,46.906,46.906,0,0,1-3.874,3.472c-.345.257-.688.517-1.033.774s-.717.488-1.062.719a31.442,31.442,0,0,1-3.443,1.836c-.029,0-.057.029-.114.057a8.617,8.617,0,0,1-3.386-.345,5.105,5.105,0,0,1-2.955-2.869c-1.148-2.639-.919-7.03-.459-10.416a82.018,82.018,0,0,1,5.022-18.192A127.619,127.619,0,0,1-20.18,60.788m75.323,57.359v5.422l-7.375.029.029,18.538h-5.71V123.541H34.8v-5.422H55.142ZM31.871,142.164H25.96V118.147h5.91Zm0-24.017-9.67,0v5.422H10.78v4.677h8.867v5.31H10.78v8.608H4.927V118.147Zm-61.662,0,6.541,10.818,6.541-10.818h5.453v24.017h-5.653v-14.29l-4.848,8.377H-34.47l-4.848-8.349v14.29h-5.739V118.176h5.6ZM-7.7,122.652a10.013,10.013,0,0,1,8.751,5.136l.345.6-5.567,1.434-.2-.257A4.278,4.278,0,0,0-7.727,128.1a4.5,4.5,0,0,0-4.477,4.62,4.459,4.459,0,0,0,4.477,4.534,4.2,4.2,0,0,0,3.672-1.836l.2-.316,5.451,1.35-.286.574a10.094,10.094,0,0,1-9.039,5.71,10.053,10.053,0,0,1-10.042-10.044A10.094,10.094,0,0,1-7.7,122.652" transform="translate(46.55 0.743)" fill="#fff"/>
</svg>
