<svg xmlns="http://www.w3.org/2000/svg" width="194.05" height="88.247" viewBox="0 0 194.05 88.247">
  <g id="Grupo_775" data-name="Grupo 775" transform="translate(-1388.057 -8834.141)">
    <path id="Trazado_573" data-name="Trazado 573" d="M3.263,3.672V5.1H-3.6V-4.051H3.08v1.424H-1.9V-.247H2.517v1.4H-1.9V3.672Z" transform="translate(1456.219 8917.159)" fill="#fff"/>
    <path id="Trazado_574" data-name="Trazado 574" d="M3.281,2.188H4.888V5.835A5.793,5.793,0,0,1,1.308,7,4.668,4.668,0,0,1-3.619,2.292,4.676,4.676,0,0,1,1.334-2.413,4.727,4.727,0,0,1,5.006-.924L3.935.123A3.4,3.4,0,0,0,1.412-.924,3.13,3.13,0,0,0-1.907,2.292,3.147,3.147,0,0,0,1.4,5.507a3.677,3.677,0,0,0,1.882-.471Z" transform="translate(1466.133 8915.39)" fill="#fff"/>
    <path id="Trazado_575" data-name="Trazado 575" d="M0,3.953.587,2.633a5.076,5.076,0,0,0,3.02,1c1.424,0,2.027-.509,2.027-1.188C5.634.477.2,1.77.2-1.628.2-3.105,1.373-4.36,3.882-4.36a5.784,5.784,0,0,1,3.045.81L6.391-2.228a5.078,5.078,0,0,0-2.522-.719c-1.411,0-1.987.547-1.987,1.241,0,1.947,5.424.679,5.424,4.038,0,1.464-1.19,2.719-3.7,2.719A5.894,5.894,0,0,1,0,3.953" transform="translate(1479.752 8917.337)" fill="#fff"/>
    <path id="Trazado_576" data-name="Trazado 576" d="M3.263,3.672V5.1H-3.6V-4.051H3.08v1.424H-1.9V-.247H2.517v1.4H-1.9V3.672Z" transform="translate(1494.173 8917.159)" fill="#fff"/>
    <path id="Trazado_577" data-name="Trazado 577" d="M2.847,4.351.978,1.672a3.133,3.133,0,0,1-.353.013H-1.439V4.351h-1.7V-4.8H.625c2.4,0,3.893,1.23,3.893,3.255A2.923,2.923,0,0,1,2.572,1.344l2.1,3.007ZM.547-3.36H-1.439V.286H.547c1.489,0,2.259-.679,2.259-1.83S2.036-3.36.547-3.36" transform="translate(1504.3 8917.905)" fill="#fff"/>
    <path id="Trazado_578" data-name="Trazado 578" d="M4.593,0,.606,9.15H-1.066l-4-9.15h1.844L-.178,7.058,2.894,0Z" transform="translate(1516.316 8913.107)" fill="#fff"/>
    <path id="Trazado_579" data-name="Trazado 579" d="M655.8-443.891h1.7v9.15h-1.7Z" transform="translate(867.901 9356.999)" fill="#fff"/>
    <path id="Trazado_580" data-name="Trazado 580" d="M0,2.237A4.663,4.663,0,0,1,4.9-2.468,4.63,4.63,0,0,1,8.52-.939L7.424.094A3.216,3.216,0,0,0,4.98-.977,3.123,3.123,0,0,0,1.712,2.237,3.123,3.123,0,0,0,4.98,5.452,3.183,3.183,0,0,0,7.424,4.367l1.1,1.047A4.64,4.64,0,0,1,4.888,6.943,4.659,4.659,0,0,1,0,2.237" transform="translate(1529.051 8915.444)" fill="#fff"/>
    <path id="Trazado_581" data-name="Trazado 581" d="M3.263,3.672V5.1H-3.6V-4.051H3.08v1.424H-1.9V-.247H2.517v1.4H-1.9V3.672Z" transform="translate(1544.634 8917.159)" fill="#fff"/>
    <path id="Trazado_582" data-name="Trazado 582" d="M15.636,20.327q-.7-2.194-1.516-4.541t-1.636-4.7H-4.139L-5.75,15.761q-.809,2.351-1.506,4.566h-9.99q2.4-6.909,4.551-12.768T-8.484-3.484q2.059-5.182,4.059-9.84t4.151-9.1h9.2q2.093,4.441,4.126,9.1t4.1,9.84Q19.213,1.7,21.37,7.559t4.559,12.768ZM4.127-12.74q-.317.929-.936,2.532t-1.4,3.7Q1-4.4.026-1.877t-1.979,5.3H10.2Q9.231.65,8.318-1.877T6.585-6.5q-.821-2.093-1.443-3.695T4.127-12.74" transform="translate(1405.304 8880.559)" fill="#fff"/>
    <path id="Trazado_583" data-name="Trazado 583" d="M14.313,8.068a23.814,23.814,0,0,1-.923,6.848,15.416,15.416,0,0,1-2.707,5.306,12.24,12.24,0,0,1-4.431,3.457A14.271,14.271,0,0,1,.162,24.91a16.448,16.448,0,0,1-3.569-.368,17.127,17.127,0,0,1-3.2-1.051V35.736h-9.182V-7.05q1.233-.369,2.831-.709T-9.6-8.344q1.753-.246,3.569-.4T-2.553-8.9a19.833,19.833,0,0,1,7.14,1.2A14.653,14.653,0,0,1,9.88-4.3a14.535,14.535,0,0,1,3.293,5.336,20.524,20.524,0,0,1,1.14,7.033m-9.365.246a11.135,11.135,0,0,0-1.9-6.81A6.606,6.606,0,0,0-2.612-1.055q-1.227,0-2.273.093t-1.722.215V15.833a7.979,7.979,0,0,0,2.244.925,10.711,10.711,0,0,0,2.8.37q6.515,0,6.515-8.814" transform="translate(1450.909 8876.584)" fill="#fff"/>
    <path id="Trazado_584" data-name="Trazado 584" d="M6.15,23.045a22.946,22.946,0,0,1-6.5-.864,9.614,9.614,0,0,1-3.943-2.25,7.461,7.461,0,0,1-1.971-3.516,18.984,18.984,0,0,1-.522-4.654v-35.7L2.4-25.42V9.9a12.014,12.014,0,0,0,.185,2.217,3.833,3.833,0,0,0,.707,1.666A3.734,3.734,0,0,0,4.8,14.889a8.237,8.237,0,0,0,2.646.555Z" transform="translate(1478.043 8878.449)" fill="#fff"/>
    <path id="Trazado_585" data-name="Trazado 585" d="M13.3,14.879a50.879,50.879,0,0,1-6.038,1.264A49.55,49.55,0,0,1-.5,16.728,18.468,18.468,0,0,1-7.37,15.62a10.428,10.428,0,0,1-4.343-3.112,12.136,12.136,0,0,1-2.28-4.774,25.563,25.563,0,0,1-.679-6.1V-16.412H-5.49V.513q0,4.433,1.171,6.4T.054,8.884c.656,0,1.356-.031,2.093-.092s1.4-.135,1.971-.217V-16.412H13.3Z" transform="translate(1504.004 8884.888)" fill="#fff"/>
    <path id="Trazado_586" data-name="Trazado 586" d="M5.328,12.694A9.156,9.156,0,0,0,8.9,12.2a1.907,1.907,0,0,0,1.049-1.91A2.338,2.338,0,0,0,8.592,8.352,25.434,25.434,0,0,0,4.468,6.474Q2.312,5.674.556,4.812A11.447,11.447,0,0,1-2.432,2.747,8.348,8.348,0,0,1-4.338-.122a10.626,10.626,0,0,1-.677-4.01,8.671,8.671,0,0,1,3.388-7.216Q1.759-14,7.671-14a29.834,29.834,0,0,1,5.666.524,26.638,26.638,0,0,1,4.311,1.14l-1.6,7.172a33.806,33.806,0,0,0-3.478-.986,18.836,18.836,0,0,0-4.214-.433q-4.307,0-4.307,2.4A2.5,2.5,0,0,0,4.23-3.2a2.126,2.126,0,0,0,.738.831A10.34,10.34,0,0,0,6.476-1.5q.955.466,2.435,1.022a37.912,37.912,0,0,1,4.991,2.2,11.823,11.823,0,0,1,3.108,2.347,7.275,7.275,0,0,1,1.6,2.8,12.482,12.482,0,0,1,.461,3.569,8.232,8.232,0,0,1-3.6,7.266q-3.6,2.465-10.192,2.463a29.249,29.249,0,0,1-7.176-.74A29.3,29.3,0,0,1-5.877,18.2l1.541-7.479a29.877,29.877,0,0,0,4.8,1.449,23.243,23.243,0,0,0,4.864.524" transform="translate(1528.831 8881.563)" fill="#fff"/>
    <path id="Trazado_587" data-name="Trazado 587" d="M4.081,6.527H.672v-5.2l-.431,0L-4.5,1.353V-2L.672-2.027V-7.2H4.081V-2h5.2v3.35h-5.2Z" transform="translate(1562.422 8851.771)" fill="#fff"/>
    <path id="Trazado_588" data-name="Trazado 588" d="M14.035,14.035A17.239,17.239,0,0,1,1.813,19.1,17.312,17.312,0,0,1-15.481,1.812a17.181,17.181,0,0,1,5.066-12.227A17.182,17.182,0,0,1,1.813-15.481,17.313,17.313,0,0,1,19.106,1.812a17.242,17.242,0,0,1-5.071,12.223M-6.942-6.943A12.31,12.31,0,0,0-10.57,1.812,12.4,12.4,0,0,0,1.812,14.193,12.4,12.4,0,0,0,14.195,1.812,12.4,12.4,0,0,0,1.813-10.57,12.3,12.3,0,0,0-6.942-6.943" transform="translate(1563.001 8849.622)" fill="#fff"/>
  </g>
</svg>
