<svg xmlns="http://www.w3.org/2000/svg" width="161.256" height="89.527" viewBox="0 0 161.256 89.527">
  <g id="Grupo_768" data-name="Grupo 768" transform="translate(-316.315 -9112.888)">
    <path id="Trazado_541" data-name="Trazado 541" d="M6.555,3.1a35.172,35.172,0,0,1,3.744.32,3.057,3.057,0,0,1,2.6,3.26,3.168,3.168,0,0,1-2.641,3.255,20.32,20.32,0,0,1-3.462.4c-3.7.067-3.706.036-3.706-3.708,0-3.445,0-3.445,3.46-3.525ZM-7.231-3.411V30.229H3.095V18.587c0-2.21.7-2.751,2.705-1.7a7.006,7.006,0,0,1,2.57,2.595c1.844,3.127,3.544,6.339,5.22,9.561a2.1,2.1,0,0,0,2.194,1.317c3.268-.074,6.536-.027,9.756-.027.088-.221.17-.324.145-.374-1.771-3.42-3.474-6.879-5.357-10.242A8.7,8.7,0,0,0,14.992,15.5c1.163-.431,1.9-.675,2.625-.976A9.51,9.51,0,0,0,20.99-.423,8.836,8.836,0,0,0,14.458-3.17C8.086-3.325,1.709-3.342-4.665-3.414c-.8,0-1.6,0-2.566,0" transform="translate(323.663 9135.869)" fill="#fff"/>
    <path id="Trazado_550" data-name="Trazado 550" d="M5.122,1.682A3.288,3.288,0,0,0,2.874-1.357a8.6,8.6,0,0,0-5.8.01A3.155,3.155,0,0,0-5.217,1.662,3.015,3.015,0,0,0-3.212,4.71C-2.1,5.183-.878,5.385.215,5.883a4.088,4.088,0,0,1,1.68,1.462c.122.189-.562,1.287-.927,1.314-.81.061-2.16-.044-2.391-.519-1.035-2.12-2.593-1.26-4.227-1.1a3.815,3.815,0,0,0,2.273,3.449,8.729,8.729,0,0,0,6.568.019A3.686,3.686,0,0,0,5.622,6.967a3.283,3.283,0,0,0-2.36-3.378C2.136,3.158.922,2.964-.2,2.535A4.441,4.441,0,0,1-1.688,1.412c-.069-.072.332-.879.547-.894C-.43.462.7.357.947.739c1.134,1.767,2.623.89,4.175.944" transform="translate(321.966 9190.587)" fill="#fff"/>
    <path id="Trazado_553" data-name="Trazado 553" d="M.019.021c0,2.332-.109,4.44.029,6.534.153,2.307,2.61,3.4,4.785,2.219a12.952,12.952,0,0,0,1.306-.917,2.366,2.366,0,0,0,2.9,1.089,1.2,1.2,0,0,0,.5-.925c.042-2.33,0-4.663.034-6.993C9.587.271,9.3-.042,8.551.017a9.276,9.276,0,0,1-1.342,0C6.424-.044,6.2.339,6.221,1.064a28.068,28.068,0,0,1-.04,3.626A2.94,2.94,0,0,1,5.4,6.437c-.774.7-1.9.13-2.011-1.018a22.927,22.927,0,0,1-.072-3.76C3.405.36,2.95-.17,1.65.011a13.287,13.287,0,0,1-1.63.01" transform="translate(329.564 9192.463)" fill="#fff"/>
    <path id="Trazado_542" data-name="Trazado 542" d="M31.214,3.691l7.325-1.685-.088-.488L30.63,2.6l-.114-.41c.806-1.037,2.2-.829,3.264-1.333s2.072-1.1,3.1-1.647l-.21-.454-8.265,3.1-.343-.627a5.35,5.35,0,0,1,1.3-.9,11.587,11.587,0,0,0,5.028-3,3.415,3.415,0,0,0,.8-1.4C32.7-2.75,30.636-.706,27.885.005l-.3-.44,2.961-2.351L30.4-2.975C28.672-1.886,26.985-.723,25.2.263a13.136,13.136,0,0,1-3.8,1.552c-3.43.65-6.9,1.062-10.353,1.607a7.44,7.44,0,0,0-1.781.595C6.272,5.338,3.311,6.73.3,8.009a7.225,7.225,0,0,1-7.735-.854A7.514,7.514,0,0,0-12.9,5.681a2.132,2.132,0,0,0-.524.1c-.112.044-.2.162-.406.345a13.229,13.229,0,0,1,1.34,1.052.933.933,0,0,1,.257.8.922.922,0,0,1-.77.366,6.473,6.473,0,0,1-1.407-.412c-2.782-.988-5.512-2.173-8.362-2.906a15.358,15.358,0,0,0-5.481-.194,4.861,4.861,0,0,1-4.612-2.114c-.5-.61-.911-1.283-1.422-2.013a3.4,3.4,0,0,0,1.624,3.948c1.441.854,1.441.854.675,2.488.549.08,1.037.183,1.529.215,1.622.109,1.849.488,1.075,1.855a3.1,3.1,0,0,0-.175.458c.1.109.174.244.206.229,1.685-.532,2.791.534,4.1,1.293a19.635,19.635,0,0,0,6.416,2.24c2.132.389,4.078,1.745,6.13,2.622a20.2,20.2,0,0,1,7.958,6.236,5.254,5.254,0,0,0,2.011,1.541c2.072.862,3.1,2.627,4.128,4.416A5.819,5.819,0,0,0,7.576,31.3c1.3-.166,1.676-.845.9-1.914C7.447,27.971,6.32,26.627,5.18,25.3c-1.577-1.828-1.331-3.226.311-4.925,1.058-1.1,2.355-1.186,3.554-1.642,3.46-1.319,7.033-2.36,10.45-3.781A54.207,54.207,0,0,0,25.427,11.6c.271-.156.576-.423.839-.395,2.824.311,4.459-2.027,6.564-2.8.881-2.109-1.184-2.187-2.316-3.382l8.909.471.036-.357-8.179-.967c-.023-.156-.044-.318-.067-.482" transform="translate(438.111 9116.96)" fill="#fff"/>
    <path id="Trazado_543" data-name="Trazado 543" d="M8.457,6.293c1.121,4.328-1.931,7.851-6.032,7.279A2.539,2.539,0,0,1,.056,11.525,2.288,2.288,0,0,1,1.4,8.73C3.7,7.813,6.089,7.1,8.457,6.3Zm.623,8.854c1.2,3.544.787,2.814,3.863,2.875,1.75.034,3.5-.011,5.253-.032.122,0,.231-.1.431-.2-1.422-3.4-.73-6.97-.869-10.475-.067-1.792.025-3.588-.023-5.382C17.6-2.946,15.149-5.785,10.35-6.5a35.029,35.029,0,0,0-12.194.185A7.9,7.9,0,0,0-8.411.37c2.212.25,4.421.452,6.618.766,1.27.183,2.162.147,2.934-1.218C2.06-1.7,6.279-2.21,7.663-.971a3.744,3.744,0,0,1,.955,2.229c.036.294-.793.885-1.312,1.024C4.447,3.045,1.561,3.7-1.311,4.417c-1.26.315-2.532.618-3.75,1.054a5.942,5.942,0,0,0-4.217,5.662,6.014,6.014,0,0,0,3.794,6.379A13.617,13.617,0,0,0,7.393,16.4c.555-.347,1.062-.782,1.687-1.251" transform="translate(357.212 9148.177)" fill="#fff"/>
    <path id="Trazado_544" data-name="Trazado 544" d="M9.016,6.011c-.168,1.2-.225,2.24-.465,3.232a4.559,4.559,0,0,1-4.2,3.569A4.473,4.473,0,0,1-.094,9.755,9.979,9.979,0,0,1-.075,2.663,4.513,4.513,0,0,1,4.266-.361,4.4,4.4,0,0,1,8.379,2.758a24.181,24.181,0,0,1,.637,3.251ZM4.3,18.851c4.633,0,8.688-1.287,11.584-5.161C20.167,7.961,19.12-3.81,8.512-6.077A17.383,17.383,0,0,0-3.322-4.937,12.4,12.4,0,0,0-9.92,6.811C-9.7,13.357-4.512,19.154,4.3,18.851" transform="translate(415.305 9147.843)" fill="#fff"/>
    <path id="Trazado_545" data-name="Trazado 545" d="M13.35,7.918c-2.58-.3-5.163-.574-7.739-.915-.885-.122-1.028.511-1.321,1.043A5.147,5.147,0,0,1-2.662,10.2a5.158,5.158,0,0,1-1.262-.936C-6.414,6.776-6,.648-3.226-1.5-1.2-3.064,3.016-2.8,4.143-.059a1.322,1.322,0,0,0,1.075.6C7.76.269,10.29-.1,13.01-.462A10.271,10.271,0,0,0,8.032-6.9,18.183,18.183,0,0,0-3.134-8.448,16.114,16.114,0,0,0-8.866-6.742c-4.477,2.484-5.975,6.629-5.853,11.582.122,4.679,2,8.379,6.242,10.364a19.886,19.886,0,0,0,14.856.6,11.34,11.34,0,0,0,4.41-2.927,26.2,26.2,0,0,0,2.927-4.555Z" transform="translate(391.391 9149.914)" fill="#fff"/>
    <path id="Trazado_546" data-name="Trazado 546" d="M5.722,0H2.02c0,1.058-.034,2.072.011,3.079C2.071,3.962,1.8,4.366.83,4.4c-3.369.133-3.367.166-3.43-3.253C-2.605.8-2.653.452-2.687.011H-6.161A8.288,8.288,0,0,0-6.283,1.03c-.01,3.363.029,6.728-.029,10.09-.015,1.009.3,1.39,1.3,1.3.745-.063,1.5-.011,2.412-.011,0-1.464.027-2.757-.01-4.046-.023-.774.236-1.112,1.062-1.171,3.563-.257,3.563-.28,3.563,3.251V12.4c1.083,0,2.057.051,3.02-.036a1.028,1.028,0,0,0,.652-.753C5.736,7.8,5.722,3.99,5.722,0" transform="translate(409.717 9189.063)" fill="#fff"/>
    <path id="Trazado_547" data-name="Trazado 547" d="M7.36,4.386c0-2.316.122-4.427-.032-6.517-.173-2.408-2.835-3.472-5-2.1-.406.257-.782.566-1.159.841-2.051-1.87-3.316-1.9-5.887-.183A2.682,2.682,0,0,0-7.8-4.493a1.132,1.132,0,0,0-.294.814c-.025,2.374-.051,4.755.029,7.123.011.324.551.715.932.913.282.145.705,0,1.06.038.976.109,1.411-.236,1.327-1.274C-4.82,2.186-4.764,1.242-4.757.3A7.179,7.179,0,0,1-4.705-.771c.133-.81.479-1.512,1.422-1.5.99.01,1.256.766,1.285,1.577a35.066,35.066,0,0,1,0,3.9c-.1,1.434.843,1.174,1.666,1.186.862.013,1.752.164,1.645-1.232A26.128,26.128,0,0,1,1.35-.462c.053-.887.322-1.806,1.426-1.777C3.9-2.211,4.05-1.305,4.05-.39c0,1.165.059,2.334-.017,3.493-.065,1.01.3,1.4,1.3,1.3A19.383,19.383,0,0,1,7.36,4.386" transform="translate(367.611 9197.089)" fill="#fff"/>
    <path id="Trazado_548" data-name="Trazado 548" d="M5.789,4.387a19.2,19.2,0,0,0,2.629-.042,1.153,1.153,0,0,0,.69-.867,43.217,43.217,0,0,0-.063-5.235c-.275-2.879-2.909-3.971-5.291-2.28-.286.2-.559.429-.826.635C.582-5.241-.457-5.272-2.819-3.71c-.582-.324-1.064-.8-1.584-.848-1.975-.175-1.983-.122-1.983,1.889V4.28h3.268c0-1.34-.021-2.585.01-3.832a3.6,3.6,0,0,1,.257-1.695c.275-.454.94-.988,1.375-.94A1.712,1.712,0,0,1-.409-.946a29.706,29.706,0,0,1,.057,4.16C-.38,4.067-.117,4.49.786,4.4A7.994,7.994,0,0,1,2,4.4c.742.048,1.051-.259,1.03-1.02C2.987,2.13,2.985.871,3.042-.379c.044-.942.3-1.907,1.485-1.851,1.1.053,1.26.976,1.262,1.884,0,1.512,0,3.028,0,4.734" transform="translate(348.01 9197.077)" fill="#fff"/>
    <path id="Trazado_549" data-name="Trazado 549" d="M3.535,4.163a10.316,10.316,0,0,1-.421,1.775,1.607,1.607,0,0,1-2.839.244A3.717,3.717,0,0,1,.242,2.589a1.585,1.585,0,0,1,2.7-.122,7.428,7.428,0,0,1,.589,1.7ZM-.156.16V-4.576c-1.123,0-2.1-.053-3.062.034a1.027,1.027,0,0,0-.648.751c-.042,4.08-.048,8.158.01,12.238,0,.282.534.74.873.8a14.913,14.913,0,0,0,2.353.036l.313-1.226a4.452,4.452,0,0,1,.52.309c2.513,2.118,5.714,1.283,6.564-1.874a9.547,9.547,0,0,0,.109-4.231A4,4,0,0,0,.957-.4Z" transform="translate(423.463 9174.745)" fill="#fff"/>
    <path id="Trazado_551" data-name="Trazado 551" d="M3.484,2.482c.345,1.872-.442,3.11-1.941,3.1A1.776,1.776,0,0,1,.129,4.77,1.7,1.7,0,0,1,.884,3.346a13.4,13.4,0,0,1,2.6-.864ZM3.906,6.65C4.657,8,6.157,7.041,7.32,7.281c0-2.307.051-4.488-.015-6.663A3,3,0,0,0,4.6-2.645c-.069-.008-.137-.011-.208-.013a26.063,26.063,0,0,0-5.342.13A2.8,2.8,0,0,0-3.353-.054c1.474,0,2.864,1,4.246-.442.347-.366,1.285-.292,1.92-.2.315.044.683.549.782.911.048.181-.412.658-.717.749C1.545,1.357.18,1.641-1.164,2c-1.912.507-2.829,1.563-2.66,3.012A2.972,2.972,0,0,0-.59,7.472a30.218,30.218,0,0,0,4.5-.822" transform="translate(450.692 9176.736)" fill="#fff"/>
    <path id="Trazado_552" data-name="Trazado 552" d="M2.261,3.406C3.59,2.052,4.877.649,6.265-.642a2.648,2.648,0,0,0,.768-3.094H2.583c-1.121,0-2.246.05-3.363-.013-.976-.057-1.354.242-1.34,1.275.006,1.062.551,1.148,1.361,1.119.925-.034,1.851-.01,3.18-.01-.488.635-.717.976-1,1.274A37.926,37.926,0,0,1-1.415,2.771,3.131,3.131,0,0,0-2.307,6.2H3.437c.942,0,1.886-.044,2.824.011.9.053,1.283-.208,1.277-1.19s-.385-1.234-1.281-1.2c-1.27.055-2.543.013-3.815.013Z" transform="translate(439.007 9177.832)" fill="#fff"/>
    <path id="Trazado_554" data-name="Trazado 554" d="M3,3.68c.265,1.916,1.6,1.255,2.536,1.253,1.089,0,.707-.959.721-1.544C6.3,1.371,6.18-.651,6.3-2.663c.092-1.55-.852-1.327-1.807-1.361s-1.674.017-1.561,1.31A22.226,22.226,0,0,1,2.907.647c-.063.974-.275,2.008-1.527,1.994C.087,2.624,0,1.572-.012.594c-.017-1.472,0-2.942,0-4.374a2.334,2.334,0,0,0-.5-.2C-3.3-4.188-3.3-4.186-3.3-1.387c0,1.167-.029,2.336.04,3.5A3.107,3.107,0,0,0-.214,5.278,3.1,3.1,0,0,0,1.778,4.6c.368-.24.7-.53,1.218-.925" transform="translate(433.311 9196.498)" fill="#fff"/>
    <path id="Trazado_555" data-name="Trazado 555" d="M1.7,1.817c.141-1.439.77-2.149,1.828-2.04A1.645,1.645,0,0,1,5.174,1.429a1.574,1.574,0,0,1-.048.389ZM8.016,5.043c-1.241-.16-2.421-.541-3.7.242S1.852,5.2,1.709,3.371c1.828,0,3.657-.071,5.478.025,1.255.065,1.561-.4,1.384-1.563a4.077,4.077,0,0,0-3.39-3.68,10.093,10.093,0,0,0-2.934-.092,4.416,4.416,0,0,0-4.116,4.7c0,.071.011.139.019.208A4.313,4.313,0,0,0,2.483,7.263c.08,0,.16,0,.24-.008a10.491,10.491,0,0,0,3.312-.366A9.016,9.016,0,0,0,8.23,5.411Z" transform="translate(454.353 9194.354)" fill="#fff"/>
    <path id="Trazado_556" data-name="Trazado 556" d="M1.721,1.826c0-1.388.635-2.109,1.746-2.072C4.526-.207,5.062.485,5,1.826Zm6.254,3.2C6.793,4.89,5.657,4.462,4.423,5.2c-1.39.833-2.612.059-2.742-1.811H8.387a4.2,4.2,0,0,0-2.9-5.178c-.135-.038-.271-.069-.41-.093a11.27,11.27,0,0,0-2.932-.069A4.35,4.35,0,0,0-1.888,2.7c.008.107.019.212.034.318A4.222,4.222,0,0,0,2.368,7.237c.082,0,.164,0,.246-.008A11.365,11.365,0,0,0,6.051,6.84a8.254,8.254,0,0,0,2.1-1.426Z" transform="translate(378.831 9194.371)" fill="#fff"/>
    <path id="Trazado_557" data-name="Trazado 557" d="M3.393,2.236c.019,1.552-.749,2.618-1.882,2.608C.4,4.834-.329,3.856-.351,2.356-.372.806.388-.256,1.527-.256c1.083,0,1.847,1.018,1.865,2.492Zm-2,4.988C5.13,6.949,7.178,4.6,6.569,1.12,6.226-.842,4.655-2.1,2.194-2.388A5.16,5.16,0,0,0-3.31.377,4.439,4.439,0,0,0-2.09,5.742,17.286,17.286,0,0,0,1.4,7.223" transform="translate(421.291 9194.708)" fill="#fff"/>
    <path id="Trazado_558" data-name="Trazado 558" d="M0,3.239c.963,2.3,2.776,2.393,4.589,2.406,1.863.011,3.767,0,4.742-2.036A2.328,2.328,0,0,0,7.891.351c-1-.355-2.1-.418-3.14-.7A4.061,4.061,0,0,1,3.43-1.1c-.059-.046.164-.715.318-.742.541-.1,1.3-.269,1.636.006,1.19.988,2.337.381,3.506.257L9.134-2c-.721-.488-1.392-1.293-2.172-1.415a15.526,15.526,0,0,0-4.389-.01A2.487,2.487,0,0,0,.32-.955,2.546,2.546,0,0,0,2.48,1.462c.955.244,1.95.355,2.879.665.427.143.742.623,1.106.951a5.717,5.717,0,0,1-1.3.9A1.254,1.254,0,0,1,4.04,3.745C2.869,2.33,1.5,3.207,0,3.239" transform="translate(441.458 9195.981)" fill="#fff"/>
    <path id="Trazado_559" data-name="Trazado 559" d="M0,4.3H3.316c0-1.43-.055-2.765.013-4.093.1-1.76.543-2.021,2.229-2.532.593-.179.938-1.18,1.434-1.863a2.437,2.437,0,0,0-3.43.341,2.513,2.513,0,0,0-.275.414C2.666-5.482,1.17-4.222,0-4.655Z" transform="translate(389.498 9197.073)" fill="#fff"/>
    <path id="Trazado_560" data-name="Trazado 560" d="M1.763,2.383c0-1.295-.032-2.589.011-3.884C1.8-2.281,1.567-2.637.724-2.628c-3.247.036-2.593-.223-2.642,2.477-.036,2.051.034,4.109-.025,6.16-.027.961.227,1.357,1.268,1.329,2.951-.08,2.381.221,2.438-2.41.015-.848,0-1.7,0-2.545" transform="translate(433.596 9176.715)" fill="#fff"/>
    <path id="Trazado_561" data-name="Trazado 561" d="M1.764,2.331c0-1.255-.025-2.507.008-3.762.021-.766-.21-1.148-1.06-1.14-3.228.031-2.585-.215-2.631,2.505-.034,2.015.036,4.032-.025,6.046C-1.973,6.989-1.721,7.437-.6,7.4c2.744-.1,2.324.254,2.364-2.379.013-.9,0-1.792,0-2.686" transform="translate(415.66 9176.658)" fill="#fff"/>
    <path id="Trazado_562" data-name="Trazado 562" d="M.815.006C.272.227-.813-.537-.891.915-.952,1.983-.685,2.559.495,2.387a4.4,4.4,0,0,1,.808,0c.839.029,1.55.1,1.554-1.186S2.161-.03,1.313.008c-.132,0-.265,0-.5,0" transform="translate(432.543 9170.147)" fill="#fff"/>
    <path id="Trazado_563" data-name="Trazado 563" d="M.84,0C.243.2-.88-.518-.924,1-.954,2.022-.688,2.54.416,2.388a4.062,4.062,0,0,1,.938,0c.934.078,1.485-.1,1.462-1.272S2.127-.028,1.332.006C1.2.01,1.067,0,.84,0" transform="translate(414.64 9170.149)" fill="#fff"/>
    <path id="Trazado_564" data-name="Trazado 564" d="M22.524,42.57H183.779V-46.957H22.524Z" transform="translate(293.791 9159.846)" fill="none"/>
  </g>
</svg>
