<svg xmlns="http://www.w3.org/2000/svg" width="144.893" height="97.256" viewBox="0 0 144.893 97.256">
  <g id="Grupo_774" data-name="Grupo 774" transform="translate(-324.497 -8834.142)">
    <path id="Trazado_422" data-name="Trazado 422" d="M2.842,7.738l.109.109v.467l-.109.109c-.215,0-.684,0-1.333-.036C.934,8.35.322,8.35-.327,8.35c-.827,0-1.727.036-2.736.109l-.072-.145V7.847l.109-.109a8.866,8.866,0,0,0,1.26-.109.585.585,0,0,0,.252-.143.636.636,0,0,0,.143-.36,12.837,12.837,0,0,0,.109-1.476c.036-.829.036-1.441.036-1.872V-.58L-2.7-.507-2.811-.58V-.868l.072-.107,1.476-.757v-.684a13.823,13.823,0,0,1,.109-1.727A2.772,2.772,0,0,1-.759-5.224a8.426,8.426,0,0,1,.972-1.26A13.35,13.35,0,0,1,1.437-7.709a4.13,4.13,0,0,1,.9-.648,2.652,2.652,0,0,1,.9-.179,2.688,2.688,0,0,1,.936.179v1.872l-.252.109a2.231,2.231,0,0,0-1.478-.576A2.113,2.113,0,0,0,1.4-6.7a1.275,1.275,0,0,0-.578.791A6.36,6.36,0,0,0,.682-4.073v2.341H1.906c.612,0,1.224-.036,1.8-.072l.109.145L3.6-.65,3.49-.544H.609V4.03c0,.252,0,.791.036,1.657A13,13,0,0,0,.754,7.2a.641.641,0,0,0,.143.36.649.649,0,0,0,.36.143,10.48,10.48,0,0,0,1.548.072Z" transform="translate(327.632 8922.578)" fill="#fff"/>
    <path id="Trazado_423" data-name="Trazado 423" d="M0,2.691A5.808,5.808,0,0,1,.576.1,4.919,4.919,0,0,1,2.52-2.062a5.847,5.847,0,0,1,3.277-.9,5.153,5.153,0,0,1,5.4,4.9V2.44A5.835,5.835,0,0,1,5.51,8.417H5.329a5,5,0,0,1-2.845-.864A5.193,5.193,0,0,1,.648,5.463,6.251,6.251,0,0,1,0,2.691m2.16-.757a9.532,9.532,0,0,0,.4,2.845A4.436,4.436,0,0,0,3.853,6.8a2.992,2.992,0,0,0,2.015.757A2.848,2.848,0,0,0,8.1,6.472a5,5,0,0,0,.866-3.2A7.582,7.582,0,0,0,8.03-.693,3.057,3.057,0,0,0,5.293-2.241a2.734,2.734,0,0,0-2.3,1.079,4.8,4.8,0,0,0-.829,3.1" transform="translate(332.454 8922.98)" fill="#fff"/>
    <path id="Trazado_424" data-name="Trazado 424" d="M1.815,0,2.03.145c-.036.5-.071,1.188-.107,2.015Q2.842,1.405,3.651.648A3.363,3.363,0,0,1,4.084.324,2.475,2.475,0,0,1,4.768.109,4.526,4.526,0,0,1,5.775,0,3.978,3.978,0,0,1,7.468.36a3.19,3.19,0,0,1,1.224.827,2.67,2.67,0,0,1,.576,1.153A6.127,6.127,0,0,1,9.413,3.96V5.977c0,.145.036,1.081.072,2.845a2.149,2.149,0,0,0,.252,1.3,2.558,2.558,0,0,0,1.4.215l.109.109v.5H11.14Q9.684,10.84,9.2,10.839c-.181,0-.757.036-1.657.107L7.4,10.8A37.16,37.16,0,0,0,7.54,6.949V5.474c0-.9-.036-1.548-.072-1.945a2.3,2.3,0,0,0-.4-1.081,2.184,2.184,0,0,0-.864-.755,2.564,2.564,0,0,0-1.26-.254A5.117,5.117,0,0,0,3.9,1.548a4.254,4.254,0,0,0-.9.469,4.649,4.649,0,0,0-.791.683,1.371,1.371,0,0,0-.288.612A6.535,6.535,0,0,0,1.887,4.5V6.48c0,.181,0,.721.036,1.621,0,.541.036,1.081.071,1.621a1.074,1.074,0,0,0,.145.36.588.588,0,0,0,.252.145c.109.034.505.034,1.224.107l.109.109v.467l-.109.109c-.936-.072-1.872-.109-2.736-.109s-1.8.036-2.736.109l-.109-.109v-.467l.109-.109A9.364,9.364,0,0,0-.6,10.227a.588.588,0,0,0,.252-.145A.636.636,0,0,0-.2,9.722,12.792,12.792,0,0,0-.094,8.246c.036-.827.036-1.441.036-1.872V4.1c0-.288,0-.721-.036-1.224-.036-.54-.072-.827-.072-.972a.271.271,0,0,0-.179-.252,1.063,1.063,0,0,0-.576-.072h-.972L-2,1.476v-.5l.109-.109A12.873,12.873,0,0,0,1.815,0" transform="translate(346.483 8920.055)" fill="#fff"/>
    <path id="Trazado_425" data-name="Trazado 425" d="M.017,2.6V2.315L.09,2.206a17.854,17.854,0,0,0,1.727-.755c0-1.981-.036-3.132-.071-3.457a8.414,8.414,0,0,0,1.907-.866l.29.217c-.072.467-.181,1.872-.29,4.175H4.879a16.952,16.952,0,0,0,1.908-.071l.071.071-.215.972L6.534,2.6H3.582L3.51,7.247a20.139,20.139,0,0,0,.072,2.09,1.388,1.388,0,0,0,.395.791,1.661,1.661,0,0,0,1.009.288,2.76,2.76,0,0,0,1.405-.395l.288.395c-.181.145-.612.505-1.3,1.153a2.794,2.794,0,0,1-1.224.288A2.233,2.233,0,0,1,1.6,9.373c0-.614,0-1.117.036-1.55V2.639H1.169c-.324,0-.719,0-1.188.036Z" transform="translate(358.507 8919.36)" fill="#fff"/>
    <path id="Trazado_426" data-name="Trazado 426" d="M2.6,5.187l-.721-1.8L1.055,1.443-1.287-3.995a2.827,2.827,0,0,0-.395-.721.766.766,0,0,0-.36-.215c-.252-.036-.469-.036-.721-.072l-.109-.107v-.505l.109-.107c1.081.034,1.908.071,2.52.071.864,0,1.764-.036,2.665-.071l.107.107v.505L2.424-5a3.453,3.453,0,0,0-1.369.181.44.44,0,0,0-.181.36,5.476,5.476,0,0,0,.469,1.476L2.711.471,3.791,3.063,4.944.471,5.88-1.871c.358-.9.612-1.512.719-1.872A2.782,2.782,0,0,0,6.744-4.5a.346.346,0,0,0-.252-.324,4.814,4.814,0,0,0-1.26-.145l-.109-.107v-.505l.109-.109c.936.036,1.655.072,2.124.072.4,0,1.081-.036,2.017-.072l.107.109v.505l-.107.107a2.5,2.5,0,0,0-.9.181,1.58,1.58,0,0,0-.431.54C7.9-3.995,7.5-3.167,6.816-1.8L5.735.543c-.179.395-.827,1.945-1.981,4.644Z" transform="translate(368.812 8925.921)" fill="#fff"/>
    <path id="Trazado_427" data-name="Trazado 427" d="M4.5,4.418l-.36.827A7.656,7.656,0,0,1,2.02,6.254a6.3,6.3,0,0,1-1.657.215,6.437,6.437,0,0,1-2.593-.54,4.183,4.183,0,0,1-1.979-1.8,5.8,5.8,0,0,1-.757-3.1,7.444,7.444,0,0,1,.288-2.16,7.291,7.291,0,0,1,.612-1.441A5.95,5.95,0,0,1-2.984-3.613a6.758,6.758,0,0,1,1.655-.9,5.609,5.609,0,0,1,1.874-.36,4.767,4.767,0,0,1,2.412.648A3.5,3.5,0,0,1,4.432-2.568,5.474,5.474,0,0,1,4.865-.444,4.324,4.324,0,0,1,4.829.24L4.684.385A10.073,10.073,0,0,1,2.6.6C1.732.637,1.157.673.869.673H-2.769A4.468,4.468,0,0,0-1.581,4.13,4,4,0,0,0,1.263,5.245a4.3,4.3,0,0,0,1.512-.288A12.249,12.249,0,0,0,4.325,4.2ZM-2.769-.227c.145.036.648.036,1.584.071S.4-.12.832-.12A16.935,16.935,0,0,0,2.741-.19V-.623A4.1,4.1,0,0,0,2.02-3.252,2.406,2.406,0,0,0,.076-4.116a2.544,2.544,0,0,0-2.124.972A5.042,5.042,0,0,0-2.769-.227" transform="translate(384.013 8924.818)" fill="#fff"/>
    <path id="Trazado_428" data-name="Trazado 428" d="M1.815,0,2.03.145c-.036.5-.071,1.188-.107,2.015Q2.842,1.405,3.651.648A3.363,3.363,0,0,1,4.084.324,2.475,2.475,0,0,1,4.768.109,4.526,4.526,0,0,1,5.775,0,3.978,3.978,0,0,1,7.468.36a3.19,3.19,0,0,1,1.224.827,2.67,2.67,0,0,1,.576,1.153A6.127,6.127,0,0,1,9.413,3.96V5.977c0,.145.036,1.081.072,2.845a2.149,2.149,0,0,0,.252,1.3,2.558,2.558,0,0,0,1.4.215l.109.109v.5l-.109.109q-1.456-.109-1.943-.109c-.181,0-.757.036-1.657.109L7.4,10.909A37.12,37.12,0,0,0,7.54,7.058V5.581c0-.9-.036-1.548-.072-1.945a2.3,2.3,0,0,0-.4-1.079A2.2,2.2,0,0,0,6.208,1.8a2.562,2.562,0,0,0-1.26-.252A5.117,5.117,0,0,0,3.9,1.657a3.357,3.357,0,0,0-.936.5,4.749,4.749,0,0,0-.791.684,1.361,1.361,0,0,0-.288.612,6.519,6.519,0,0,0-.036,1.188V6.625c0,.179,0,.721.036,1.621A11.955,11.955,0,0,0,1.994,9.83a1.091,1.091,0,0,0,.145.36.6.6,0,0,0,.252.143c.109.036.505.036,1.224.109l.109.109v.467l-.109.109c-.936-.072-1.872-.109-2.736-.109s-1.8.036-2.736.109l-.109-.109v-.467l.109-.109A8.866,8.866,0,0,0-.6,10.334a.6.6,0,0,0,.252-.143A.641.641,0,0,0-.2,9.83,12.837,12.837,0,0,0-.094,8.355c.036-.829.036-1.441.036-1.874V4.1c0-.288,0-.721-.036-1.224-.036-.54-.072-.827-.072-.972a.271.271,0,0,0-.179-.252,1.063,1.063,0,0,0-.576-.072h-.972L-2,1.476v-.5l.109-.109A15.936,15.936,0,0,0,1.779,0Z" transform="translate(391.744 8920.055)" fill="#fff"/>
    <path id="Trazado_429" data-name="Trazado 429" d="M0,2.6V2.315l.072-.109A17.854,17.854,0,0,0,1.8,1.451c0-1.981-.036-3.132-.071-3.457a8.414,8.414,0,0,0,1.907-.866l.29.217c-.072.467-.181,1.872-.29,4.175H4.862A16.952,16.952,0,0,0,6.77,1.451l.071.071-.215.972L6.517,2.6H3.565L3.493,7.247a20.139,20.139,0,0,0,.072,2.09,1.388,1.388,0,0,0,.395.791,1.661,1.661,0,0,0,1.009.288,2.76,2.76,0,0,0,1.405-.395l.288.395c-.181.145-.612.505-1.3,1.153a2.794,2.794,0,0,1-1.224.288A2.233,2.233,0,0,1,1.584,9.373c0-.614,0-1.117.036-1.55V2.639H1.188c-.324,0-.719,0-1.188.036Z" transform="translate(403.749 8919.36)" fill="#fff"/>
    <path id="Trazado_430" data-name="Trazado 430" d="M.74,1.492.307,1.383.2,1.276V-.129A6.656,6.656,0,0,1,4.124-1.641a4.068,4.068,0,0,1,2.16.5A3.168,3.168,0,0,1,7.545.087a4.04,4.04,0,0,1,.4,1.729L7.869,4.085V7.469a1.612,1.612,0,0,0,.109.827c.036.072.145.145.215.217a2.1,2.1,0,0,0,.469.072l.648.071.109.109v.467l-.109.109c-.54-.036-1.081-.072-1.548-.072s-1.009.036-1.657.072L5.926,9.2,5.96,7.36,3.476,9.3a3.522,3.522,0,0,1-1.367.252A3.262,3.262,0,0,1,.561,9.2,2.54,2.54,0,0,1-.448,8.262a2.86,2.86,0,0,1-.36-1.441A3.2,3.2,0,0,1,.237,4.228c.683-.612,2.591-1.152,5.689-1.584A3.135,3.135,0,0,0,5.169.268,2.861,2.861,0,0,0,3.152-.417a4.365,4.365,0,0,0-1.188.179,2.031,2.031,0,0,0-.612.324C1.316.159,1.1.628.74,1.492M6,3.291a10.809,10.809,0,0,0-3.96,1.153,2.212,2.212,0,0,0-.793,1.908A1.551,1.551,0,0,0,3.009,8.117,4,4,0,0,0,6,6.353Z" transform="translate(412.551 8921.695)" fill="#fff"/>
    <path id="Trazado_431" data-name="Trazado 431" d="M3.031,1.044A2.9,2.9,0,0,0,2.239.217a1.552,1.552,0,0,0-.866-.288A1.115,1.115,0,0,0,.51.287a1.18,1.18,0,0,0-.36.829,3.284,3.284,0,0,0,.972,1.8c.145.179.288.324.36.433a5.58,5.58,0,0,1,.9,1.367A2.925,2.925,0,0,1,2.67,5.94a3.293,3.293,0,0,1-1.3,2.522A4.524,4.524,0,0,1-1.614,9.578a2.242,2.242,0,0,1-1.26-.288.843.843,0,0,1-.469-.757,1.067,1.067,0,0,1,.252-.576,4.416,4.416,0,0,1,.721-.684,3,3,0,0,0,.936.972A1.9,1.9,0,0,0-.354,8.57a1.412,1.412,0,0,0,.972-.36,1.012,1.012,0,0,0,.36-.864A1.639,1.639,0,0,0,.8,6.625,8.19,8.19,0,0,0-.029,5.51l-.036-.072A5.333,5.333,0,0,1-1.578,2.413,3.135,3.135,0,0,1-.317-.071,4.387,4.387,0,0,1,2.562-1.152a2.2,2.2,0,0,1,1.153.288.808.808,0,0,1,.431.684,1.114,1.114,0,0,1-.322.648,1.908,1.908,0,0,1-.793.576" transform="translate(425.311 8921.495)" fill="#fff"/>
    <path id="Trazado_432" data-name="Trazado 432" d="M4.062.894A7.162,7.162,0,0,0,2.981.425a3.693,3.693,0,0,0-.9-.179A1.833,1.833,0,0,0,.5,1.181,17.016,17.016,0,0,0-.763,5.5c-.395,2.053-.755,3.962-1.009,5.725-.179,1.117-.322,2.233-.395,3.386a1.513,1.513,0,0,0,.072.395.182.182,0,0,0,.179.145.693.693,0,0,0,.36-.109,3.555,3.555,0,0,0,.648-.612l.36.36A15.811,15.811,0,0,1-2.418,16.7a2.438,2.438,0,0,1-1.333.684.772.772,0,0,1-.541-.252,1.14,1.14,0,0,1-.179-.757,20.164,20.164,0,0,1,.179-2.053q.163-1.4.541-3.348c.324-1.908.612-3.384.9-4.465a16.759,16.759,0,0,1,.864-2.7A9.107,9.107,0,0,1,.426.39,4.577,4.577,0,0,1,3.341-.979a1.2,1.2,0,0,1,.829.252.757.757,0,0,1,.288.684A1.62,1.62,0,0,1,4.35.533c-.072.072-.179.252-.288.36" transform="translate(434.938 8913.76)" fill="#fff"/>
    <path id="Trazado_433" data-name="Trazado 433" d="M.017,0h9.47V1.729H8.911A6.836,6.836,0,0,0,7.436,1.8a1.224,1.224,0,0,0-.614.4,1.01,1.01,0,0,0-.215.648,5.634,5.634,0,0,0,.469,1.693l4.753,11.845L16.437,4.538a5.4,5.4,0,0,0,.433-1.657.962.962,0,0,0-.433-.827,2.648,2.648,0,0,0-1.512-.29H13.916V0h8.21V1.729a3.889,3.889,0,0,0-1.439.252,2.2,2.2,0,0,0-.866.648A9.384,9.384,0,0,0,18.848,4.5L12.187,19.985H9.666L3.041,4.141a6.193,6.193,0,0,0-.9-1.584,2.362,2.362,0,0,0-.864-.612,3.056,3.056,0,0,0-1.3-.215Z" transform="translate(447.264 8835.869)" fill="#fff"/>
    <path id="Trazado_434" data-name="Trazado 434" d="M0,0V5.617H9.182V67.694H0v5.617H15.159V0Z" transform="translate(424.201 8835.653)" fill="#fff"/>
    <path id="Trazado_435" data-name="Trazado 435" d="M0,0V73.311H15.159V67.694H5.977V5.617h9.182V0Z" transform="translate(325.073 8835.653)" fill="#fff"/>
    <path id="Trazado_436" data-name="Trazado 436" d="M37.7,2.808A39.276,39.276,0,0,0,32.733,1.4,20.019,20.019,0,0,0,28.34.935a8.5,8.5,0,0,0-7.131,3.312q-2.537,3.3-5.977,17.176c1.621.072,3.1.145,4.393.215,1.3.036,2.305.072,2.989.072a39.2,39.2,0,0,0,5.041-.215,8.583,8.583,0,0,0,2.484-.721l.648.757a16.261,16.261,0,0,1-5.87,2.627,43.27,43.27,0,0,1-9.216.757H14.584c-.143.54-.324,1.405-.576,2.52q-5.4,27.22-12.854,35.107a36.837,36.837,0,0,1-14.187,9,53.344,53.344,0,0,1-18.688,3.277,19.54,19.54,0,0,1-7.2-1.081c-1.765-.719-2.665-1.691-2.665-2.881a3.334,3.334,0,0,1,.54-1.836,6.65,6.65,0,0,1,1.584-1.584,22.6,22.6,0,0,0,6.949,2.917A36.551,36.551,0,0,0-23.656,71.4a26.066,26.066,0,0,0,11.018-2.233,17.691,17.691,0,0,0,7.455-6.337Q-1.239,56.675,4.178,30.5l.288-1.548.866-4.356a43.066,43.066,0,0,0-4.826.252,27.268,27.268,0,0,0-4.141.829l-.54-.648a24.246,24.246,0,0,1,5.22-2.808,18.1,18.1,0,0,1,5.186-1.009A30.607,30.607,0,0,1,16.853,3.78Q25.169-3.081,34.1-3.1a8.3,8.3,0,0,1,3.889.755A2.291,2.291,0,0,1,39.394-.289a3.354,3.354,0,0,1-.433,1.657A4.808,4.808,0,0,1,37.7,2.808" transform="translate(383.151 8837.238)" fill="#fff"/>
  </g>
</svg>
