<svg xmlns="http://www.w3.org/2000/svg" width="102.946" height="152.922" viewBox="0 0 102.946 152.922">
  <g id="Grupo_773" data-name="Grupo 773" transform="translate(-1040.105 -8806.309)">
    <path id="Trazado_439" data-name="Trazado 439" d="M2.033,1.861A6.432,6.432,0,0,1-2.242.193l0-.046,4.263-2.2L6.786.181l0,.046A8.655,8.655,0,0,1,2.033,1.861" transform="translate(1089.636 8887.731)" fill="#fff"/>
    <path id="Trazado_440" data-name="Trazado 440" d="M5.427,34.787c-.031,0-.08,0-.147-.13-.255-.5-.519-1-.78-1.5-.385-.736-.782-1.495-1.157-2.252a2.491,2.491,0,0,1-.223-.946c.034-1.491.088-2.877.13-3.916l0-.057L1.629,23.075c-1.293-2.116-3.59-5.836-4.669-7.5a3.372,3.372,0,0,1-.427-1.192,4.047,4.047,0,0,0-.444-1.272.927.927,0,0,1-.071-.519c.1-.858.8-4.816,1.226-7.18.179-1.012.3-1.682.315-1.788a1.974,1.974,0,0,0-.7-1.453,3.658,3.658,0,0,1-.419-.54c-.126-.217-.25-.435-.374-.652C-4.205.5-4.478.017-4.762-.452a.668.668,0,0,1-.051-.591c.051-.126.092-.259.133-.391a3.147,3.147,0,0,1,.179-.49,1.768,1.768,0,0,0,.025-1.55q-.761-1.793-1.51-3.588L-3.86-31.484-4.939-35.4l.358-2.972L3.373-26.119,3.228-15.041l1.586.829,2.133-1.619,2.357.745,2.162,3.994c.006.5.013,1,.029,1.495a2.937,2.937,0,0,0,.774,1.933c.643.736,1.255,1.531,1.847,2.3.21.273.421.547.633.818a.539.539,0,0,0,.4.265A.456.456,0,0,0,15.5-4.5a56.466,56.466,0,0,1,5.968-5.6.89.89,0,0,1,.257-.179c-.006,0,.036.046.135.242.459.928.919,1.9,1.4,2.978a1.408,1.408,0,0,1,.114.976A51.919,51.919,0,0,1,21.188-.471a.435.435,0,0,1-.236.212,1.908,1.908,0,0,1-.238.04,2.11,2.11,0,0,0-1.651.848c-.583.906-.829,1.251-1.113,1.649-.3.419-.641.9-1.441,2.107-.036.055-.067.1-.093.149A.836.836,0,0,1,16.3,4.7a1.278,1.278,0,0,1-.246-.055,2,2,0,0,1-.576-.273,4.646,4.646,0,0,0-.547-.309.639.639,0,0,1-.069-.04.787.787,0,0,0-.4-.132.6.6,0,0,0-.366.132.558.558,0,0,0-.118.74.674.674,0,0,1,.031.065,14.278,14.278,0,0,0,1.523,1.949,17.3,17.3,0,0,1,2,2.606,30.933,30.933,0,0,1,.069,3.247c-.015,1.018-.032,2.173.04,3.645l.006.1.08.055c.33.233,1.985,1.914,2.873,2.818.41.418.61.62.66.663a1.777,1.777,0,0,1,.591,1.275c.109,1.314.294,3.428.444,5.165.132,1.506.244,2.806.248,2.9.032.879-1.3,3.464-1.762,4.255-.255.437-.368.515-.561.515,0,0-.036,0-.057,0a1.721,1.721,0,0,1-.446-.071c-.831-.217-4.494-1.6-4.734-1.756-.05-.034-.063-.063-.063-.069s.008-.031.05-.067a1.572,1.572,0,0,0,.473-1.388,3.54,3.54,0,0,1,.044-.829c.011-.086.023-.17.032-.254a.39.39,0,0,1,.051-.151.905.905,0,0,1,.679-.3h.05a.844.844,0,0,1,.5.137c.368.254.745.538,1.155.866a.749.749,0,0,0,.343.17l.032.006.032-.006A.55.55,0,0,0,18.748,30c.1-.168.183-.339.271-.511l.166-.32,1.016-1.9a1.744,1.744,0,0,0-.143-1.968c-.263-.378-.879-1.07-1.422-1.683-.2-.229-.395-.446-.557-.631a.906.906,0,0,0-.69-.318.958.958,0,0,0-.265.038,9.79,9.79,0,0,0-2.212,1.167c-.391.246-.8.5-1.209.736a2.049,2.049,0,0,1-.969.345,2.048,2.048,0,0,1-.749-.21l-.111-.044c-1.308-.522-2.612-1.012-3.825-1.466L7.972,23.2a1.453,1.453,0,0,0-.559-.141.851.851,0,0,0-.726.421c-.458.677-.867,1.4-1.266,2.1l-.259.456a1.61,1.61,0,0,0,.118,1.626c.225.416.477.82.721,1.211.124.2.248.395.368.595.076.128.149.255.223.385.092.164.185.328.284.486a.538.538,0,0,0,.454.3.668.668,0,0,0,.431-.194c.385-.339.8-.7,1.234-1.018a.588.588,0,0,1,.36-.118.811.811,0,0,1,.77.656l.027.137a2.556,2.556,0,0,1,.069.6,1.638,1.638,0,0,0,.479,1.443.583.583,0,0,1-.032.193c-.593.643-3.907,2-5.081,2.41a.5.5,0,0,1-.158.036M12.37,6.911c-.3,0-.524.227-.595.593-.076.4-.046,13,.01,14.764.008.271.027.835.488.835a1.283,1.283,0,0,0,.551-.181c.885-.454,1.664-.824,2.385-1.132a1.12,1.12,0,0,0,.833-1.216c.01-.4-.418-7.01-.631-9.91a1.442,1.442,0,0,0-.275-.717c-.469-.623-2.1-2.7-2.341-2.877a.718.718,0,0,0-.425-.158M-.076-1.743a.422.422,0,0,0-.235.065c-.158.1-.324.276-.284.744C-.535-.245.441,4.421.729,5.384a1.612,1.612,0,0,0,1.056,1.06C2.857,6.817,4.9,7.559,6.256,8.051c.723.263,1.258.456,1.367.494l.273.072a1.416,1.416,0,0,0,.37.048A1.394,1.394,0,0,0,8.679,8.6a1.1,1.1,0,0,0,.658-.555c.332-.625,1.06-2.042,1.575-3.073a1.455,1.455,0,0,0,.114-.6.514.514,0,0,0-.254-.412.4.4,0,0,0-.217-.057.759.759,0,0,0-.366.1,17.881,17.881,0,0,1-1.939.9.725.725,0,0,1-.208.063c-.011,0-.025,0-.051-.046-.48-.845-.9-1.516-1.31-2.166S5.846,1.429,5.364.579a1.17,1.17,0,0,0-1.009-.7c-.036,0-.074,0-.112,0-.3.031-.93.044-1.542.059C2.06-.042,1.453-.027,1.228,0h0C1.11,0,.834-.233.578-1.12a1.182,1.182,0,0,0-.322-.509.506.506,0,0,0-.332-.114" transform="translate(1078.904 8851.404)" fill="#fff"/>
    <path id="Trazado_441" data-name="Trazado 441" d="M4.861,31.466c-.456-.606-.871-1.2-1.34-1.908a38.626,38.626,0,0,1-5.2-11.981,37.861,37.861,0,0,1-.644-4.852L-5.362-32.488,6.072-34.709l-.2,2.107-9.2,1.859L-.42,12.578A35.9,35.9,0,0,0,.186,17.15a35.091,35.091,0,0,0,2.223,7.127l1.157,2.179a3.7,3.7,0,0,1,.332.887Z" transform="translate(1064.852 8860.622)" fill="#fff"/>
    <path id="Trazado_442" data-name="Trazado 442" d="M1.033,29.505a3.653,3.653,0,0,1,.332-.887l1.152-2.166a35.169,35.169,0,0,0,2.227-7.14,35.52,35.52,0,0,0,.606-4.572L8.265-28.58l-9.2-1.857-.2-2.109,11.432,2.223L7.253,14.887a38.294,38.294,0,0,1-.644,4.852A38.6,38.6,0,0,1,1.417,31.711c-.473.717-.89,1.312-1.346,1.918Z" transform="translate(1113.848 8858.459)" fill="#fff"/>
    <path id="Trazado_443" data-name="Trazado 443" d="M2.656.143,3.674,3.28h3.3a.438.438,0,0,1,.257.791L4.56,6.008,5.58,9.144a.437.437,0,0,1-.671.49L2.24,7.7-.427,9.634a.438.438,0,0,1-.673-.49L-.08,6.008-2.749,4.071a.438.438,0,0,1,.257-.791h3.3L1.825.143a.437.437,0,0,1,.831,0" transform="translate(1088.471 8808.604)" fill="#fff"/>
    <path id="Trazado_444" data-name="Trazado 444" d="M.233,1.35l3.274.4L4.9-1.237a.436.436,0,0,1,.824.1L6.355,2.1l3.272.4a.437.437,0,0,1,.16.816L6.9,4.917l.629,3.237a.437.437,0,0,1-.726.4L4.393,6.309l-2.885,1.6A.438.438,0,0,1,.9,7.341L2.294,4.353-.117,2.1A.437.437,0,0,1,.233,1.35" transform="translate(1115.94 8814.55)" fill="#fff"/>
    <path id="Trazado_445" data-name="Trazado 445" d="M4.817,1.708,2.4,3.958,3.8,6.946a.438.438,0,0,1-.608.568L.306,5.914l-2.412,2.25a.437.437,0,0,1-.726-.4L-2.2,4.522l-2.885-1.6a.437.437,0,0,1,.16-.816l3.272-.4.629-3.237a.437.437,0,0,1,.826-.1L1.192,1.358l3.274-.4a.437.437,0,0,1,.351.753" transform="translate(1062.637 8814.945)" fill="#fff"/>
    <path id="Trazado_446" data-name="Trazado 446" d="M1.776,3.525a2.236,2.236,0,0,1-1.59.57H-1.822a.132.132,0,0,1-.1-.04.132.132,0,0,1-.04-.1V-3.751a.132.132,0,0,1,.04-.1.132.132,0,0,1,.1-.04h1.8a2.469,2.469,0,0,1,1.7.547,2.03,2.03,0,0,1,.616,1.6A1.8,1.8,0,0,1,1.463-.067Q1.406-.033,1.44,0a1.975,1.975,0,0,1,.694.765,2.414,2.414,0,0,1,.252,1.14,2.107,2.107,0,0,1-.61,1.619M-.636-2.691V-.569a.051.051,0,0,0,.057.057H0A.944.944,0,0,0,.733-.8a1.155,1.155,0,0,0,.261-.808A1.241,1.241,0,0,0,.733-2.45a.925.925,0,0,0-.73-.3H-.579a.051.051,0,0,0-.057.057M.8,2.623a1.387,1.387,0,0,0,.261-.9A1.481,1.481,0,0,0,.8.795.863.863,0,0,0,.083.457H-.579A.051.051,0,0,0-.636.514V2.886a.051.051,0,0,0,.057.057H.083A.881.881,0,0,0,.8,2.623" transform="translate(1059.754 8955.044)" fill="#fff"/>
    <path id="Trazado_447" data-name="Trazado 447" d="M.285,3.6a2.115,2.115,0,0,1-.6-1.573V-1.805a2.115,2.115,0,0,1,.6-1.573,2.146,2.146,0,0,1,1.579-.593,2.173,2.173,0,0,1,1.586.593,2.1,2.1,0,0,1,.6,1.573V2.027A2.1,2.1,0,0,1,3.45,3.6a2.173,2.173,0,0,1-1.586.593A2.146,2.146,0,0,1,.285,3.6m2.206-.816a1.006,1.006,0,0,0,.24-.7V-1.862a1.014,1.014,0,0,0-.24-.7.8.8,0,0,0-.627-.267.79.79,0,0,0-.622.267,1.038,1.038,0,0,0-.233.7V2.084a1.03,1.03,0,0,0,.233.7.785.785,0,0,0,.622.269.8.8,0,0,0,.627-.269" transform="translate(1064.951 8955.037)" fill="#fff"/>
    <path id="Trazado_448" data-name="Trazado 448" d="M.005,3.774a.147.147,0,0,1,0-.114l1.561-3.8a.106.106,0,0,0,0-.069L.005-4a.159.159,0,0,1-.011-.069q0-.092.114-.092H1.191a.144.144,0,0,1,.149.114l.911,2.475q.011.034.034.034t.034-.034l.9-2.475a.142.142,0,0,1,.147-.114H4.44q.08,0,.1.046a.147.147,0,0,1,0,.114L2.982-.2a.106.106,0,0,0,0,.069l1.561,3.8a.159.159,0,0,1,.011.069q0,.092-.114.092H3.38a.149.149,0,0,1-.158-.114l-.9-2.463q-.011-.034-.034-.034t-.034.034L1.34,3.705a.151.151,0,0,1-.16.114H.108q-.08,0-.1-.046" transform="translate(1071.417 8955.319)" fill="#fff"/>
    <path id="Trazado_449" data-name="Trazado 449" d="M.019,3.777a.132.132,0,0,1-.04-.1V-4.029a.132.132,0,0,1,.04-.1.132.132,0,0,1,.1-.04H1.165a.132.132,0,0,1,.1.04.132.132,0,0,1,.04.1V3.68a.137.137,0,0,1-.137.137H.116a.132.132,0,0,1-.1-.04" transform="translate(1078.661 8955.322)" fill="#fff"/>
    <path id="Trazado_450" data-name="Trazado 450" d="M1.558.019a.132.132,0,0,1,.1-.04H2.693a.132.132,0,0,1,.1.04.132.132,0,0,1,.04.1V7.825a.137.137,0,0,1-.137.137H1.5a.144.144,0,0,1-.149-.114l-1.7-4.835q-.011-.034-.04-.029a.035.035,0,0,0-.029.04l.011,4.8a.132.132,0,0,1-.04.1.132.132,0,0,1-.1.04H-1.584a.132.132,0,0,1-.1-.04.131.131,0,0,1-.038-.1V.116a.131.131,0,0,1,.038-.1.132.132,0,0,1,.1-.04H-.409A.144.144,0,0,1-.26.093l1.71,4.8q.011.034.04.029a.035.035,0,0,0,.029-.04V.116a.132.132,0,0,1,.04-.1" transform="translate(1084.625 8951.178)" fill="#fff"/>
    <path id="Trazado_451" data-name="Trazado 451" d="M.279,3.614a1.983,1.983,0,0,1-.587-1.5V-1.923a1.983,1.983,0,0,1,.587-1.5,2.152,2.152,0,0,1,1.556-.564A2.2,2.2,0,0,1,3.4-3.422,1.977,1.977,0,0,1,4-1.912v.446a.135.135,0,0,1-.04.1.139.139,0,0,1-.1.038H2.817a.139.139,0,0,1-.1-.038.135.135,0,0,1-.04-.1v-.469A.933.933,0,0,0,2.445-2.6a.8.8,0,0,0-.61-.25.784.784,0,0,0-.6.25A.954.954,0,0,0,1-1.935V2.126a.946.946,0,0,0,.227.66.779.779,0,0,0,.6.252.791.791,0,0,0,.61-.252.925.925,0,0,0,.235-.66V1.03A.051.051,0,0,0,2.622.973h-.7a.139.139,0,0,1-.1-.038.132.132,0,0,1-.04-.1V0a.132.132,0,0,1,.04-.1.132.132,0,0,1,.1-.04H3.865a.132.132,0,0,1,.1.04A.132.132,0,0,1,4,0V2.115a1.963,1.963,0,0,1-.6,1.5,2.2,2.2,0,0,1-1.569.564A2.152,2.152,0,0,1,.279,3.614" transform="translate(1090.567 8955.052)" fill="#fff"/>
    <path id="Trazado_452" data-name="Trazado 452" d="M.279,3.6A2.1,2.1,0,0,1-.308,2.047V-1.842A2.073,2.073,0,0,1,.279-3.4a2.119,2.119,0,0,1,1.556-.576A2.162,2.162,0,0,1,3.41-3.4,2.069,2.069,0,0,1,4-1.842v.137a.152.152,0,0,1-.04.1.125.125,0,0,1-.1.046l-1.06.046a.121.121,0,0,1-.137-.137v-.286a.93.93,0,0,0-.229-.65.778.778,0,0,0-.6-.25.77.77,0,0,0-.593.25.929.929,0,0,0-.227.65V2.148a.923.923,0,0,0,.227.65.765.765,0,0,0,.593.252.773.773,0,0,0,.6-.252.924.924,0,0,0,.229-.65V1.864a.137.137,0,0,1,.137-.137l1.06.046A.137.137,0,0,1,4,1.91v.137A2.092,2.092,0,0,1,3.41,3.6a2.146,2.146,0,0,1-1.575.587A2.1,2.1,0,0,1,.279,3.6" transform="translate(1101.537 8955.04)" fill="#fff"/>
    <path id="Trazado_453" data-name="Trazado 453" d="M.019,3.777a.132.132,0,0,1-.04-.1V-4.029a.132.132,0,0,1,.04-.1.132.132,0,0,1,.1-.04H1.165a.132.132,0,0,1,.1.04.132.132,0,0,1,.04.1V2.619a.051.051,0,0,0,.057.057H3.823a.137.137,0,0,1,.135.137V3.68a.137.137,0,0,1-.135.137H.116a.132.132,0,0,1-.1-.04" transform="translate(1108.308 8955.322)" fill="#fff"/>
    <path id="Trazado_454" data-name="Trazado 454" d="M.279,3.538a2.358,2.358,0,0,1-.587-1.67V-3.766a.132.132,0,0,1,.04-.1.132.132,0,0,1,.1-.04H.878a.132.132,0,0,1,.1.04.132.132,0,0,1,.04.1V2a1.155,1.155,0,0,0,.227.742.737.737,0,0,0,.6.286.732.732,0,0,0,.6-.286A1.145,1.145,0,0,0,2.68,2V-3.766a.132.132,0,0,1,.04-.1.132.132,0,0,1,.1-.04H3.865a.132.132,0,0,1,.1.04.132.132,0,0,1,.04.1V1.868a2.345,2.345,0,0,1-.593,1.67,2.047,2.047,0,0,1-1.563.633A2.036,2.036,0,0,1,.279,3.538" transform="translate(1114.992 8955.06)" fill="#fff"/>
    <path id="Trazado_455" data-name="Trazado 455" d="M1.776,3.525a2.239,2.239,0,0,1-1.59.57H-1.822a.132.132,0,0,1-.1-.04.132.132,0,0,1-.04-.1V-3.751a.132.132,0,0,1,.04-.1.132.132,0,0,1,.1-.04h1.8a2.469,2.469,0,0,1,1.7.547,2.03,2.03,0,0,1,.616,1.6A1.8,1.8,0,0,1,1.463-.067c-.04.023-.046.046-.023.069a1.975,1.975,0,0,1,.694.765,2.414,2.414,0,0,1,.252,1.14,2.107,2.107,0,0,1-.61,1.619M-.636-2.691V-.569a.051.051,0,0,0,.057.057H0A.944.944,0,0,0,.733-.8a1.155,1.155,0,0,0,.261-.808A1.241,1.241,0,0,0,.733-2.45a.925.925,0,0,0-.73-.3H-.579a.051.051,0,0,0-.057.057M.8,2.623a1.387,1.387,0,0,0,.261-.9A1.481,1.481,0,0,0,.8.795.863.863,0,0,0,.083.457H-.579A.051.051,0,0,0-.636.514V2.886a.051.051,0,0,0,.057.057H.083A.881.881,0,0,0,.8,2.623" transform="translate(1123.746 8955.044)" fill="#fff"/>
    <path id="Trazado_456" data-name="Trazado 456" d="M2.13,12.784A8.412,8.412,0,0,1,.5,12.706a4.181,4.181,0,0,1-1.424-.473A2.762,2.762,0,0,1-1.96,11.217a3.165,3.165,0,0,1-.389-1.638l.011-20.844a1.179,1.179,0,0,1,.1-.5c.042-.093.086-.193.13-.3A3.379,3.379,0,0,1-.219-13.7a7.166,7.166,0,0,1,2.364-.4c.254,0,.538.011.847.034a3.7,3.7,0,0,1,.921.183,5.3,5.3,0,0,1,1.849,1.169A2.716,2.716,0,0,1,6.625-10.7L6.614,9.225a2.757,2.757,0,0,1-.437,1.521,3.739,3.739,0,0,1-1.091,1.091,5.611,5.611,0,0,1-1.418.671,6.053,6.053,0,0,1-1.539.276m-.021-24.3c-.927,0-1.054.412-1.054.85L1.043,9.4c0,.439.128.839,1.054.8A1.639,1.639,0,0,0,3,9.945c.063-.044.255-.183.255-.633L3.266-10.68c0-.448-.193-.58-.255-.623a1.593,1.593,0,0,0-.9-.214" transform="translate(1059.762 8933.081)" fill="#fff"/>
    <path id="Trazado_457" data-name="Trazado 457" d="M2.131,12.582a8.515,8.515,0,0,1-1.63-.1,4.334,4.334,0,0,1-1.424-.486A2.82,2.82,0,0,1-1.96,10.975,3.1,3.1,0,0,1-2.351,9.36L-2.34-11.1a1.138,1.138,0,0,1,.1-.494c.044-.092.086-.189.13-.292A3.366,3.366,0,0,1-.2-13.49a7.306,7.306,0,0,1,2.345-.389c.255,0,.54.011.847.032a3.719,3.719,0,0,1,.923.179,5.258,5.258,0,0,1,1.853,1.174,2.676,2.676,0,0,1,.858,1.973q0,3.646,0,7.295a.4.4,0,0,1-.406.383q-1.273.011-2.547.025a.389.389,0,0,1-.406-.376q0-3.658,0-7.317c0-.44-.193-.57-.257-.614a1.607,1.607,0,0,0-.9-.212c-.927,0-1.056.4-1.056.833q0,9.869-.01,19.737c0,.433.128.827,1.056.8A1.659,1.659,0,0,0,3,9.8a.662.662,0,0,0,.255-.62q0-3.486,0-6.968c-.307,0-.257.01-.562.013a.385.385,0,0,1-.406-.374c0-.669,0-1.337,0-2.006a.4.4,0,0,1,.4-.387C3.99-.556,4.924-.571,6.215-.586a.388.388,0,0,1,.4.376q0,4.679,0,9.356a2.645,2.645,0,0,1-.437,1.495A3.657,3.657,0,0,1,5.09,11.7a5.608,5.608,0,0,1-1.42.637,6.065,6.065,0,0,1-1.539.246" transform="translate(1071.446 8932.763)" fill="#fff"/>
    <path id="Trazado_458" data-name="Trazado 458" d="M2.876,12.381a.388.388,0,0,1-.406-.374q0-4.893,0-9.788-1.158.006-2.315.013,0,4.9,0,9.8a.4.4,0,0,1-.406.383q-1.258.014-2.517.034a.386.386,0,0,1-.4-.372q0-12.678.008-25.352a.391.391,0,0,1,.4-.378H-.245a.391.391,0,0,1,.4.376q0,6.383,0,12.766,1.158-.006,2.315-.01,0-6.38,0-12.757a.393.393,0,0,1,.406-.378H5.392a.393.393,0,0,1,.406.378q0,12.635,0,25.27a.393.393,0,0,1-.406.377q-1.255.006-2.515.013" transform="translate(1084.332 8932.729)" fill="#fff"/>
    <path id="Trazado_459" data-name="Trazado 459" d="M2.133,12.474A8.766,8.766,0,0,1,.5,12.312,4.525,4.525,0,0,1-.923,11.78,2.938,2.938,0,0,1-1.96,10.743a3.065,3.065,0,0,1-.391-1.6q0-10.078,0-20.158a1.1,1.1,0,0,1,.1-.484c.044-.09.086-.185.13-.286A3.355,3.355,0,0,1-.235-13.375a7.358,7.358,0,0,1,2.364-.385c.254,0,.538.011.845.032a3.79,3.79,0,0,1,.923.179A5.311,5.311,0,0,1,5.748-12.4a2.66,2.66,0,0,1,.864,1.989q0,9.809.006,19.617a2.562,2.562,0,0,1-.437,1.476A3.461,3.461,0,0,1,5.092,11.7a5.365,5.365,0,0,1-1.42.583,6.061,6.061,0,0,1-1.539.189M2.1-11.238c-.928,0-1.054.395-1.054.822q0,9.769,0,19.538c0,.427.128.822,1.056.829A1.616,1.616,0,0,0,3,9.746c.063-.042.255-.17.255-.608q0-9.775,0-19.552c0-.439-.193-.568-.257-.61a1.614,1.614,0,0,0-.9-.214" transform="translate(1095.579 8932.737)" fill="#fff"/>
    <path id="Trazado_460" data-name="Trazado 460" d="M2.137,12.535a8.591,8.591,0,0,1-1.63-.194A4.559,4.559,0,0,1-.919,11.78a3.04,3.04,0,0,1-1.037-1.062A3.151,3.151,0,0,1-2.347,9.1q-.006-11.274-.01-22.549a.393.393,0,0,1,.406-.378H.631a.392.392,0,0,1,.4.379Q1.04-2.154,1.046,9.136c0,.431.128.831,1.056.854A1.584,1.584,0,0,0,3,9.8c.063-.04.257-.166.255-.608q0-11.316-.01-22.635a.394.394,0,0,1,.4-.381l2.549,0a.393.393,0,0,1,.4.381q.006,11.379.013,22.757A2.586,2.586,0,0,1,6.182,10.8a3.369,3.369,0,0,1-1.089,1.009,5.192,5.192,0,0,1-1.418.564,5.952,5.952,0,0,1-1.539.162" transform="translate(1108.018 8932.869)" fill="#fff"/>
    <path id="Trazado_461" data-name="Trazado 461" d="M2.23,12.772a8,8,0,0,1-1.6-.24,5.34,5.34,0,0,1-1.5-.623A3.63,3.63,0,0,1-2,10.814a2.918,2.918,0,0,1-.456-1.636l0-5.809a.382.382,0,0,1,.4-.374q1.293.031,2.581.067a.411.411,0,0,1,.406.4q0,2.92,0,5.84a.64.64,0,0,0,.292.629,2.25,2.25,0,0,0,1.07.265,2.2,2.2,0,0,0,1.054-.164c.069-.034.273-.137.273-.625a20.6,20.6,0,0,0-.153-2.536,15.665,15.665,0,0,0-.465-2.309A21.42,21.42,0,0,0,2.221,2.3C1.91,1.54,1.538.755,1.115-.039.6-1.015.141-1.907-.237-2.692A15.812,15.812,0,0,1-1.16-5.081,15.343,15.343,0,0,1-1.665-7.59a26.044,26.044,0,0,1-.158-3.064,2.885,2.885,0,0,1,.473-1.67,3.432,3.432,0,0,1,1.188-1.07,5.191,5.191,0,0,1,1.571-.541,9.088,9.088,0,0,1,1.622-.153,8.763,8.763,0,0,1,1.624.154,4.784,4.784,0,0,1,1.508.555,3.275,3.275,0,0,1,1.123,1.1,3.166,3.166,0,0,1,.431,1.687q0,2.92,0,5.844a.388.388,0,0,1-.406.381q-1.29-.026-2.581-.048a.405.405,0,0,1-.4-.395q0-2.9,0-5.807a.7.7,0,0,0-.311-.667,1.977,1.977,0,0,0-1.051-.25,1.99,1.99,0,0,0-1.037.225c-.072.044-.29.175-.29.675A18.73,18.73,0,0,0,2.173-6.1,19.33,19.33,0,0,0,3.839-1.817,4.43,4.43,0,0,0,4.19-1.2a5.054,5.054,0,0,1,.4.713A25.45,25.45,0,0,1,5.778,2.036,16.9,16.9,0,0,1,6.526,4.39a18.029,18.029,0,0,1,.4,2.412c.082.816.122,1.741.122,2.749a2.774,2.774,0,0,1-.473,1.659,3.241,3.241,0,0,1-1.188,1.007,4.9,4.9,0,0,1-1.552.475,8.815,8.815,0,0,1-1.605.08" transform="translate(1119.204 8933.294)" fill="#fff"/>
    <path id="Trazado_462" data-name="Trazado 462" d="M3.52,3.58Q1.481,3.514-.556,3.456q0-3.683,0-7.365l-3.323-.04q.006,10.736.01,21.468a.429.429,0,0,0,.406.416q3.5.2,6.991.439A.37.37,0,0,0,3.93,18c0-.692,0-1.382,0-2.074a.433.433,0,0,0-.4-.423Q1.488,15.38-.55,15.267q0-4.484,0-8.97,2.036.071,4.074.153a.386.386,0,0,0,.406-.385V3.992A.419.419,0,0,0,3.52,3.58" transform="translate(1133.116 8928.265)" fill="#fff"/>
    <path id="Trazado_463" data-name="Trazado 463" d="M6.379,0-6.63,0a.4.4,0,0,0-.406.391q0,1.23,0,2.459,6.249.04,12.5.093v0l.16,0a.4.4,0,0,0,.406-.4q.375-1.064.751-2.133A.405.405,0,0,0,6.379,0" transform="translate(1136.266 8919.083)" fill="#fff"/>
    <path id="Trazado_464" data-name="Trazado 464" d="M6.9.849A3.44,3.44,0,0,0,5.772-.222,4.715,4.715,0,0,0,4.266-.781,8.435,8.435,0,0,0,2.674-.937L-7.21-.931a.406.406,0,0,0-.406.406q.377,1.135.751,2.269,4.293-.034,8.585-.063l.953-.006.187,0v.01a1.932,1.932,0,0,1,.814.229A.641.641,0,0,1,4,2.56q0,10.1-.008,20.2a.665.665,0,0,1-.313.635,2.063,2.063,0,0,1-1.014.3l-.953.055q.006-9.829.008-19.657Q.057,4.112-1.6,4.131q0,11.045-.006,22.086a.369.369,0,0,0,.4.37q1.933-.132,3.868-.252a7.74,7.74,0,0,0,1.6-.273,5.308,5.308,0,0,0,1.5-.662,3.765,3.765,0,0,0,1.132-1.136,3.057,3.057,0,0,0,.454-1.676L7.358,2.533A3,3,0,0,0,6.9.849" transform="translate(1047.721 8920.051)" fill="#fff"/>
    <path id="Trazado_465" data-name="Trazado 465" d="M.187.628A2.338,2.338,0,0,1,.5,1.856c0,.055,0,.12,0,.191L5.2,1.425l4.456.469c0-.111,0-.227.006-.337A1.93,1.93,0,0,1,10.042.531L10.21.276c.065-.1.145-.225.236-.364L5.2-.693-.206.051c.132.187.265.377.393.578" transform="translate(1085.828 8823.92)" fill="#fff"/>
    <path id="Trazado_466" data-name="Trazado 466" d="M2.312,1.267A.72.72,0,0,0,1.944.6L-1.531-1.314A.68.68,0,0,0-1.857-1.4a.692.692,0,0,0-.3.069.712.712,0,0,0-.381.5A.73.73,0,0,0-2.378-.2L-.237,2.3a.68.68,0,0,0,.793.185l1.337-.595a.709.709,0,0,0,.419-.627" transform="translate(1079.865 8897.405)" fill="#fff"/>
    <path id="Trazado_467" data-name="Trazado 467" d="M2.343.936A.693.693,0,0,0,1.9.353L-1.68-.991a.685.685,0,0,0-.231-.042.657.657,0,0,0-.37.114.7.7,0,0,0-.3.538.7.7,0,0,0,.235.576L.031,2.3a.654.654,0,0,0,.789.065l1.2-.759a.7.7,0,0,0,.32-.669" transform="translate(1084.352 8901.994)" fill="#fff"/>
    <path id="Trazado_468" data-name="Trazado 468" d="M2.327,0C2.3,0,2.274,0,2.245,0L-1.913.465a.733.733,0,0,0-.551.364.777.777,0,0,0-.044.686.728.728,0,0,0,.488.433L1.3,2.841a.672.672,0,0,0,.183.025A.724.724,0,0,0,2.1,2.519l.839-1.352A.763.763,0,0,0,2.959.379.721.721,0,0,0,2.327,0" transform="translate(1088.717 8904.314)" fill="#fff"/>
    <path id="Trazado_469" data-name="Trazado 469" d="M1.894,1.6a.679.679,0,0,0-.189-.7L-1.011-1.6a.625.625,0,0,0-.429-.17.587.587,0,0,0-.13.013.646.646,0,0,0-.452.358.687.687,0,0,0,.008.61L-.62,1.95a.645.645,0,0,0,.572.357A.5.5,0,0,0,.058,2.3l1.325-.229A.656.656,0,0,0,1.894,1.6" transform="translate(1076.712 8892.202)" fill="#fff"/>
    <path id="Trazado_470" data-name="Trazado 470" d="M.213,5.842c2.214-2.322,8-7.569,8.776-8.33a.26.26,0,0,0,.078-.2c-.017-.353-.078-2.8-.122-3.5a.25.25,0,0,0-.456-.141L-.179,4.054c-.194.275.162,2.03.393,1.788" transform="translate(1099.578 8820.955)" fill="#fff"/>
    <path id="Trazado_471" data-name="Trazado 471" d="M.127,2.071l1.373.8a.492.492,0,0,0,.255.071.515.515,0,0,0,.4-.2.546.546,0,0,0,.107-.459L1.383-1.862a.546.546,0,0,0-.173-.3.5.5,0,0,0-.334-.128.527.527,0,0,0-.519.459L-.134,1.521a.546.546,0,0,0,.261.551" transform="translate(1072.966 8880.505)" fill="#fff"/>
    <path id="Trazado_472" data-name="Trazado 472" d="M1.6,1.907a.509.509,0,0,0,.446-.332A.535.535,0,0,0,1.94,1L-.891-1.948a.516.516,0,0,0-.3-.153.438.438,0,0,0-.071,0,.505.505,0,0,0-.421.231.54.54,0,0,0-.046.513L-.439,1.684A.515.515,0,0,0,.032,2Z" transform="translate(1074.683 8886.609)" fill="#fff"/>
    <path id="Trazado_473" data-name="Trazado 473" d="M.391.052A.5.5,0,0,0,.085-.057.511.511,0,0,0-.291.111.539.539,0,0,0-.43.519L-.1,4.673a.549.549,0,0,0,.132.311.5.5,0,0,0,.379.175.511.511,0,0,0,.494-.381l.9-3.19a.542.542,0,0,0-.183-.574Z" transform="translate(1108.624 8883.938)" fill="#fff"/>
    <path id="Trazado_474" data-name="Trazado 474" d="M22.39,35.347l-.25-3.876A3.521,3.521,0,0,0,18.9,28.024l-1.232.011c-.135-1.144-.292-2.561-.341-3.293.271-.387.652-.881,1-1.333a21.449,21.449,0,0,0,1.775-2.52,3.51,3.51,0,0,0,.362-2.057c-.246-1.823-1.2-8.179-1.481-9.485h0c.486-.8,1.043-1.741,1.581-2.656.353-.595.694-1.176,1-1.691.486-.812.486-.812-1.1-21.2-.385-4.946-.782-10.059-.789-10.633a15.469,15.469,0,0,1,.175-2,12.441,12.441,0,0,0,.067-3.91c-.172-.988-.305-1.9-.444-2.871-.063-.435-.126-.869-.193-1.314a2.384,2.384,0,0,0-2.341-2.069,2.42,2.42,0,0,0-1.735.745,5.81,5.81,0,0,0-.646.816l-.078.111c-.627.9-6.2,7.971-9.19,11.771-2.44,3.1-2.45,3.115-2.524,3.228a2.874,2.874,0,0,0-.557,1.567c-.025,1.173-.036,2.435-.034,3.859,0,.622.008,1.243.011,1.867,0,.257.006.515.008.774a3.441,3.441,0,0,0-.974.3c-.791.372-1.611.734-2.433,1.077l-.071.031a4.4,4.4,0,0,0-1.174.663,3.1,3.1,0,0,0-.734-.421c-.873-.347-1.756-.669-2.61-.98l-.517-.189c-.093-.034-.2-.072-.334-.107,0-.225.008-.456.011-.69.034-2.351.074-5.012.078-5.851a3.262,3.262,0,0,0-.486-1.788c-.255-.391-.519-.744-.774-1.087-.133-.177-.265-.355-.395-.536-.82-1.148-3.621-5.407-5.872-8.827-1.516-2.305-2.715-4.128-3.064-4.629l-.067-.1a5.938,5.938,0,0,0-.7-.879,2.408,2.408,0,0,0-1.71-.723A2.389,2.389,0,0,0-21.972-36.9a20.568,20.568,0,0,1-.452,2.019,22.465,22.465,0,0,0-.553,2.555l-.034.24a11.37,11.37,0,0,0-.158,1.969A14.768,14.768,0,0,0-23-28.5c.036.261.072.522.1.784.017.17.061.421.183,1.123.1.591.313,1.771.358,2.193-.162,1.468-.755,8.694-2.044,24.907-.147,1.859-.244,3.081-.257,3.228l-.006.057V3.85a4.818,4.818,0,0,0,.728,2.927c.494.732,1.06,1.447,1.605,2.139.437.551.85,1.075,1.209,1.582-.084.45-.149.892-.191,1.321a33.2,33.2,0,0,1-.688,3.8A36.18,36.18,0,0,0-22.781,20a3.624,3.624,0,0,0,.471,2.122c.391.65.8,1.283,1.19,1.9.214.332.427.663.637,1-.034.37-.078.858-.126,1.392s-.1,1.148-.156,1.71a3.388,3.388,0,0,0-3.07,1.949l-.124.229-.063.255c-.149.612-.292,1.253-.433,1.956l-.027.137-.16,2.713a32.237,32.237,0,0,0,2.927,15.46A30.033,30.033,0,0,0-8.241,64.933l.053.027c1.523.719,5.26,2.389,7.062,2.389s5.539-1.67,7.062-2.389l.053-.027a29.051,29.051,0,0,0,7.152-5.15,30.561,30.561,0,0,0,6.324-8.965A32.26,32.26,0,0,0,22.39,35.347m-4.757,14.62h0a28.6,28.6,0,0,1-5.9,8.372,27.021,27.021,0,0,1-6.654,4.8s-4.656,2.2-6.2,2.2-6.2-2.2-6.2-2.2a27.9,27.9,0,0,1-12.56-13.167,30.165,30.165,0,0,1-2.74-14.49l.151-2.572c.124-.614.259-1.237.416-1.874.158-.292.315-.9,1.685-.9a2.171,2.171,0,0,1,.475-.057l.967,0c0-.013,0-.032.006-.046.135-1.146.4-4.339.494-5.241a1.1,1.1,0,0,0-.2-.614c-.644-1.035-1.321-2.042-1.949-3.089a1.588,1.588,0,0,1-.191-.9c.254-2.724,1.188-5.447,1.459-8.168a13.679,13.679,0,0,1,.21-1.363,1.33,1.33,0,0,0-.227-1.108c-.883-1.287-2.067-2.606-2.94-3.9a2.892,2.892,0,0,1-.385-1.739c.063-.723,2.137-27.128,2.313-28.223.05-.309-.524-3.287-.557-3.6-.074-.757-.231-1.51-.255-2.269a11.468,11.468,0,0,1,.173-1.868c.212-1.52.778-3.037,1-4.555a.355.355,0,0,1,.629-.233,5.056,5.056,0,0,1,.538.7c.852,1.228,7.565,11.537,8.949,13.477.372.52.772,1.016,1.123,1.554a1.31,1.31,0,0,1,.156.677c-.006,1.3-.1,7.239-.122,8.911,0,.1.01.208.019.4a4.476,4.476,0,0,0,.814-.6.676.676,0,0,1,.86-.16c1.026.376,2.057.745,3.075,1.15a1.144,1.144,0,0,1,.543.477c.267.49.475,1.018.7,1.533.074.166.143.334.244.57a1.778,1.778,0,0,0,.227-.288c.235-.547.484-1.091.683-1.655s.648-.732,1.1-.923q1.264-.529,2.513-1.113a.955.955,0,0,1,1.295.292,7.371,7.371,0,0,0,.6.566l.1-.04a11.663,11.663,0,0,0,.143-1.253c.008-1.445-.021-2.89-.023-4.336,0-1.27.006-2.541.032-3.813a1.023,1.023,0,0,1,.214-.482c.135-.2,10.747-13.617,11.693-14.967a5.638,5.638,0,0,1,.513-.673.354.354,0,0,1,.635.214c.214,1.411.387,2.757.646,4.231.334,1.908-.273,3.581-.273,5.56,0,1.474,2.425,30.366,2.172,30.791-.787,1.316-1.806,3.071-2.6,4.379a1.787,1.787,0,0,0-.223,1.426c.255,1.2,1.2,7.428,1.457,9.335a1.485,1.485,0,0,1-.139.829c-.58,1.081-2.395,3.144-3.009,4.2a57.786,57.786,0,0,0,.58,5.933h.78l2.248-.023c.658,0,1.161.85,1.2,1.548l.252,3.886a30.166,30.166,0,0,1-2.742,14.49" transform="translate(1093.035 8845.299)" fill="#fff"/>
    <path id="Trazado_475" data-name="Trazado 475" d="M2.086.309a.769.769,0,0,0-.759-.65.74.74,0,0,0-.58.282l-2.867,3.5a.822.822,0,0,0-.164.686.769.769,0,0,0,.749.623.763.763,0,0,0,.374-.1L2.006,2.82a.8.8,0,0,0,.379-.839Z" transform="translate(1095.024 8902.807)" fill="#fff"/>
    <path id="Trazado_476" data-name="Trazado 476" d="M.728.093a.508.508,0,0,0-.4-.2A.53.53,0,0,0-.195.362L-.8,4.6a.558.558,0,0,0,.061.341.515.515,0,0,0,.459.28.519.519,0,0,0,.458-.276L1.8,1.971a.556.556,0,0,0-.053-.612Z" transform="translate(1107.278 8889.657)" fill="#fff"/>
    <path id="Trazado_477" data-name="Trazado 477" d="M.993.3-.4-.291a.484.484,0,0,0-.193-.04A.5.5,0,0,0-1-.119a.525.525,0,0,0-.071.48l1.3,3.83a.526.526,0,0,0,.2.263A.5.5,0,0,0,.7,4.54a.511.511,0,0,0,.505-.505L1.3.8A.521.521,0,0,0,.993.3" transform="translate(1109.607 8878.308)" fill="#fff"/>
    <path id="Trazado_478" data-name="Trazado 478" d="M1.222.145a.558.558,0,0,0-.5-.305A.563.563,0,0,0,.188.235l-1.5,4.438a.616.616,0,0,0,0,.376.57.57,0,0,0,.541.406.557.557,0,0,0,.431-.206L2,2.4a.6.6,0,0,0,.065-.663Z" transform="translate(1104.252 8894.893)" fill="#fff"/>
    <path id="Trazado_479" data-name="Trazado 479" d="M1.507.214a.642.642,0,0,0-.612-.45A.634.634,0,0,0,.347.08l-1.914,3.2a.7.7,0,0,0-.053.593.646.646,0,0,0,.6.429.625.625,0,0,0,.395-.141L1.732,2.277a.682.682,0,0,0,.215-.745Z" transform="translate(1099.947 8899.677)" fill="#fff"/>
  </g>
</svg>
