<?xml version="1.0" standalone="no"?>
<!DOCTYPE svg PUBLIC "-//W3C//DTD SVG 1.1//EN" "http://www.w3.org/Graphics/SVG/1.1/DTD/svg11.dtd" >
<svg xmlns="http://www.w3.org/2000/svg" xmlns:xlink="http://www.w3.org/1999/xlink" version="1.1">
<metadata>
Created by FontForge 20201107 at Sat Mar 15 18:53:25 2025
 By 
Copyright (c) 2020 by Massimiliano Vitti, Due Studio. All rights reserved.
</metadata>
<defs>
<font id="LayGrotesk-Trial-Black" horiz-adv-x="530" >
  <font-face 
    font-family="Lay Grotesk - Trial Black"
    font-weight="400"
    font-stretch="normal"
    units-per-em="2048"
    panose-1="0 0 5 0 0 0 0 0 0 0"
    ascent="1638"
    descent="-410"
    x-height="1044"
    cap-height="1454"
    bbox="-90 -399 2226 1485"
    underline-thickness="102"
    underline-position="-204"
    unicode-range="U+000D-00A0"
  />
<missing-glyph horiz-adv-x="1191" 
d="M1118 717l-393 393v-102l393 -394v-245l-393 393v-103l393 -393v-246l-393 394v-414h-258v414l-393 -394v246l393 393v103l-393 -393v245l393 394v102l-393 -393v246l522 522l522 -522v-246z" />
    <glyph glyph-name=".notdef" horiz-adv-x="1191" 
d="M1118 717l-393 393v-102l393 -394v-245l-393 393v-103l393 -393v-246l-393 394v-414h-258v414l-393 -394v246l393 393v103l-393 -393v245l393 394v102l-393 -393v246l522 522l522 -522v-246z" />
    <glyph glyph-name=".null" horiz-adv-x="0" 
 />
    <glyph glyph-name="nonmarkingreturn" horiz-adv-x="682" 
 />
    <glyph glyph-name="CR" unicode="&#xd;" horiz-adv-x="348" 
 />
    <glyph glyph-name="space" unicode=" " horiz-adv-x="348" 
 />
    <glyph glyph-name="exclam" unicode="!" horiz-adv-x="565" 
d="M76 1044v410h413v-410l-114 -522h-185zM489 410v-410h-413v410h413z" />
    <glyph glyph-name="comma" unicode="," horiz-adv-x="557" 
d="M72 410h413v-410q0 -162 -102.5 -247.5t-310.5 -100.5v194q53 4 83 9.5t61.5 20.5t45.5 45.5t14 78.5h-204v410z" />
    <glyph glyph-name="period" unicode="." horiz-adv-x="557" 
d="M485 410v-410h-413v410h413z" />
    <glyph glyph-name="zero" unicode="0" horiz-adv-x="1396" 
d="M698 -25q-156 0 -280 57t-203.5 158.5t-121.5 238t-42 298.5t42 298.5t121.5 238t203.5 158.5t280 57q207 0 355.5 -99.5t220.5 -267.5t72 -385t-72 -385t-220.5 -267.5t-355.5 -99.5zM698 293q119 0 178.5 116t59.5 318t-59.5 318t-178.5 116t-178 -115.5t-59 -318.5
t59 -318.5t178 -115.5z" />
    <glyph glyph-name="one" unicode="1" horiz-adv-x="827" 
d="M8 1206h62q133 0 217.5 57t109.5 191h328v-1454h-399v920h-318v286z" />
    <glyph glyph-name="two" unicode="2" horiz-adv-x="1280" 
d="M1073 690q-48 -45 -128 -96t-147.5 -88.5t-134 -85.5t-96.5 -92h647v-328h-1177q6 118 35.5 213.5t65.5 159.5t114 134.5t136 111.5t175 118q76 49 117.5 79t73.5 63t43.5 63.5t11.5 69.5q0 64 -47.5 106.5t-126.5 42.5q-89 0 -140 -54t-59 -155h-399q11 242 166.5 384.5
t439.5 142.5q141 0 252.5 -38t179.5 -103.5t103.5 -147t35.5 -172.5q0 -102 -32 -179t-109 -149z" />
    <glyph glyph-name="three" unicode="3" horiz-adv-x="1304" 
d="M444 1008q15 73 63 113t126 40q77 0 126.5 -37t49.5 -98q0 -65 -52.5 -102t-144.5 -37h-61v-283h63q107 0 172.5 -36.5t65.5 -112.5q0 -75 -56 -118.5t-147 -43.5q-94 0 -150.5 41t-74.5 115h-399q10 -101 56 -186.5t123.5 -150t191.5 -101t253 -36.5q276 0 442 124
t166 327q0 142 -80.5 232.5t-218.5 117.5q250 73 250 303q0 122 -78 214t-207.5 139t-289.5 47q-245 0 -409 -125t-179 -346h399z" />
    <glyph glyph-name="four" unicode="4" horiz-adv-x="1345" 
d="M1311 616v-299h-213v-317h-400v317h-688v299l688 838h400v-838h213zM348 616h350v426z" />
    <glyph glyph-name="five" unicode="5" horiz-adv-x="1314" 
d="M780 1004q215 0 349.5 -133.5t134.5 -360.5q0 -241 -166 -388t-451 -147q-140 0 -253 36.5t-188 101t-120.5 148t-58.5 181.5h399q19 -71 76.5 -113t140.5 -42q89 0 148 60.5t59 162.5q0 101 -58 159t-145 58q-64 0 -111 -31.5t-75 -79.5h-393l102 838h1012v-328h-688
l-33 -243q121 121 319 121z" />
    <glyph glyph-name="six" unicode="6" horiz-adv-x="1357" 
d="M715 -25q-312 0 -488 205.5t-176 554.5q0 221 75 388t225 261.5t358 94.5q127 0 228.5 -32.5t167.5 -89.5t107 -125t60 -149h-400q-44 101 -167 101q-114 0 -183.5 -95t-81.5 -262q42 68 133 117t209 49q148 0 266.5 -59t189.5 -175t71 -270q0 -156 -76.5 -273.5
t-210.5 -179t-307 -61.5zM688 287q91 0 153 61t62 154q0 92 -62 153.5t-153 61.5t-153 -61.5t-62 -153.5q0 -93 62 -154t153 -61z" />
    <glyph glyph-name="seven" unicode="7" horiz-adv-x="1167" 
d="M8 1454h1147v-328q-91 -62 -164 -136t-122.5 -134.5t-89.5 -158.5t-60.5 -152.5t-42 -177t-28 -170.5t-22.5 -191q-1 -4 -1 -6h-420q12 89 21 148t24.5 140t31 138t40 129t53 127t68 118.5t86.5 115.5t108 106.5t133 103.5h-762v328z" />
    <glyph glyph-name="eight" unicode="8" horiz-adv-x="1351" 
d="M1044 768q124 -53 192.5 -142t68.5 -212q0 -205 -171.5 -322t-457.5 -117q-291 0 -460 116.5t-169 322.5q0 244 258 354q-207 95 -207 301q0 184 160.5 297t417.5 113q256 0 416.5 -113t160.5 -297q0 -207 -209 -301zM676 1192q-80 0 -133.5 -43t-53.5 -107t53.5 -106.5
t133.5 -42.5t133 42.5t53 106.5t-53 107t-133 43zM676 283q96 0 159.5 48t63.5 130t-63.5 130t-159.5 48t-159.5 -48t-63.5 -130t63.5 -130t159.5 -48z" />
    <glyph glyph-name="nine" unicode="9" horiz-adv-x="1355" 
d="M641 1479q312 0 488 -205.5t176 -554.5q0 -221 -75 -388t-225 -261.5t-358 -94.5q-127 0 -228.5 32.5t-167.5 89.5t-107 125t-60 149h399q44 -101 168 -101q114 0 183 94.5t81 262.5q-42 -68 -133 -117t-209 -49q-148 0 -266.5 59t-189 175t-70.5 270q0 156 76.5 273.5
t210.5 179t307 61.5zM668 1167q-91 0 -153 -61t-62 -154q0 -92 62 -153.5t153 -61.5t153 61.5t62 153.5q0 93 -62 154t-153 61z" />
    <glyph glyph-name="question" unicode="?" horiz-adv-x="1183" 
d="M389 594q0 56 11.5 101.5t27 75.5t47.5 60.5t56.5 48t70.5 46.5q78 50 107.5 78.5t29.5 70.5q0 43 -38.5 69.5t-102.5 26.5q-73 0 -117.5 -39.5t-50.5 -111.5h-397q22 225 166.5 342t398.5 117q135 0 240.5 -30.5t170 -83.5t97.5 -120t33 -145q0 -112 -55.5 -189.5
t-172.5 -152.5q-88 -57 -116.5 -95.5t-28.5 -111.5v-29h-377v72zM784 410v-410h-413v410h413z" />
    <glyph glyph-name="A" unicode="A" horiz-adv-x="1462" 
d="M1042 0l-75 256h-471l-76 -256h-430l512 1454h459l512 -1454h-431zM590 573h282l-141 480z" />
    <glyph glyph-name="B" unicode="B" horiz-adv-x="1419" 
d="M1034 770q158 -24 253 -116t95 -232q0 -202 -136.5 -312t-395.5 -110h-752v1454h742q214 0 347.5 -96.5t133.5 -272.5q0 -130 -80 -211t-207 -104zM737 1133h-225v-246h225q85 0 128.5 28t43.5 95q0 66 -44 94.5t-128 28.5zM768 332q199 0 199 137t-199 137h-256v-274
h256z" />
    <glyph glyph-name="C" unicode="C" horiz-adv-x="1472" 
d="M780 -25q-330 0 -532.5 205.5t-202.5 546.5t202.5 546.5t532.5 205.5q135 0 252.5 -43t202 -116.5t141 -169t78.5 -204.5h-426q-23 82 -85.5 137.5t-162.5 55.5q-143 0 -227 -111t-84 -301t84 -301t227 -111q101 0 163 55t85 138h426q-22 -109 -77 -204.5t-138.5 -169.5
t-202 -116.5t-256.5 -42.5z" />
    <glyph glyph-name="D" unicode="D" horiz-adv-x="1470" 
d="M709 1454q226 0 389 -91.5t245 -254.5t82 -381t-82 -381t-245 -254.5t-389 -91.5h-611v1454h611zM655 344q175 0 260.5 88.5t85.5 294.5t-85.5 294.5t-260.5 88.5h-143v-766h143z" />
    <glyph glyph-name="E" unicode="E" horiz-adv-x="1304" 
d="M512 344h731v-344h-1145v1454h1135v-344h-721v-219h649v-303h-649v-244z" />
    <glyph glyph-name="F" unicode="F" horiz-adv-x="1239" 
d="M1202 1110h-690v-250h618v-303h-618v-557h-414v1454h1104v-344z" />
    <glyph glyph-name="G" unicode="G" horiz-adv-x="1531" 
d="M721 -25q-307 0 -491.5 205t-184.5 547q0 343 200 547.5t537 204.5q137 0 254 -38.5t200.5 -106t138.5 -156t77 -191.5h-422q-29 67 -90 109.5t-154 42.5q-145 0 -231 -111t-86 -301t86 -301t233 -111q112 0 180.5 57.5t86.5 155.5h-297v291h694v-819h-317v188
q-55 -94 -159 -153.5t-255 -59.5z" />
    <glyph glyph-name="H" unicode="H" horiz-adv-x="1474" 
d="M963 1454h413v-1454h-413v567h-451v-567h-414v1454h414v-530h451v530z" />
    <glyph glyph-name="I" unicode="I" horiz-adv-x="610" 
d="M512 1454v-1454h-414v1454h414z" />
    <glyph glyph-name="J" unicode="J" horiz-adv-x="901" 
d="M27 0v352h196q95 0 133.5 37t38.5 137v928h414v-1048q0 -218 -94 -312t-322 -94h-366z" />
    <glyph glyph-name="K" unicode="K" horiz-adv-x="1437" 
d="M1008 0l-377 592l-119 -121v-471h-414v1454h414v-483l455 483h495l-561 -580l582 -874h-475z" />
    <glyph glyph-name="L" unicode="L" horiz-adv-x="1210" 
d="M512 352h668v-352h-1082v1454h414v-1102z" />
    <glyph glyph-name="M" unicode="M" horiz-adv-x="1779" 
d="M1681 1454v-1454h-374v985l-250 -985h-334l-250 985v-985h-375v1454h566l227 -917l225 917h565z" />
    <glyph glyph-name="N" unicode="N" horiz-adv-x="1519" 
d="M1028 1454h393v-1454h-495l-434 940v-940h-394v1454h496l434 -940v940z" />
    <glyph glyph-name="O" unicode="O" horiz-adv-x="1556" 
d="M778 -25q-332 0 -532.5 205t-200.5 547t200.5 547t532.5 205t532.5 -205t200.5 -547t-200.5 -547t-532.5 -205zM778 315q143 0 226 111t83 301t-83 301t-226 111t-226 -111t-83 -301t83 -301t226 -111z" />
    <glyph glyph-name="P" unicode="P" horiz-adv-x="1327" 
d="M780 1454q239 0 384 -127.5t145 -351.5t-145 -351.5t-384 -127.5h-268v-496h-414v1454h682zM696 815q99 0 148 38.5t49 121.5q0 78 -50 119t-147 41h-184v-320h184z" />
    <glyph glyph-name="Q" unicode="Q" horiz-adv-x="1562" 
d="M1606 0h-297l-103 94q-178 -119 -428 -119q-332 0 -532.5 205t-200.5 547t200.5 547t532.5 205t532.5 -205t200.5 -547q0 -299 -157 -498zM778 315q85 0 146 37l-250 230h291l84 -76q38 93 38 221q0 190 -83 301t-226 111t-226 -111t-83 -301t83 -301t226 -111z" />
    <glyph glyph-name="R" unicode="R" horiz-adv-x="1400" 
d="M784 1454q251 0 398 -109.5t147 -310.5q0 -295 -311 -368q73 -11 121.5 -37.5t77 -72.5t43 -95.5t24.5 -126.5q30 -221 96 -334h-436q-28 60 -46 128t-30 187q-12 118 -61 157.5t-170 39.5h-125v-512h-414v1454h686zM705 823q100 0 154 39t54 117t-54 117t-154 39h-193
v-312h193z" />
    <glyph glyph-name="S" unicode="S" horiz-adv-x="1363" 
d="M702 -25q-300 0 -481 132t-198 360h430q31 -182 249 -182q94 0 148.5 36t54.5 95q0 23 -6 40t-24.5 32t-37 25t-59.5 23t-74.5 22.5t-99.5 25.5q-186 46 -263 78q-215 88 -265 258q-17 57 -17 124q0 136 81 236t218 149.5t312 49.5q266 0 430.5 -117.5t197.5 -317.5h-419
q-10 64 -67.5 100t-145.5 36q-85 0 -136 -29t-51 -78q0 -19 7 -35t25.5 -28.5t34.5 -21.5t50 -19t55.5 -15.5t67 -16.5t69.5 -17q200 -50 290 -91q204 -94 242 -276q9 -44 9 -94q0 -157 -83 -267.5t-222.5 -163.5t-321.5 -53z" />
    <glyph glyph-name="T" unicode="T" horiz-adv-x="1302" 
d="M1278 1454v-344h-420v-1110h-414v1110h-419v344h1253z" />
    <glyph glyph-name="U" unicode="U" horiz-adv-x="1458" 
d="M729 -25q-109 0 -204.5 20t-176.5 63t-139 107t-90.5 156.5t-32.5 206.5v926h414v-893q0 -117 59 -181.5t170 -64.5t170 64.5t59 181.5v893h414v-926q0 -114 -32.5 -206.5t-90.5 -156.5t-139 -107t-176.5 -63t-204.5 -20z" />
    <glyph glyph-name="V" unicode="V" horiz-adv-x="1404" 
d="M989 1454h420l-463 -1454h-487l-463 1454h420l286 -1014z" />
    <glyph glyph-name="W" unicode="W" horiz-adv-x="2011" 
d="M1585 1454h414l-334 -1454h-451l-208 956l-209 -956h-451l-334 1454h414l176 -979l199 979h409l199 -979z" />
    <glyph glyph-name="X" unicode="X" horiz-adv-x="1390" 
d="M481 731l-497 723h458l254 -395l262 395h449l-496 -723l516 -731h-460l-271 414l-276 -414h-457z" />
    <glyph glyph-name="Y" unicode="Y" horiz-adv-x="1388" 
d="M-10 1454h432l276 -582l277 582h428l-504 -932v-522h-414v526z" />
    <glyph glyph-name="Z" unicode="Z" horiz-adv-x="1314" 
d="M526 352h738v-352h-1219v352l717 754h-680v348h1161v-348z" />
    <glyph glyph-name="a" unicode="a" horiz-adv-x="1130" 
d="M385 -25q-157 0 -255.5 86.5t-98.5 237.5q0 73 25.5 129t77 94.5t115.5 64.5t154 48q20 5 51 12t47.5 11t40.5 10.5t37 11t29.5 10.5t25 12t17 14t12 17t3.5 19q0 36 -31.5 54.5t-85.5 18.5q-57 0 -90.5 -25t-38.5 -69h-369q20 147 152 240.5t362 93.5q243 0 371.5 -92
t128.5 -271v-702h-360v158q-74 -183 -320 -183zM535 225q66 0 107.5 50.5t41.5 130.5v149q-11 -29 -42 -48t-89 -40q-73 -25 -107 -55t-34 -80q0 -46 34 -76.5t89 -30.5z" />
    <glyph glyph-name="b" unicode="b" horiz-adv-x="1226" 
d="M760 -25q-103 0 -182 50.5t-121 132.5v-158h-383v1454h383v-569q41 81 120 130.5t183 49.5q194 0 312 -153t118 -392q0 -243 -117.5 -394t-312.5 -151zM616 242q81 0 125.5 74.5t44.5 203.5q0 130 -44.5 204.5t-125.5 74.5t-125.5 -74.5t-44.5 -204.5q0 -129 44.5 -203.5
t125.5 -74.5z" />
    <glyph glyph-name="c" unicode="c" horiz-adv-x="1136" 
d="M1118 375q-30 -194 -171 -297t-351 -103q-247 0 -405 154.5t-158 392.5q0 155 71.5 279t200 194t291.5 70q208 0 350 -104.5t172 -290.5h-373q-29 139 -143 139q-81 0 -123.5 -77t-42.5 -210q0 -134 42.5 -212.5t123.5 -78.5q118 0 143 144h373z" />
    <glyph glyph-name="d" unicode="d" horiz-adv-x="1226" 
d="M467 -25q-195 0 -312.5 151t-117.5 394q0 239 118 392t312 153q104 0 183 -49.5t120 -130.5v569h383v-1454h-383v158q-42 -82 -121 -132.5t-182 -50.5zM610 242q81 0 125.5 74.5t44.5 203.5q0 130 -44.5 204.5t-125.5 74.5t-125.5 -74.5t-44.5 -204.5q0 -129 44.5 -203.5
t125.5 -74.5z" />
    <glyph glyph-name="e" unicode="e" horiz-adv-x="1177" 
d="M33 522q0 236 159 389.5t408 153.5q256 0 405.5 -172.5t141.5 -456.5h-729q7 -106 56.5 -158.5t129.5 -52.5q112 0 158 107h366q-44 -156 -180 -256.5t-348 -100.5q-165 0 -294.5 70.5t-201 195t-71.5 281.5zM774 639q-14 86 -58.5 133t-115.5 47t-115.5 -47t-58.5 -133
h348z" />
    <glyph glyph-name="f" unicode="f" horiz-adv-x="796" 
d="M680 1204q-64 0 -87.5 -20.5t-23.5 -79.5v-60h230v-235h-230v-809h-383v809h-163v235h163v84q0 178 79.5 252t277.5 74h256v-250h-119z" />
    <glyph glyph-name="g" unicode="g" horiz-adv-x="1220" 
d="M612 -373q-223 0 -362 85t-164 227h383q15 -45 54 -71t93 -26q148 0 148 185v157q-40 -82 -118.5 -127t-186.5 -45q-199 0 -310.5 145t-111.5 382q0 232 114.5 379t307.5 147q105 0 184 -49.5t121 -130.5v159h383v-940q0 -235 -137.5 -356t-397.5 -121zM604 276
q77 0 123.5 69t46.5 194t-46.5 193.5t-123.5 68.5t-123.5 -68.5t-46.5 -193.5t46.5 -194t123.5 -69z" />
    <glyph glyph-name="h" unicode="h" horiz-adv-x="1187" 
d="M74 1454h383v-571q110 182 323 182q165 0 253.5 -100t88.5 -273v-692h-383v598q0 86 -30.5 131t-100.5 45q-72 0 -111.5 -54t-39.5 -145v-575h-383v1454z" />
    <glyph glyph-name="i" unicode="i" 
d="M74 1454h383v-297h-383v297zM74 1044h383v-1044h-383v1044z" />
    <glyph glyph-name="j" unicode="j" 
d="M74 1454h383v-297h-383v297zM457 20q0 -195 -87 -281.5t-294 -86.5h-166v256h72q55 0 73.5 21.5t18.5 80.5v1034h383v-1024z" />
    <glyph glyph-name="k" unicode="k" horiz-adv-x="1187" 
d="M797 0l-248 406l-92 -93v-313h-383v1454h383v-680l264 270h471l-389 -387l430 -657h-436z" />
    <glyph glyph-name="l" unicode="l" 
d="M74 1454h383v-1454h-383v1454z" />
    <glyph glyph-name="m" unicode="m" horiz-adv-x="1804" 
d="M74 1044h372v-163q52 83 135.5 133.5t186.5 50.5q238 0 305 -205q48 90 137 147.5t199 57.5q162 0 246 -98t84 -271v-696h-383v598q0 87 -27 131.5t-92 44.5q-66 0 -102.5 -54t-36.5 -145v-575h-383v598q0 87 -27 131.5t-92 44.5q-66 0 -102.5 -54t-36.5 -145v-575h-383
v1044z" />
    <glyph glyph-name="n" unicode="n" horiz-adv-x="1187" 
d="M74 1044h370v-161q130 182 336 182q165 0 253.5 -100t88.5 -273v-692h-383v598q0 86 -30.5 131t-100.5 45q-72 0 -111.5 -54t-39.5 -145v-575h-383v1044z" />
    <glyph glyph-name="o" unicode="o" horiz-adv-x="1204" 
d="M602 -25q-253 0 -411 153.5t-158 393.5q0 237 158 390t411 153t411 -153t158 -390q0 -240 -158 -393.5t-411 -153.5zM602 231q81 0 123.5 78.5t42.5 212.5q0 133 -42.5 210t-123.5 77t-123.5 -77t-42.5 -210q0 -134 42.5 -212.5t123.5 -78.5z" />
    <glyph glyph-name="p" unicode="p" horiz-adv-x="1226" 
d="M74 1044h383v-161q42 82 121 132t182 50q195 0 312.5 -151t117.5 -394q0 -239 -118 -392t-312 -153q-103 0 -182 49.5t-121 131.5v-504h-383v1392zM616 242q81 0 125.5 74t44.5 204q0 129 -44.5 204t-125.5 75t-125.5 -75t-44.5 -204q0 -130 44.5 -204t125.5 -74z" />
    <glyph glyph-name="q" unicode="q" horiz-adv-x="1226" 
d="M770 156q-42 -82 -121 -131.5t-182 -49.5q-194 0 -312 153t-118 392q0 243 117.5 394t312.5 151q103 0 182 -50t121 -132v161h383v-1392h-383v504zM610 242q81 0 125.5 74t44.5 204q0 129 -44.5 204t-125.5 75t-125.5 -75t-44.5 -204q0 -130 44.5 -204t125.5 -74z" />
    <glyph glyph-name="r" unicode="r" horiz-adv-x="833" 
d="M748 1044h71v-331h-90q-140 0 -206 -65t-66 -228v-420h-383v1044h372v-196q28 83 104 139.5t198 56.5z" />
    <glyph glyph-name="s" unicode="s" horiz-adv-x="1099" 
d="M561 -25q-237 0 -380.5 95t-162.5 268h388q9 -58 49.5 -90.5t105.5 -32.5q54 0 85.5 23.5t31.5 62.5q0 24 -11 39.5t-37 27t-60.5 20t-89.5 20.5q-7 1 -11 2q-218 47 -320 119.5t-102 207.5q0 150 135 239t359 89q221 0 352 -87.5t154 -229.5h-381q-6 41 -39.5 64.5
t-89.5 23.5q-50 0 -80.5 -20t-30.5 -50q0 -35 33.5 -50t130.5 -36q12 -3 18 -4q57 -12 93.5 -21t85 -23t80 -28t67.5 -33.5t58 -43t41.5 -53t28.5 -67t9 -81.5q0 -165 -139.5 -258t-370.5 -93z" />
    <glyph glyph-name="t" unicode="t" horiz-adv-x="815" 
d="M776 809h-229v-463q0 -53 23 -72.5t83 -19.5h123v-254h-262q-188 0 -269 75.5t-81 241.5v492h-144v235h144v279h383v-279h229v-235z" />
    <glyph glyph-name="u" unicode="u" horiz-adv-x="1183" 
d="M408 -25q-165 0 -253.5 100t-88.5 273v696h383v-602q0 -86 30.5 -131t100.5 -45q72 0 109.5 53.5t37.5 145.5v579h383v-1044h-373v158q-60 -84 -138.5 -133.5t-190.5 -49.5z" />
    <glyph glyph-name="v" unicode="v" horiz-adv-x="1128" 
d="M743 1044h394l-340 -1044h-463l-344 1044h403l174 -679z" />
    <glyph glyph-name="w" unicode="w" horiz-adv-x="1724" 
d="M1348 1044h389l-318 -1044h-399l-158 623l-157 -623h-400l-317 1044h389l166 -669l145 669h348l146 -669z" />
    <glyph glyph-name="x" unicode="x" horiz-adv-x="1087" 
d="M348 530l-364 514h403l158 -231l157 231h400l-361 -509l377 -535h-403l-170 248l-170 -248h-404z" />
    <glyph glyph-name="y" unicode="y" horiz-adv-x="1146" 
d="M377 1044l198 -682l199 682h377l-358 -1021q-41 -117 -80 -186.5t-95.5 -112t-126 -57.5t-178.5 -15h-219v256h113q73 0 109 18t57 74l-389 1044h393z" />
    <glyph glyph-name="z" unicode="z" horiz-adv-x="1062" 
d="M489 283h533v-283h-983v283l512 485h-483v276h933v-276z" />
    <glyph glyph-name="uni00A0" unicode="&#xa0;" horiz-adv-x="348" 
 />
    <glyph glyph-name="G.ss01" horiz-adv-x="1517" 
d="M1452 295q-101 -147 -274 -233.5t-396 -86.5q-331 0 -534 205.5t-203 546.5q0 343 200 547.5t537 204.5q137 0 254 -38.5t200.5 -106t138.5 -156t77 -191.5h-422q-29 67 -90 109.5t-154 42.5q-145 0 -231 -111t-86 -301t86 -301t233 -111q82 0 152 29.5t115 77.5v106
h-297v291h694v-524z" />
    <glyph glyph-name="Q.ss01" horiz-adv-x="1556" 
d="M1573 -166h-359l-172 180q-125 -39 -264 -39q-332 0 -532.5 205t-200.5 547t200.5 547t532.5 205t532.5 -205t200.5 -547q0 -187 -62 -337t-179 -249zM469 727q0 -190 83 -301t226 -111t226 111t83 301t-83 301t-226 111t-226 -111t-83 -301z" />
    <glyph glyph-name="R.ss01" horiz-adv-x="1413" 
d="M1403 0h-440l-297 512h-154v-512h-414v1454h686q251 0 398 -121.5t147 -347.5q0 -165 -72 -273.5t-206 -156.5zM512 1135v-312h193q100 0 154 39t54 117t-54 117t-154 39h-193z" />
    <glyph glyph-name="J.ss02" horiz-adv-x="1189" 
d="M557 -25q-249 0 -396 124.5t-147 375.5v62h406v-62q0 -73 34.5 -115.5t98.5 -42.5q63 0 98 41t35 107v989h414v-1020q0 -225 -145 -342t-398 -117z" />
    <glyph glyph-name="Q.ss02" horiz-adv-x="1560" 
d="M1548 0h-245q-8 67 -35 139q-197 -164 -490 -164q-332 0 -532.5 205t-200.5 547t200.5 547t532.5 205t532.5 -205t200.5 -547q0 -217 -81 -379q94 -152 118 -348zM778 315q143 0 226 109q-95 50 -226 65v226q166 -21 303 -80q6 44 6 92q0 190 -83 301t-226 111t-226 -111
t-83 -301t83 -301t226 -111z" />
    <glyph glyph-name="R.ss02" horiz-adv-x="1384" 
d="M784 1454q251 0 398 -109.5t147 -310.5q0 -295 -311 -368q85 -9 142 -35.5t88.5 -70.5t44 -97.5t12.5 -126.5v-336h-414v307q0 119 -52 162t-175 43h-152v-512h-414v1454h686zM705 825q208 0 208 154q0 78 -54 117t-154 39h-193v-310h193z" />
    <glyph glyph-name="K.ss03" horiz-adv-x="1435" 
d="M1483 0h-512l-459 500v-500h-414v1454h414v-401l117 -125l372 526h461l-575 -807z" />
    <glyph glyph-name="S.ss03" horiz-adv-x="1335" 
d="M74 348h706q80 0 80 51q0 21 -16.5 36.5t-55.5 35.5l-458 225q-287 140 -287 389q0 173 124.5 271t321.5 98h766v-344h-723q-25 0 -39 -11t-14 -30q0 -37 56 -63l440 -215q167 -81 244 -175t77 -233q0 -186 -118 -284.5t-357 -98.5h-747v348z" />
    <glyph glyph-name="R.ss04" horiz-adv-x="1433" 
d="M98 1454h686q251 0 398 -109.5t147 -310.5q0 -165 -107.5 -268.5t-308.5 -120.5q56 -14 92.5 -29.5t77.5 -46.5t79.5 -82.5t82.5 -130.5l197 -356h-445l-196 356q-27 48 -43 72t-41 46.5t-56 30t-77 7.5h-72v-512h-414v1454zM705 823q100 0 154 39t54 117t-54 117
t-154 39h-193v-312h193z" />
    <glyph glyph-name="a.ss01" horiz-adv-x="1130" 
d="M385 -25q-157 0 -255.5 86.5t-98.5 237.5q0 73 25.5 129t77 94.5t115.5 64.5t154 48l263 63v41q0 86 -117 86q-57 0 -90.5 -25t-38.5 -69h-369q20 146 151.5 240t360.5 94q244 0 373 -92t129 -271v-702h-360v158q-74 -183 -320 -183zM535 225q66 0 107.5 50.5t41.5 130.5
v106l-131 -45q-73 -25 -107 -55t-34 -80q0 -46 34 -76.5t89 -30.5z" />
    <glyph glyph-name="j.ss01" 
d="M74 1454h383v-297h-383v297zM74 1044h383v-1392h-383v1392z" />
    <glyph glyph-name="y.ss01" horiz-adv-x="1146" 
d="M377 1044l198 -682l199 682h377l-489 -1392h-404l129 348l-403 1044h393z" />
    <glyph glyph-name="k.ss03" horiz-adv-x="1183" 
d="M1233 0h-488l-288 309v-309h-383v1454h383v-635l86 -90l215 315h434l-412 -567z" />
    <glyph glyph-name="s.ss03" horiz-adv-x="1052" 
d="M63 266h521q45 0 45 25q0 14 -16.5 26t-59.5 33l-295 144q-107 52 -166 121.5t-59 177.5q0 119 86.5 185t224.5 66h631v-266h-520q-29 0 -29 -18t47 -39l307 -150q118 -58 182 -127.5t64 -171.5q0 -143 -84.5 -207.5t-253.5 -64.5h-625v266z" />
    <glyph glyph-name="j.ss04" 
d="M74 1454h383v-297h-383v297zM74 1044h383v-1239l-383 -204v1443z" />
    <glyph glyph-name="t.ss04" horiz-adv-x="815" 
d="M776 809h-229v-463q0 -53 23 -72.5t83 -19.5h123v-254h-262q-188 0 -269 75.5t-81 241.5v492h-144v235h144v177l383 225v-402h229v-235z" />
    <glyph glyph-name="g.ss05" horiz-adv-x="1165" 
d="M741 285q196 0 303 -77.5t107 -215.5q0 -365 -586 -365q-272 0 -415.5 62.5t-143.5 183.5q0 108 135 172q-104 64 -104 174q0 69 49 126t127 95q-139 99 -139 267q0 113 66 195.5t176 122.5t249 40q141 0 250 -41q69 160 262 160h70v-205h-43q-97 0 -127 -59
q80 -86 80 -213q0 -114 -66.5 -197t-176.5 -122.5t-249 -39.5q-113 0 -205 27q-10 -17 -10 -31q0 -28 24.5 -43.5t88.5 -15.5h278zM565 848q-59 0 -87.5 -38.5t-28.5 -102.5q0 -65 28.5 -103.5t87.5 -38.5t88 38.5t29 103.5q0 64 -29 102.5t-88 38.5zM559 -164q260 0 260 90
q0 34 -31 48t-100 14h-291q-45 0 -88 6q-22 -25 -22 -57q0 -101 272 -101z" />
    <glyph glyph-name="a.ss06" horiz-adv-x="1226" 
d="M467 -25q-195 0 -312.5 151t-117.5 394q0 239 118 392t312 153q104 0 183 -49.5t120 -130.5v159h383v-1044h-383v158q-42 -82 -121 -132.5t-182 -50.5zM610 242q81 0 125.5 74.5t44.5 203.5q0 130 -44.5 204.5t-125.5 74.5t-125.5 -74.5t-44.5 -204.5q0 -129 44.5 -203.5
t125.5 -74.5z" />
    <glyph glyph-name="one.ss01" horiz-adv-x="847" 
d="M29 1163l348 291h368v-1454h-399v1018l-317 -264v409z" />
    <glyph glyph-name="two.ss01" horiz-adv-x="1294" 
d="M51 328l527 393q133 100 172 140q73 74 73 151q0 64 -47.5 106.5t-126.5 42.5q-89 0 -139.5 -54t-58.5 -155h-400q11 242 166.5 384.5t439.5 142.5q143 0 254.5 -36.5t179.5 -100t103 -144t35 -172.5q0 -95 -44.5 -180.5t-118 -157.5t-200.5 -168l-256 -192h619v-328
h-1178v328z" />
    <glyph glyph-name="four.ss01" horiz-adv-x="1325" 
d="M1311 616v-299h-213v-317h-318v317h-770v299l688 838h418l-698 -838h362v308h318v-308h213z" />
    <glyph glyph-name="seven.ss01" horiz-adv-x="1175" 
d="M10 1454h1147v-328l-602 -1126h-420l623 1126h-748v328z" />
    <glyph glyph-name="one.ss02" horiz-adv-x="837" 
d="M18 1112q150 16 239 95.5t110 246.5h368v-1454h-399v913q-52 -75 -128.5 -111.5t-189.5 -47.5v358z" />
    <glyph glyph-name="four.ss04" horiz-adv-x="1325" 
d="M1311 616v-299h-213v-317h-318v317h-770v299l688 838h418l-698 -838h362v201l318 264v-465h213z" />
    <glyph glyph-name="DueStudio" horiz-adv-x="2324" 
d="M98 1454h2128v-1454h-2128v1454zM1059 147v93h-740l340 290q167 141 228 206q142 152 143 292q0 126 -94.5 210.5t-235.5 84.5q-178 0 -302 -120.5t-169 -328.5l105 -28q39 186 133.5 285.5t218.5 99.5q95 0 155 -61.5t60 -151.5q0 -52 -15.5 -95.5t-59 -96t-95.5 -101
t-149 -131.5l-334 -279v-168h811zM1694 131q168 0 284.5 90t116.5 232q0 148 -99 226.5t-327 125.5q-354 69 -354 229q0 87 73 142t177 55q131 0 246.5 -89t173.5 -241l108 37q-26 66 -70 130t-108 123t-155.5 95.5t-194.5 36.5q-164 0 -269.5 -78.5t-105.5 -206.5
q0 -235 428 -321q190 -39 270 -99t80 -172q0 -89 -78.5 -156t-201.5 -67q-83 0 -158 36.5t-130.5 98.5t-95.5 139.5t-61 164.5l-117 -37q25 -82 61 -153.5t87 -135t112.5 -108.5t140.5 -71t167 -26z" />
    </font>
</defs>
</svg>
