<?xml version="1.0" standalone="no"?>
<!DOCTYPE svg PUBLIC "-//W3C//DTD SVG 1.1//EN" "http://www.w3.org/Graphics/SVG/1.1/DTD/svg11.dtd" >
<svg xmlns="http://www.w3.org/2000/svg" xmlns:xlink="http://www.w3.org/1999/xlink" version="1.1">
<metadata>
Created by FontForge 20201107 at Sat Mar 15 18:53:25 2025
 By 
Copyright (c) 2020 by Massimiliano Vitti, Due Studio. All rights reserved.
</metadata>
<defs>
<font id="LayGrotesk-Trial-Bold" horiz-adv-x="499" >
  <font-face 
    font-family="Lay Grotesk - Trial"
    font-weight="700"
    font-stretch="normal"
    units-per-em="2048"
    panose-1="0 0 8 0 0 0 0 0 0 0"
    ascent="1638"
    descent="-410"
    x-height="1044"
    cap-height="1454"
    bbox="-80 -393 2243 1485"
    underline-thickness="102"
    underline-position="-204"
    unicode-range="U+000D-00A0"
  />
<missing-glyph horiz-adv-x="1210" 
d="M1126 737l-407 408v-123l407 -408v-225l-407 408v-123l407 -408v-225l-407 408v-449h-227v451l-410 -410v225l410 410v123l-410 -410v225l410 410v123l-410 -410v226l522 522l522 -522v-226z" />
    <glyph glyph-name=".notdef" horiz-adv-x="1210" 
d="M1126 737l-407 408v-123l407 -408v-225l-407 408v-123l407 -408v-225l-407 408v-449h-227v451l-410 -410v225l410 410v123l-410 -410v225l410 410v123l-410 -410v226l522 522l522 -522v-226z" />
    <glyph glyph-name=".null" horiz-adv-x="0" 
 />
    <glyph glyph-name="nonmarkingreturn" horiz-adv-x="682" 
 />
    <glyph glyph-name="CR" unicode="&#xd;" horiz-adv-x="364" 
 />
    <glyph glyph-name="space" unicode=" " horiz-adv-x="364" 
 />
    <glyph glyph-name="exclam" unicode="!" horiz-adv-x="534" 
d="M94 1028v426h346v-426l-96 -543h-154zM444 354v-354h-356v354h356z" />
    <glyph glyph-name="comma" unicode="," horiz-adv-x="522" 
d="M82 354h358v-354q0 -150 -88.5 -227.5t-269.5 -91.5v165q45 3 74.5 10t55.5 23.5t38 46t12 74.5h-180v354z" />
    <glyph glyph-name="period" unicode="." horiz-adv-x="522" 
d="M440 354v-354h-358v354h358z" />
    <glyph glyph-name="zero" unicode="0" horiz-adv-x="1368" 
d="M684 -25q-152 0 -272 58t-196 160.5t-115.5 238.5t-39.5 295t39.5 295t115.5 238.5t196 160.5t272 58t272 -58t196 -160.5t115.5 -238.5t39.5 -295t-39.5 -295t-115.5 -238.5t-196 -160.5t-272 -58zM684 244q73 0 127.5 36.5t87 103t48.5 152.5t16 191t-16 191
t-48.5 152.5t-87 103t-127.5 36.5q-95 0 -158.5 -65.5t-90.5 -171t-27 -246.5t27 -246.5t90.5 -171t158.5 -65.5z" />
    <glyph glyph-name="one" unicode="1" horiz-adv-x="790" 
d="M8 1212h60q140 0 224 53t109 189h271v-1454h-334v973h-330v239z" />
    <glyph glyph-name="two" unicode="2" horiz-adv-x="1253" 
d="M485 276h699v-276h-1135q3 85 20 159t37.5 129t63.5 110.5t75.5 90.5t98.5 83.5t107 75.5t124 79q152 95 207.5 154.5t55.5 146.5q0 77 -56 129.5t-155 52.5q-110 0 -172 -66t-70 -188h-336q11 240 161 381.5t423 141.5q108 0 199 -24t154.5 -66t107.5 -98.5t65 -120.5
t21 -134q0 -116 -47.5 -202t-163.5 -172q-56 -43 -143 -100t-146 -95t-115 -89.5t-80 -101.5z" />
    <glyph glyph-name="three" unicode="3" horiz-adv-x="1284" 
d="M395 1012q13 96 74.5 147t159.5 51q95 0 153 -44.5t58 -118.5q0 -81 -65 -125.5t-175 -44.5h-55v-242h57q128 0 204.5 -47.5t76.5 -141.5t-65.5 -148t-176.5 -54q-225 0 -266 200h-338q11 -100 55 -184t117.5 -148.5t184.5 -100.5t247 -36q268 0 426 123.5t158 327.5
q0 143 -84.5 236t-227.5 118q122 30 193.5 105.5t71.5 199.5q0 179 -155.5 286.5t-393.5 107.5q-156 0 -280.5 -53t-202.5 -160t-87 -254h336z" />
    <glyph glyph-name="four" unicode="4" horiz-adv-x="1304" 
d="M1272 580v-256h-225v-324h-334v324h-701v256l701 874h334v-874h225zM305 580h408v510z" />
    <glyph glyph-name="five" unicode="5" horiz-adv-x="1284" 
d="M743 997q217 0 349.5 -136t132.5 -359q0 -234 -156.5 -380.5t-431.5 -146.5q-136 0 -246.5 37.5t-182.5 102t-114.5 146t-54.5 175.5h338q20 -87 86.5 -141.5t171.5 -54.5q108 0 175 72t67 190q0 117 -67 187.5t-173 70.5q-74 0 -132.5 -37t-92.5 -96h-334l100 827h971
v-276h-696l-41 -316q122 135 331 135z" />
    <glyph glyph-name="six" unicode="6" horiz-adv-x="1323" 
d="M694 -25q-204 0 -348 97t-214.5 266.5t-70.5 396.5q0 159 40 293.5t117.5 235.5t199.5 158t276 57q97 0 179.5 -22t141 -58.5t103.5 -88t71.5 -107t39.5 -118.5h-334q-21 63 -72 103.5t-133 40.5q-139 0 -215 -115t-84 -330q42 85 137.5 142t221.5 57q224 0 369 -137
t145 -365t-160 -367t-410 -139zM674 240q109 0 178.5 71t69.5 181q0 108 -70 180.5t-178 72.5q-106 0 -177 -71.5t-71 -179.5q0 -110 70.5 -182t177.5 -72z" />
    <glyph glyph-name="seven" unicode="7" horiz-adv-x="1130" 
d="M6 1454h1114v-276q-94 -67 -170 -145t-127.5 -148t-93 -165.5t-64.5 -164.5t-44 -182t-30 -179.5t-24 -193.5h-354q13 90 22 150t25 143.5t32 142.5t41.5 135t55 133.5t70.5 125t89.5 123t111.5 114t137 111.5h-791v276z" />
    <glyph glyph-name="eight" unicode="8" horiz-adv-x="1325" 
d="M993 772q130 -51 202.5 -141.5t72.5 -216.5q0 -201 -165.5 -320t-438.5 -119q-280 0 -443.5 118.5t-163.5 320.5q0 126 72 217.5t203 142.5q-107 44 -165 121.5t-58 185.5q0 178 154 288t401 110q246 0 400.5 -110t154.5 -288q0 -107 -59.5 -185t-166.5 -124zM664 1235
q-97 0 -160.5 -50t-63.5 -126q0 -78 63.5 -127t160.5 -49q96 0 159.5 49.5t63.5 126.5q0 76 -63.5 126t-159.5 50zM664 238q115 0 188.5 56.5t73.5 154.5t-73.5 155.5t-188.5 57.5q-116 0 -189.5 -57.5t-73.5 -155.5t73 -154.5t190 -56.5z" />
    <glyph glyph-name="nine" unicode="9" horiz-adv-x="1320" 
d="M627 1479q204 0 348 -97t214.5 -266.5t70.5 -396.5q0 -159 -40 -293.5t-117.5 -235.5t-199.5 -158t-276 -57q-97 0 -179.5 22t-141 58.5t-103.5 88t-71.5 107t-39.5 118.5h334q21 -63 72 -103.5t133 -40.5q139 0 215 115t84 330q-42 -85 -137.5 -142t-221.5 -57
q-224 0 -369 137t-145 365t160 367t410 139zM647 1214q-109 0 -178.5 -70.5t-69.5 -180.5q0 -108 70 -181t178 -73q106 0 177 72t71 180q0 110 -70.5 181.5t-177.5 71.5z" />
    <glyph glyph-name="question" unicode="?" horiz-adv-x="1153" 
d="M399 555q0 43 7 80t15.5 64t28.5 54.5t33.5 44t43 40t45 34.5t51.5 35q40 27 60.5 42.5t42.5 37.5t31 45t9 51q0 60 -49 98t-133 38q-91 0 -148 -52.5t-63 -142.5h-334q20 218 159.5 336.5t385.5 118.5q129 0 230.5 -30.5t163 -83t93 -119.5t31.5 -144
q0 -111 -54.5 -188.5t-164.5 -149.5q-49 -34 -73.5 -53.5t-49 -48t-33 -61t-8.5 -77.5v-39h-320v70zM737 354v-354h-356v354h356z" />
    <glyph glyph-name="A" unicode="A" horiz-adv-x="1425" 
d="M1063 0l-92 297h-520l-93 -297h-360l518 1454h393l518 -1454h-364zM537 567h350l-176 561z" />
    <glyph glyph-name="B" unicode="B" horiz-adv-x="1402" 
d="M1006 770q159 -21 254.5 -113t95.5 -235q0 -201 -134.5 -311.5t-383.5 -110.5h-723v1454h708q210 0 340.5 -97t130.5 -272q0 -131 -80.5 -212.5t-207.5 -102.5zM748 1178h-285v-308h285q198 0 198 156q0 152 -198 152zM778 285q226 0 226 172q0 87 -60.5 128.5
t-167.5 41.5h-313v-342h315z" />
    <glyph glyph-name="C" unicode="C" horiz-adv-x="1464" 
d="M778 -25q-325 0 -524 207.5t-199 544.5t199 544.5t524 207.5q131 0 245 -41t196.5 -112t137.5 -165t77 -203h-359q-26 102 -102.5 166t-194.5 64q-169 0 -267.5 -126t-98.5 -335t98.5 -335t267.5 -126q122 0 196 63.5t101 166.5h359q-22 -109 -75 -202.5t-134.5 -165
t-196.5 -112.5t-250 -41z" />
    <glyph glyph-name="D" unicode="D" horiz-adv-x="1460" 
d="M705 1454q168 0 300.5 -53t219.5 -149t132.5 -229t45.5 -296t-45.5 -296t-132.5 -229t-219.5 -149t-300.5 -53h-590v1454h590zM659 293q194 0 291 106.5t97 327.5t-97 327.5t-291 106.5h-196v-868h196z" />
    <glyph glyph-name="E" unicode="E" horiz-adv-x="1292" 
d="M463 293h764v-293h-1112v1454h1102v-293h-754v-287h678v-262h-678v-319z" />
    <glyph glyph-name="F" unicode="F" horiz-adv-x="1228" 
d="M1190 1161h-727v-309h653v-262h-653v-590h-348v1454h1075v-293z" />
    <glyph glyph-name="G" unicode="G" horiz-adv-x="1525" 
d="M729 -25q-202 0 -355 94t-236 264.5t-83 393.5q0 338 197.5 545t527.5 207q263 0 435 -136.5t217 -347.5h-357q-30 85 -105 139t-188 54q-170 0 -270 -126t-100 -335t100 -335t272 -126q136 0 218 74t94 195v16h-346v254h682v-805h-275v205q-55 -103 -163.5 -166.5
t-264.5 -63.5z" />
    <glyph glyph-name="H" unicode="H" horiz-adv-x="1462" 
d="M999 1454h349v-1454h-349v598h-536v-598h-348v1454h348v-555h536v555z" />
    <glyph glyph-name="I" unicode="I" horiz-adv-x="575" 
d="M463 1454v-1454h-348v1454h348z" />
    <glyph glyph-name="J" unicode="J" horiz-adv-x="884" 
d="M29 0v299h209q100 0 145 45t45 152v958h348v-1046q0 -213 -97 -310.5t-319 -97.5h-331z" />
    <glyph glyph-name="K" unicode="K" horiz-adv-x="1396" 
d="M1034 0l-424 647l-147 -149v-498h-348v1454h348v-543l530 543h420l-573 -577l594 -877h-400z" />
    <glyph glyph-name="L" unicode="L" horiz-adv-x="1196" 
d="M463 299h700v-299h-1048v1454h348v-1155z" />
    <glyph glyph-name="M" unicode="M" horiz-adv-x="1773" 
d="M1659 1454v-1454h-320v1085l-307 -1085h-291l-307 1085v-1085h-319v1454h485l287 -1034l287 1034h485z" />
    <glyph glyph-name="N" unicode="N" horiz-adv-x="1509" 
d="M1063 1454h332v-1454h-422l-527 1044v-1044h-331v1454h422l526 -1044v1044z" />
    <glyph glyph-name="O" unicode="O" horiz-adv-x="1552" 
d="M776 -25q-215 0 -379 94t-253 264.5t-89 393.5t89 393.5t253 264.5t379 94q327 0 524 -207t197 -545t-197 -545t-524 -207zM776 266q170 0 267.5 126t97.5 335t-97.5 335t-267.5 126q-169 0 -266.5 -126t-97.5 -335t97.5 -335t266.5 -126z" />
    <glyph glyph-name="P" unicode="P" horiz-adv-x="1304" 
d="M774 1454q228 0 367 -124t139 -337q0 -214 -138.5 -337.5t-367.5 -123.5h-311v-532h-348v1454h659zM705 807q223 0 223 186q0 92 -57.5 139.5t-165.5 47.5h-242v-373h242z" />
    <glyph glyph-name="Q" unicode="Q" horiz-adv-x="1558" 
d="M1589 0h-276l-109 100q-180 -125 -428 -125q-215 0 -379 94t-253 264.5t-89 393.5t89 393.5t253 264.5t379 94q327 0 524 -207t197 -545q0 -298 -158 -502zM776 266q108 0 187 51l-269 246h271l118 -106q58 113 58 270q0 209 -97.5 335t-267.5 126q-169 0 -266.5 -126
t-97.5 -335t97.5 -335t266.5 -126z" />
    <glyph glyph-name="R" unicode="R" horiz-adv-x="1384" 
d="M778 1454q240 0 382.5 -109t142.5 -301q0 -150 -82 -241.5t-234 -122.5q72 -11 121 -38t78.5 -73t45 -99t25.5 -132q25 -214 97 -338h-371q-59 132 -78 326q-12 130 -66.5 175.5t-187.5 45.5h-188v-547h-348v1454h663zM707 815q243 0 243 182q0 91 -62.5 137t-180.5 46
h-244v-365h244z" />
    <glyph glyph-name="S" unicode="S" horiz-adv-x="1341" 
d="M694 -25q-295 0 -469 133t-192 359h360q35 -225 303 -225q111 0 177.5 45.5t66.5 124.5q0 34 -13 59.5t-33.5 43t-62.5 33.5t-83.5 28t-112.5 31q-23 6 -35 9q-189 49 -265 81q-193 82 -242 235q-19 58 -19 127q0 129 76.5 225t207 145.5t297.5 49.5q260 0 420 -116
t193 -314h-353q-13 83 -83 126.5t-181 43.5q-101 0 -162 -37t-61 -101q0 -25 8.5 -44.5t29 -35.5t40.5 -27t57 -23t64.5 -19.5t76.5 -19.5q34 -8 52 -13q201 -52 285 -90q187 -83 236 -235q19 -60 19 -132q0 -149 -79 -256t-213.5 -159t-309.5 -52z" />
    <glyph glyph-name="T" unicode="T" horiz-adv-x="1282" 
d="M1253 1454v-293h-438v-1161h-348v1161h-438v293h1224z" />
    <glyph glyph-name="U" unicode="U" horiz-adv-x="1441" 
d="M721 -25q-106 0 -197.5 20t-169.5 62.5t-133.5 105.5t-87 153.5t-31.5 201.5v936h349v-907q0 -135 70.5 -208t199.5 -73t199.5 73t70.5 208v907h348v-936q0 -138 -47.5 -244t-132.5 -170.5t-195 -96.5t-243 -32z" />
    <glyph glyph-name="V" unicode="V" horiz-adv-x="1368" 
d="M1010 1454h354l-475 -1454h-410l-475 1454h354l326 -1096z" />
    <glyph glyph-name="W" unicode="W" horiz-adv-x="1978" 
d="M1612 1454h348l-346 -1454h-379l-246 1044l-246 -1044h-378l-347 1454h351l209 -1063l237 1063h350l236 -1063z" />
    <glyph glyph-name="X" unicode="X" horiz-adv-x="1337" 
d="M487 731l-495 723h389l289 -448l299 448h377l-496 -723l510 -731h-389l-301 463l-310 -463h-383z" />
    <glyph glyph-name="Y" unicode="Y" horiz-adv-x="1353" 
d="M0 1454h365l313 -612l317 612h363l-510 -911v-543h-348v547z" />
    <glyph glyph-name="Z" unicode="Z" horiz-adv-x="1288" 
d="M453 299h782v-299h-1190v299l764 858h-725v297h1130v-297z" />
    <glyph glyph-name="a" unicode="a" horiz-adv-x="1107" 
d="M395 -25q-157 0 -256.5 86t-99.5 236q0 75 26.5 130.5t81 94t119 64t160.5 49.5q20 5 51.5 12.5t48 12t41.5 11t38 11.5t30 12t26 13.5t17.5 15t12 18t3.5 21.5q0 44 -40 69t-109 25q-75 0 -119.5 -32.5t-48.5 -90.5h-314q20 147 147 239.5t345 92.5q228 0 350.5 -89
t122.5 -259v-717h-305v168q-31 -85 -111 -139t-217 -54zM514 190q88 0 141.5 65.5t53.5 164.5v166q-14 -33 -52.5 -56.5t-109.5 -46.5q-95 -29 -140 -64t-45 -97q0 -59 42.5 -95.5t109.5 -36.5z" />
    <glyph glyph-name="b" unicode="b" horiz-adv-x="1202" 
d="M723 -25q-107 0 -187.5 50t-123.5 135v-160h-324v1454h324v-571q42 84 123 133t188 49q196 0 315 -153t119 -392q0 -241 -119 -393t-315 -152zM610 205q97 0 152 86t55 229q0 144 -55 230t-152 86q-98 0 -153.5 -85.5t-55.5 -230.5q0 -143 55.5 -229t153.5 -86z" />
    <glyph glyph-name="c" unicode="c" horiz-adv-x="1120" 
d="M1092 367q-32 -190 -166.5 -291t-337.5 -101q-159 0 -284 70.5t-194 195t-69 281.5q0 236 153.5 389.5t393.5 153.5q200 0 336 -102.5t168 -284.5h-318q-16 77 -61.5 120.5t-120.5 43.5q-101 0 -156 -87t-55 -233q0 -148 55.5 -235.5t157.5 -87.5q146 0 180 168h318z" />
    <glyph glyph-name="d" unicode="d" horiz-adv-x="1202" 
d="M479 -25q-196 0 -315 152t-119 393q0 239 119 392t315 153q107 0 188.5 -49t125.5 -133v571h321v-1454h-321v160q-44 -85 -125.5 -135t-188.5 -50zM594 205q97 0 152 86t55 229q0 144 -55 230t-152 86q-98 0 -153.5 -85.5t-55.5 -230.5q0 -143 55.5 -229t153.5 -86z" />
    <glyph glyph-name="e" unicode="e" horiz-adv-x="1163" 
d="M41 522q0 237 153.5 390t397.5 153q248 0 394 -171t138 -443h-755q7 -126 67 -192t160 -66q74 0 123 37.5t72 101.5h313q-44 -158 -176 -257.5t-334 -99.5q-245 0 -399 154t-154 393zM805 633q-15 102 -70 159.5t-143 57.5q-89 0 -144.5 -57.5t-70.5 -159.5h428z" />
    <glyph glyph-name="f" unicode="f" horiz-adv-x="739" 
d="M618 1237q-63 0 -85.5 -23t-22.5 -88v-82h229v-206h-229v-838h-322v838h-163v206h163v105q0 165 71 235t249 70h231v-217h-121z" />
    <glyph glyph-name="g" unicode="g" horiz-adv-x="1198" 
d="M598 -373q-215 0 -348 85t-158 227h324q18 -56 65.5 -87.5t120.5 -31.5q95 0 139.5 53t44.5 162v151q-41 -84 -122 -129t-191 -45q-199 0 -313.5 146t-114.5 381q0 231 116.5 378.5t311.5 147.5q108 0 189.5 -49t123.5 -133v161h324v-944q0 -232 -130 -352.5t-382 -120.5
zM588 240q96 0 152.5 80t56.5 219t-56.5 219t-152.5 80t-151.5 -80t-55.5 -219t55.5 -219t151.5 -80z" />
    <glyph glyph-name="h" unicode="h" horiz-adv-x="1163" 
d="M88 1454h324v-575q46 82 127 134t200 52q166 0 255 -97.5t89 -265.5v-702h-323v627q0 94 -37 142t-123 48t-137 -63.5t-51 -169.5v-584h-324v1454z" />
    <glyph glyph-name="i" unicode="i" 
d="M88 1454h324v-272h-324v272zM88 1044h324v-1044h-324v1044z" />
    <glyph glyph-name="j" unicode="j" 
d="M88 1454h324v-272h-324v272zM412 -6q0 -182 -79.5 -262t-269.5 -80h-143v221h74q57 0 75.5 23t18.5 88v1060h324v-1050z" />
    <glyph glyph-name="k" unicode="k" horiz-adv-x="1132" 
d="M807 0l-285 451l-110 -109v-342h-324v1454h324v-731l323 321h395l-393 -382l437 -662h-367z" />
    <glyph glyph-name="l" unicode="l" 
d="M88 1454h324v-1454h-324v1454z" />
    <glyph glyph-name="m" unicode="m" horiz-adv-x="1771" 
d="M88 1044h315v-165q53 84 136 135t188 51q237 0 301 -207q48 93 137.5 150t202.5 57q154 0 239 -93.5t85 -258.5v-713h-322v627q0 190 -145 190q-79 0 -126.5 -63t-47.5 -168v-586h-322v627q0 190 -145 190q-78 0 -125 -63.5t-47 -167.5v-586h-324v1044z" />
    <glyph glyph-name="n" unicode="n" horiz-adv-x="1163" 
d="M88 1044h313v-165q125 186 338 186q166 0 255 -97.5t89 -265.5v-702h-323v627q0 94 -37 142t-123 48t-137 -63.5t-51 -169.5v-584h-324v1044z" />
    <glyph glyph-name="o" unicode="o" horiz-adv-x="1183" 
d="M592 -25q-162 0 -288 70.5t-194.5 195t-68.5 281.5q0 237 153 390t398 153t398 -153t153 -390q0 -157 -68.5 -281.5t-194.5 -195t-288 -70.5zM592 199q101 0 156 87.5t55 235.5q0 146 -55 233t-156 87t-156 -87t-55 -233q0 -148 55 -235.5t156 -87.5z" />
    <glyph glyph-name="p" unicode="p" horiz-adv-x="1202" 
d="M88 1044h324v-163q43 85 123.5 134.5t187.5 49.5q196 0 315 -152t119 -393q0 -239 -119 -392t-315 -153q-107 0 -187.5 49.5t-123.5 133.5v-506h-324v1392zM610 205q97 0 152 85.5t55 229.5q0 143 -55 229.5t-152 86.5q-98 0 -153.5 -86.5t-55.5 -229.5q0 -144 55 -229.5
t154 -85.5z" />
    <glyph glyph-name="q" unicode="q" horiz-adv-x="1202" 
d="M793 158q-44 -84 -125.5 -133.5t-188.5 -49.5q-196 0 -315 153t-119 392q0 241 119 393t315 152q107 0 188.5 -49.5t125.5 -134.5v163h321v-1392h-321v506zM594 205q97 0 152 85.5t55 229.5q0 143 -55 229.5t-152 86.5q-98 0 -153.5 -86.5t-55.5 -229.5q0 -144 55 -229.5
t154 -85.5z" />
    <glyph glyph-name="r" unicode="r" horiz-adv-x="792" 
d="M705 1044h71v-282h-94q-136 0 -202.5 -63.5t-67.5 -217.5v-481h-324v1044h313v-196q31 85 107.5 140.5t196.5 55.5z" />
    <glyph glyph-name="s" unicode="s" horiz-adv-x="1069" 
d="M551 -25q-231 0 -369 95t-155 268h327q9 -75 61 -114.5t136 -39.5q71 0 110 32t39 81q0 24 -9.5 41.5t-22.5 29t-47 23t-60.5 18.5t-85.5 21q-83 19 -142 37t-114 44.5t-88.5 58.5t-53.5 78t-20 104q0 143 128.5 229t340.5 86t337.5 -87.5t146.5 -229.5h-322
q-8 54 -50 84t-114 30q-66 0 -105.5 -26t-39.5 -64q0 -19 9 -33.5t21.5 -24t40.5 -19.5t51 -16t68 -17q14 -3 21 -5q62 -14 102 -24.5t91.5 -27t84 -33.5t67 -42.5t53.5 -55.5t31.5 -70.5t12.5 -88.5q0 -160 -131 -251t-350 -91z" />
    <glyph glyph-name="t" unicode="t" horiz-adv-x="761" 
d="M721 838h-229v-514q0 -60 22 -81.5t82 -21.5h125v-221h-236q-172 0 -244.5 71.5t-72.5 229.5v537h-148v206h148v279h324v-279h229v-206z" />
    <glyph glyph-name="u" unicode="u" horiz-adv-x="1155" 
d="M422 -25q-163 0 -252.5 98t-89.5 265v706h323v-630q0 -93 37 -142t121 -49t134 64t50 170v587h322v-1044h-315v162q-118 -187 -330 -187z" />
    <glyph glyph-name="v" unicode="v" horiz-adv-x="1083" 
d="M754 1044h331l-350 -1044h-387l-350 1044h340l207 -747z" />
    <glyph glyph-name="w" unicode="w" horiz-adv-x="1669" 
d="M1341 1044h332l-321 -1044h-338l-178 688l-181 -688h-338l-319 1044h330l188 -729l168 729h301l168 -729z" />
    <glyph glyph-name="x" unicode="x" horiz-adv-x="1050" 
d="M360 532l-366 512h342l192 -274l191 274h338l-365 -507l381 -537h-342l-205 293l-207 -293h-339z" />
    <glyph glyph-name="y" unicode="y" horiz-adv-x="1097" 
d="M326 1044l225 -729l227 729h320l-375 -1042q-52 -145 -103.5 -217.5t-127 -102.5t-203.5 -30h-193v223h105q78 0 115.5 23.5t66.5 101.5l-391 1044h334z" />
    <glyph glyph-name="z" unicode="z" horiz-adv-x="1028" 
d="M418 242h567v-242h-944v242l547 565h-518v237h895v-237z" />
    <glyph glyph-name="uni00A0" unicode="&#xa0;" horiz-adv-x="364" 
 />
    <glyph glyph-name="G.ss01" horiz-adv-x="1509" 
d="M1432 285q-100 -144 -268.5 -227t-383.5 -83q-326 0 -525.5 207.5t-199.5 544.5q0 338 197.5 545t527.5 207q133 0 247 -38t195.5 -104t135.5 -153.5t76 -190.5h-357q-31 87 -106.5 141t-188.5 54q-170 0 -270 -126t-100 -335t100 -335t272 -126q96 0 178 33t134 90v162
h-346v254h682v-520z" />
    <glyph glyph-name="Q.ss01" horiz-adv-x="1552" 
d="M1538 -166h-326l-180 180q-122 -39 -256 -39q-215 0 -379 94t-253 264.5t-89 393.5t89 393.5t253 264.5t379 94q327 0 524 -207t197 -545q0 -192 -66.5 -346.5t-189.5 -253.5zM412 727q0 -209 97.5 -335t266.5 -126q170 0 267.5 126t97.5 335t-97.5 335t-267.5 126
q-169 0 -266.5 -126t-97.5 -335z" />
    <glyph glyph-name="R.ss01" horiz-adv-x="1390" 
d="M1374 0h-377l-346 547h-188v-547h-348v1454h663q241 0 383 -118.5t142 -334.5q0 -170 -83.5 -278.5t-234.5 -149.5zM463 1180v-365h244q243 0 243 182q0 91 -62.5 137t-180.5 46h-244z" />
    <glyph glyph-name="J.ss02" horiz-adv-x="1148" 
d="M532 -25q-238 0 -373.5 119.5t-135.5 364.5v55h342v-55q0 -96 42.5 -144.5t122.5 -48.5q78 0 121 46.5t43 133.5v1008h348v-1036q0 -218 -135 -330.5t-375 -112.5z" />
    <glyph glyph-name="Q.ss02" horiz-adv-x="1556" 
d="M1526 0h-223q-8 65 -39 147q-191 -172 -488 -172q-215 0 -379 94t-253 264.5t-89 393.5t89 393.5t253 264.5t379 94q327 0 524 -207t197 -545q0 -222 -88 -393q94 -146 117 -334zM776 266q170 0 268 127q-112 62 -268 80v203q201 -21 350 -94q15 67 15 145
q0 209 -97.5 335t-267.5 126q-169 0 -266.5 -126t-97.5 -335t97.5 -335t266.5 -126z" />
    <glyph glyph-name="R.ss02" horiz-adv-x="1370" 
d="M778 1454q240 0 382.5 -109t142.5 -301q0 -150 -82 -241.5t-234 -122.5q86 -9 143.5 -36t89.5 -73t45 -102t13 -133v-336h-348v313q0 132 -58 183t-194 51h-215v-547h-348v1454h663zM707 817q243 0 243 180q0 91 -62.5 137t-180.5 46h-244v-363h244z" />
    <glyph glyph-name="K.ss03" horiz-adv-x="1394" 
d="M1434 0h-435l-536 565v-565h-348v1454h348v-430l137 -143l422 573h391l-594 -805z" />
    <glyph glyph-name="S.ss03" horiz-adv-x="1298" 
d="M82 297h694q51 0 81 24.5t30 65.5q0 62 -84 102l-484 232q-268 127 -268 371q0 165 121 263.5t305 98.5h733v-293h-702q-40 0 -66 -23.5t-26 -58.5q0 -59 71 -94l471 -223q151 -71 222 -163.5t71 -223.5q0 -175 -115.5 -275t-328.5 -100h-725v297z" />
    <glyph glyph-name="R.ss04" horiz-adv-x="1411" 
d="M115 1454h663q240 0 382.5 -109t142.5 -301q0 -169 -112 -273t-312 -116q110 -26 177 -83.5t156 -215.5l199 -356h-375l-200 356q-34 60 -55 91t-51.5 57t-66 34.5t-90.5 8.5h-110v-547h-348v1454zM707 815q243 0 243 182q0 91 -62.5 137t-180.5 46h-244v-365h244z" />
    <glyph glyph-name="a.ss01" horiz-adv-x="1107" 
d="M395 -25q-157 0 -256.5 86t-99.5 236q0 75 26.5 130.5t81 94t119 64t160.5 49.5l268 65v43q0 113 -149 113q-75 0 -119.5 -32.5t-48.5 -90.5h-314q20 147 147 239.5t345 92.5q228 0 350.5 -89t122.5 -259v-717h-305v168q-31 -85 -111 -139t-217 -54zM514 190
q88 0 141.5 65.5t53.5 164.5v115l-162 -52q-95 -29 -140 -64t-45 -97q0 -59 42.5 -95.5t109.5 -36.5z" />
    <glyph glyph-name="j.ss01" 
d="M88 1454h324v-272h-324v272zM88 1044h324v-1392h-324v1392z" />
    <glyph glyph-name="y.ss01" horiz-adv-x="1097" 
d="M326 1044l225 -729l227 729h320l-500 -1392h-338l133 348l-401 1044h334z" />
    <glyph glyph-name="k.ss03" horiz-adv-x="1128" 
d="M1174 0h-410l-352 367v-367h-324v1454h324v-668l100 -104l252 362h366l-415 -571z" />
    <glyph glyph-name="s.ss03" horiz-adv-x="1019" 
d="M70 229h514q67 0 67 52q0 21 -19.5 39t-64.5 40l-311 148q-102 49 -158.5 116.5t-56.5 170.5q0 119 85.5 184t221.5 65h588v-229h-508q-57 0 -57 -45q0 -19 13.5 -32.5t49.5 -30.5l322 -152q110 -52 170.5 -120.5t60.5 -168.5q0 -136 -85.5 -201t-242.5 -65h-589v229z
" />
    <glyph glyph-name="j.ss04" 
d="M88 1454h324v-272h-324v272zM88 1044h324v-1249l-324 -188v1437z" />
    <glyph glyph-name="t.ss04" horiz-adv-x="761" 
d="M721 838h-229v-514q0 -60 22 -81.5t82 -21.5h125v-221h-236q-172 0 -244.5 71.5t-72.5 229.5v537h-148v206h148v187l324 205v-392h229v-206z" />
    <glyph glyph-name="g.ss05" horiz-adv-x="1130" 
d="M709 262q191 0 296 -75.5t105 -211.5q0 -169 -139.5 -258.5t-419.5 -89.5q-262 0 -398.5 66t-136.5 186q0 114 142 180q-107 61 -107 170q0 67 45.5 121t120.5 90q-133 97 -133 265q0 111 63 194t168 124.5t236 41.5q136 0 240 -43q62 154 249 154h66v-187h-39
q-101 0 -135 -63q86 -89 86 -221q0 -168 -132.5 -264.5t-334.5 -96.5q-121 0 -209 33q-20 -20 -20 -47q0 -68 127 -68h260zM551 872q-74 0 -112 -46t-38 -121q0 -77 38 -122.5t112 -45.5t111.5 45.5t37.5 122.5q0 75 -37.5 121t-111.5 46zM547 -186q276 0 276 112
q0 84 -155 84h-283q-45 0 -82 6q-41 -35 -41 -82q0 -59 73 -89.5t212 -30.5z" />
    <glyph glyph-name="a.ss06" horiz-adv-x="1202" 
d="M479 -25q-196 0 -315 152t-119 393q0 239 119 392t315 153q107 0 188.5 -49t125.5 -133v161h321v-1044h-321v160q-44 -85 -125.5 -135t-188.5 -50zM594 205q97 0 152 86t55 229q0 144 -55 230t-152 86q-98 0 -153.5 -85.5t-55.5 -230.5q0 -143 55.5 -229t153.5 -86z" />
    <glyph glyph-name="one.ss01" horiz-adv-x="808" 
d="M29 1153l350 301h313v-1454h-336v1083l-327 -280v350z" />
    <glyph glyph-name="two.ss01" horiz-adv-x="1261" 
d="M59 274l527 418q59 47 87.5 70.5t69 62t58.5 66t32.5 64t14.5 73.5q0 77 -57 129.5t-156 52.5q-108 0 -170 -66t-70 -188h-336q11 240 161 381.5t421 141.5q136 0 243 -35.5t172.5 -96.5t99.5 -138.5t34 -166.5q0 -72 -22.5 -136.5t-72.5 -128t-110.5 -120t-155.5 -131.5
l-305 -250h668v-276h-1133v274z" />
    <glyph glyph-name="four.ss01" horiz-adv-x="1288" 
d="M1272 580v-256h-225v-324h-275v324h-760v256l701 874h352l-707 -874h414v309h275v-309h225z" />
    <glyph glyph-name="seven.ss01" horiz-adv-x="1140" 
d="M8 1454h1114v-276l-620 -1178h-352l634 1178h-776v276z" />
    <glyph glyph-name="one.ss02" horiz-adv-x="800" 
d="M18 1102q313 33 353 352h311v-1454h-334v979q-98 -156 -330 -180v303z" />
    <glyph glyph-name="four.ss04" horiz-adv-x="1288" 
d="M1272 580v-256h-225v-324h-275v324h-760v256l701 874h352l-707 -874h414v221l275 231v-452h225z" />
    <glyph glyph-name="DueStudio" horiz-adv-x="2355" 
d="M115 1454h2128v-1454h-2128v1454zM1075 147v93h-739l340 290q167 141 228 206q142 152 143 292q0 126 -94.5 210.5t-235.5 84.5q-178 0 -302 -120.5t-169 -328.5l104 -28q39 186 133.5 285.5t218.5 99.5q95 0 155.5 -61.5t60.5 -151.5q0 -42 -12 -79.5t-33 -72t-64 -79
t-88 -86t-123 -107.5l-334 -279v-168h811zM1710 131q168 0 284.5 90t116.5 232q0 148 -98.5 226.5t-326.5 125.5q-355 69 -355 229q0 87 73 142t177 55q131 0 246.5 -89t173.5 -241l108 37q-26 66 -70 130t-108 123t-155.5 95.5t-194.5 36.5q-164 0 -269.5 -78.5
t-105.5 -206.5q0 -235 428 -321q190 -39 270.5 -99t80.5 -172q0 -89 -79 -156t-202 -67q-110 0 -203.5 63.5t-152.5 160.5t-88 215l-117 -37q32 -104 81.5 -190t118.5 -156t163 -109t204 -39z" />
    </font>
</defs>
</svg>
