<?xml version="1.0" standalone="no"?>
<!DOCTYPE svg PUBLIC "-//W3C//DTD SVG 1.1//EN" "http://www.w3.org/Graphics/SVG/1.1/DTD/svg11.dtd" >
<svg xmlns="http://www.w3.org/2000/svg" xmlns:xlink="http://www.w3.org/1999/xlink" version="1.1">
<metadata>
Created by FontForge 20201107 at Sat Mar 15 18:53:25 2025
 By 
Copyright (c) 2020 by Massimiliano Vitti, Due Studio. All rights reserved.
</metadata>
<defs>
<font id="LayGrotesk-Trial-Regular" horiz-adv-x="1138" >
  <font-face 
    font-family="Lay Grotesk - Trial"
    font-weight="400"
    font-stretch="normal"
    units-per-em="2048"
    panose-1="0 0 5 0 0 0 0 0 0 0"
    ascent="1638"
    descent="-410"
    x-height="1044"
    cap-height="1454"
    bbox="-55 -379 2284 1485"
    underline-thickness="102"
    underline-position="-204"
    unicode-range="U+000D-00A0"
  />
<missing-glyph horiz-adv-x="1257" 
d="M1151 788l-451 451v-174l451 -451v-174l-451 451v-174l451 -451v-174l-451 451v-543h-143v543l-451 -451v174l451 451v174l-451 -451v174l451 451v174l-451 -451v175l523 522l522 -522v-175z" />
    <glyph glyph-name=".notdef" horiz-adv-x="1257" 
d="M1151 788l-451 451v-174l451 -451v-174l-451 451v-174l451 -451v-174l-451 451v-543h-143v543l-451 -451v174l451 451v174l-451 -451v174l451 451v174l-451 -451v175l523 522l522 -522v-175z" />
    <glyph glyph-name=".null" horiz-adv-x="0" 
 />
    <glyph glyph-name="nonmarkingreturn" horiz-adv-x="682" 
 />
    <glyph glyph-name="CR" unicode="&#xd;" horiz-adv-x="409" 
 />
    <glyph glyph-name="space" unicode=" " horiz-adv-x="409" 
 />
    <glyph glyph-name="exclam" unicode="!" horiz-adv-x="450" 
d="M141 983v471h168v-471l-47 -594h-74zM328 205v-205h-205v205h205z" />
    <glyph glyph-name="comma" unicode="," horiz-adv-x="430" 
d="M113 205h204v-205q0 -115 -50.5 -173.5t-153.5 -72.5v92q62 7 85 42t23 112h-108v205z" />
    <glyph glyph-name="period" unicode="." horiz-adv-x="430" 
d="M317 205v-205h-204v205h204z" />
    <glyph glyph-name="zero" unicode="0" horiz-adv-x="1294" 
d="M647 -25q-114 0 -207 40t-157.5 110t-108.5 166t-64 205.5t-20 230.5t20 230.5t64 205.5t108.5 166t157.5 110t207 40t207 -40t157.5 -110t108.5 -166t64 -205.5t20 -230.5t-20 -230.5t-64 -205.5t-108.5 -166t-157.5 -110t-207 -40zM647 111q103 0 180 52.5t120 142.5
t63 195t20 226t-20 226t-63 195t-120 142.5t-180 52.5t-179.5 -52.5t-119.5 -142.5t-63.5 -195t-20.5 -226t20.5 -226t63.5 -195t119.5 -142.5t179.5 -52.5z" />
    <glyph glyph-name="one" unicode="1" horiz-adv-x="692" 
d="M10 1227h51q77 0 130 8.5t100.5 31.5t76.5 69.5t42 117.5h122v-1454h-163v1114h-359v113z" />
    <glyph glyph-name="two" unicode="2" horiz-adv-x="1181" 
d="M268 143h832v-143h-1018q1 67 12 127t26 108.5t43 95t52.5 80.5t66 71.5t71.5 61t81.5 56.5t83 51.5t88.5 50.5q81 46 132.5 82t94.5 80.5t62.5 95.5t19.5 113q0 113 -80 191.5t-231 78.5q-163 0 -254 -98.5t-100 -275.5h-168q11 232 147 371t375 139q117 0 211 -32
t153 -87t90.5 -126t31.5 -151q0 -151 -89 -264.5t-309 -236.5q-233 -130 -323.5 -220t-100.5 -219z" />
    <glyph glyph-name="three" unicode="3" horiz-adv-x="1228" 
d="M266 1020q10 158 106 240.5t244 82.5q141 0 222.5 -65t81.5 -176q0 -123 -97 -187.5t-256 -64.5h-41v-133h43q187 0 292.5 -73.5t105.5 -217.5t-92.5 -227.5t-258.5 -83.5q-172 0 -259.5 83t-112.5 238h-174q11 -79 36 -146t69.5 -126t105 -100t146.5 -65t191 -24
q250 0 386.5 122t136.5 329q0 147 -94.5 245t-255.5 117q140 22 221.5 103.5t81.5 210.5q0 173 -127.5 275t-350.5 102q-224 0 -368 -120.5t-154 -338.5h172z" />
    <glyph glyph-name="four" unicode="4" horiz-adv-x="1193" 
d="M1165 481v-143h-254v-338h-163v338h-730v143l730 973h163v-973h254zM188 481h560v746z" />
    <glyph glyph-name="five" unicode="5" horiz-adv-x="1204" 
d="M645 983q111 0 203 -40.5t151.5 -109.5t92 -159.5t32.5 -192.5q0 -104 -32 -194t-93.5 -160.5t-161.5 -111t-227 -40.5q-101 0 -187.5 26t-147.5 69.5t-105.5 101.5t-68.5 121t-31 129h176q10 -62 36 -115.5t69.5 -97.5t110 -69t148.5 -25q164 0 252 101t88 265
q0 161 -91 262t-253 101q-99 0 -187 -50t-140 -137h-173l97 797h860v-143h-719l-61 -506q53 80 146 129t216 49z" />
    <glyph glyph-name="six" unicode="6" horiz-adv-x="1228" 
d="M639 -25q-117 0 -210.5 39t-155.5 107.5t-103.5 165.5t-59.5 207.5t-18 238.5q0 114 18.5 218.5t61 201.5t105.5 168.5t159.5 114.5t216.5 43q105 0 190 -33t140 -89t88.5 -122t46.5 -141h-166q-20 108 -98 180t-201 72q-202 0 -298.5 -167t-96.5 -507
q45 131 152.5 208.5t255.5 77.5q213 0 345 -141t132 -356q0 -210 -144 -348t-360 -138zM639 115q152 0 241 95t89 251q0 158 -90 261t-240 103t-244 -99.5t-94 -254.5q0 -156 93 -256t245 -100z" />
    <glyph glyph-name="seven" unicode="7" horiz-adv-x="1034" 
d="M4 1454h1024v-143q-79 -62 -146.5 -130.5t-119 -133t-95 -142t-74 -142t-57.5 -150.5t-43 -149t-32.5 -155t-25 -152.5t-21.5 -156.5h-176q15 97 24.5 156.5t27.5 152.5t35 155.5t45 148.5t59.5 150t76 142t96.5 142.5t119.5 133t146.5 130.5h-864v143z" />
    <glyph glyph-name="eight" unicode="8" horiz-adv-x="1257" 
d="M848 786q149 -42 235 -139t86 -231q0 -196 -147.5 -318.5t-392.5 -122.5q-250 0 -395.5 122t-145.5 319q0 134 85 231t235 139q-130 39 -202.5 122.5t-72.5 205.5q0 163 138.5 264t357.5 101q218 0 356.5 -101t138.5 -264q0 -122 -73.5 -206t-202.5 -122zM307 1100
q0 -111 90.5 -179.5t231.5 -68.5q140 0 230.5 68.5t90.5 179.5q0 108 -91 177t-230 69q-140 0 -231 -69t-91 -177zM629 115q165 0 265.5 82t100.5 221q0 136 -101 219.5t-265 83.5q-167 0 -267 -83t-100 -220q0 -139 99.5 -221t267.5 -82z" />
    <glyph glyph-name="nine" unicode="9" horiz-adv-x="1228" 
d="M590 1479q117 0 210.5 -39t155.5 -107.5t103.5 -165.5t59.5 -207.5t18 -238.5q0 -114 -18.5 -218.5t-61 -201.5t-106 -168.5t-160 -114.5t-216.5 -43q-105 0 -190 33t-139.5 89t-88 122t-46.5 141h165q20 -108 98 -179.5t201 -71.5q203 0 299.5 167t96.5 506
q-45 -131 -152.5 -208.5t-255.5 -77.5q-213 0 -345 141t-132 356q0 210 144 348t360 138zM590 1339q-152 0 -241 -95t-89 -251q0 -158 90 -261t240 -103t244 99.5t94 254.5q0 156 -93 256t-245 100z" />
    <glyph glyph-name="question" unicode="?" horiz-adv-x="1071" 
d="M428 449q0 43 7 81.5t15 67t27.5 59.5t31.5 48t40.5 44.5t40 37t45.5 37t43 34.5q33 27 48.5 40.5t41 40.5t37 48.5t21.5 53.5t10 67q0 101 -76 169.5t-211 68.5q-143 0 -232 -85.5t-100 -228.5h-162q16 199 142 323t352 124q114 0 203.5 -30.5t143.5 -83t82 -118
t28 -139.5q0 -48 -13 -91.5t-30 -74.5t-47.5 -64.5t-51.5 -52t-57 -47.5l-40.5 -31.5t-41 -32.5t-34.5 -30.5t-34 -35.5t-25.5 -37.5t-22.5 -46t-11.5 -51t-5.5 -62.5v-62h-164v60zM612 205v-205h-204v205h204z" />
    <glyph glyph-name="A" unicode="A" horiz-adv-x="1327" 
d="M1120 0l-141 403h-637l-143 -403h-181l533 1454h225l533 -1454h-189zM393 553h533l-267 754z" />
    <glyph glyph-name="B" unicode="B" horiz-adv-x="1359" 
d="M930 770q159 -14 255.5 -105.5t96.5 -242.5q0 -194 -127.5 -308t-347.5 -114h-651v1454h620q202 0 324.5 -99t122.5 -270q0 -130 -82.5 -212.5t-210.5 -102.5zM776 1296h-446v-467h446q129 0 198.5 64t69.5 174q0 109 -69 169t-199 60zM807 158q141 0 218 69t77 195
q0 123 -80 190.5t-225 67.5h-467v-522h477z" />
    <glyph glyph-name="C" unicode="C" horiz-adv-x="1441" 
d="M772 -25q-208 0 -366 98.5t-241 268.5t-83 385t83 385t241 268.5t366 98.5q245 0 401.5 -132.5t204.5 -353.5h-180q-36 153 -147.5 240.5t-278.5 87.5q-160 0 -277 -79t-175 -212t-58 -303t58 -303t175 -212t277 -79q349 0 426 328h180q-46 -222 -200.5 -354t-405.5 -132
z" />
    <glyph glyph-name="D" unicode="D" horiz-adv-x="1429" 
d="M692 1454q162 0 287 -53t204 -149.5t119.5 -229t40.5 -295.5t-40.5 -295.5t-119.5 -229t-204 -149.5t-287 -53h-536v1454h536zM672 158q245 0 368 152.5t123 416.5t-123 416.5t-368 152.5h-342v-1138h342z" />
    <glyph glyph-name="E" unicode="E" horiz-adv-x="1261" 
d="M336 158h844v-158h-1024v1454h1013v-158h-833v-462h751v-154h-751v-522z" />
    <glyph glyph-name="F" unicode="F" horiz-adv-x="1198" 
d="M1159 1296h-823v-462h741v-154h-741v-680h-180v1454h1003v-158z" />
    <glyph glyph-name="G" unicode="G" horiz-adv-x="1509" 
d="M752 -25q-202 0 -355.5 98.5t-234 268.5t-80.5 385t83 385t241 268.5t366 98.5q243 0 400.5 -129t205.5 -336h-180q-36 139 -148.5 223t-277.5 84q-160 0 -277 -79t-175 -212t-58 -303t58 -303t175 -212t277 -79q199 0 316.5 119t117.5 301v61h-475v154h649v-768h-163
v250q-54 -127 -176 -201t-289 -74z" />
    <glyph glyph-name="H" unicode="H" horiz-adv-x="1429" 
d="M1100 1454h174v-1454h-174v680h-770v-680h-174v1454h174v-620h770v620z" />
    <glyph glyph-name="I" unicode="I" horiz-adv-x="485" 
d="M330 1454v-1454h-174v1454h174z" />
    <glyph glyph-name="J" unicode="J" horiz-adv-x="837" 
d="M35 0v160h237q118 0 181 64t63 192v1038h174v-1038q0 -201 -106.5 -308.5t-311.5 -107.5h-237z" />
    <glyph glyph-name="K" unicode="K" horiz-adv-x="1288" 
d="M1303 0h-201l-549 780l-223 -207v-573h-174v1454h174v-678l731 678h221l-606 -561z" />
    <glyph glyph-name="L" unicode="L" horiz-adv-x="1155" 
d="M330 160h788v-160h-962v1454h174v-1294z" />
    <glyph glyph-name="M" unicode="M" horiz-adv-x="1757" 
d="M1602 1454v-1454h-175v1270l-462 -1270h-172l-463 1270v-1270h-174v1454h276l447 -1239l446 1239h277z" />
    <glyph glyph-name="N" unicode="N" horiz-adv-x="1482" 
d="M1153 1454h174v-1454h-229l-768 1241v-1241h-174v1454h229l768 -1241v1241z" />
    <glyph glyph-name="O" unicode="O" horiz-adv-x="1544" 
d="M772 -25q-208 0 -366 98.5t-241 268.5t-83 385t83 385t241 268.5t366 98.5t366 -98.5t241 -268.5t83 -385t-83 -385t-241 -268.5t-366 -98.5zM772 133q160 0 277 79t175 212t58 303t-58 303t-175 212t-277 79t-277 -79t-175 -212t-58 -303t58 -303t175 -212t277 -79z" />
    <glyph glyph-name="P" unicode="P" horiz-adv-x="1247" 
d="M758 1454q201 0 321.5 -114t120.5 -300t-120.5 -299.5t-321.5 -113.5h-428v-627h-174v1454h602zM727 784q140 0 217.5 65t77.5 191t-77.5 191t-217.5 65h-397v-512h397z" />
    <glyph glyph-name="Q" unicode="Q" horiz-adv-x="1548" 
d="M1544 0h-217l-129 115q-180 -140 -426 -140q-208 0 -366 98.5t-241 268.5t-83 385t83 385t241 268.5t366 98.5t366 -98.5t241 -268.5t83 -385q0 -307 -164 -510zM772 133q172 0 299 94l-326 289h218l208 -184q111 160 111 395q0 170 -58 303t-175 212t-277 79t-277 -79
t-175 -212t-58 -303t58 -303t175 -212t277 -79z" />
    <glyph glyph-name="R" unicode="R" horiz-adv-x="1343" 
d="M760 1454q212 0 340.5 -105t128.5 -278q0 -145 -86.5 -239t-235.5 -117q137 -21 199.5 -107.5t77.5 -257.5q18 -211 100 -350h-197q-20 46 -31 78t-26.5 107t-23.5 171q-14 161 -81.5 223t-232.5 62h-362v-641h-174v1454h604zM713 793q166 0 252 63.5t86 187.5
q0 252 -338 252h-383v-503h383z" />
    <glyph glyph-name="S" unicode="S" horiz-adv-x="1282" 
d="M674 -25q-284 0 -439.5 135t-175.5 357h179q21 -174 131.5 -255t310.5 -81q159 0 254.5 68.5t95.5 199.5q0 30 -6 55.5t-14 45.5t-25.5 38.5t-32.5 31.5t-43.5 26.5t-48.5 22.5t-58.5 21t-63 19t-71.5 20t-75 21q-194 56 -263 87q-151 68 -195 181q-23 57 -23 130
q0 169 142 275t361 106q249 0 394.5 -113.5t177.5 -308.5h-172q-23 135 -127 200.5t-273 65.5q-145 0 -235 -59t-90 -162q0 -45 18.5 -80t49 -59t80.5 -45t101 -36t121 -34q6 -1 9 -2q208 -57 284 -90q170 -72 225 -195q31 -70 31 -162q0 -195 -148.5 -309.5t-385.5 -114.5z
" />
    <glyph glyph-name="T" unicode="T" horiz-adv-x="1224" 
d="M1188 1454v-160h-488v-1294h-174v1294h-489v160h1151z" />
    <glyph glyph-name="U" unicode="U" horiz-adv-x="1396" 
d="M698 -25q-119 0 -219 31.5t-175.5 93t-118 160.5t-42.5 227v967h174v-948q0 -181 102 -277t279 -96t279 96t102 277v948h174v-967q0 -128 -42.5 -227t-118 -160.5t-175.5 -93t-219 -31.5z" />
    <glyph glyph-name="V" unicode="V" horiz-adv-x="1269" 
d="M1063 1454h182l-506 -1454h-209l-505 1454h182l428 -1288z" />
    <glyph glyph-name="W" unicode="W" horiz-adv-x="1892" 
d="M1679 1454h176l-376 -1454h-191l-342 1227l-342 -1227h-190l-377 1454h176l303 -1233l334 1233h192l334 -1233z" />
    <glyph glyph-name="X" unicode="X" horiz-adv-x="1198" 
d="M506 729l-492 725h201l383 -588l397 588h189l-494 -725l494 -729h-201l-385 592l-395 -592h-189z" />
    <glyph glyph-name="Y" unicode="Y" horiz-adv-x="1259" 
d="M25 1454h190l412 -692l422 692h190l-524 -854v-600h-174v604z" />
    <glyph glyph-name="Z" unicode="Z" horiz-adv-x="1216" 
d="M254 160h907v-160h-1114v160l887 1134h-846v160h1053v-160z" />
    <glyph glyph-name="a" unicode="a" horiz-adv-x="1048" 
d="M426 -25q-158 0 -261.5 85t-103.5 233q0 40 7 73t23.5 60.5t35 49t51 41t60.5 33.5t74.5 30t82 26.5t94.5 26.5q156 42 194 59q80 43 85 101q0 64 -62.5 105.5t-175.5 41.5q-119 0 -190 -50.5t-80 -148.5h-166q21 145 135.5 234.5t300.5 89.5q189 0 293.5 -81.5
t104.5 -231.5v-752h-154v195q-31 -98 -119.5 -159t-228.5 -61zM461 98q144 0 228.5 106.5t84.5 256.5v207q-21 -47 -78 -77.5t-164 -60.5q-60 -16 -101 -30t-81.5 -34.5t-64 -43.5t-38 -55.5t-14.5 -73.5q0 -92 64 -143.5t164 -51.5z" />
    <glyph glyph-name="b" unicode="b" 
d="M625 -25q-229 0 -336 191v-166h-160v1454h160v-580q107 191 336 191q200 0 323 -153t123 -392t-123 -392t-323 -153zM592 109q144 0 225.5 114t81.5 297t-81.5 297.5t-225.5 114.5t-225.5 -114.5t-81.5 -297.5t81.5 -297t225.5 -114z" />
    <glyph glyph-name="c" unicode="c" horiz-adv-x="1075" 
d="M1024 342q-40 -174 -158 -270.5t-297 -96.5q-225 0 -364 154t-139 393q0 236 138.5 389.5t362.5 153.5q180 0 298.5 -96.5t158.5 -270.5h-170q-57 234 -287 234q-154 0 -241.5 -113.5t-87.5 -296.5q0 -184 88.5 -298.5t242.5 -114.5q224 0 285 233h170z" />
    <glyph glyph-name="d" unicode="d" 
d="M514 -25q-200 0 -323 153t-123 392t123 392t323 153q229 0 336 -191v580h160v-1454h-160v166q-107 -191 -336 -191zM547 109q144 0 225.5 114t81.5 297t-81.5 297.5t-225.5 114.5t-225.5 -114.5t-81.5 -297.5t81.5 -297t225.5 -114z" />
    <glyph glyph-name="e" unicode="e" horiz-adv-x="1124" 
d="M66 522q0 155 60.5 278t175.5 194t265 71q154 0 270.5 -78.5t173.5 -209t50 -288.5h-823q6 -174 94 -277t243 -103q117 0 189 61t106 162h170q-46 -162 -167.5 -259.5t-297.5 -97.5q-229 0 -369 154t-140 393zM889 616q-24 145 -107 230.5t-215 85.5q-133 0 -217 -85
t-106 -231h645z" />
    <glyph glyph-name="f" unicode="f" horiz-adv-x="585" 
d="M455 1323q-62 0 -83.5 -29t-21.5 -104v-146h230v-131h-230v-913h-160v913h-163v131h163v156q0 133 50.5 193.5t173.5 60.5h166v-131h-125z" />
    <glyph glyph-name="g" unicode="g" 
d="M561 -373q-191 0 -309.5 87t-142.5 225h167q21 -84 92 -133.5t193 -49.5q145 0 217 73.5t72 225.5v140q-103 -183 -336 -183q-133 0 -235 68t-156.5 188t-54.5 273q0 230 123 377t323 147q229 0 336 -191v170h160v-956q0 -461 -449 -461zM547 145q144 0 225.5 110
t81.5 286q0 174 -81.5 282.5t-225.5 108.5t-225.5 -108.5t-81.5 -282.5q0 -176 81.5 -286t225.5 -110z" />
    <glyph glyph-name="h" unicode="h" horiz-adv-x="1097" 
d="M129 1454h160v-586q44 86 128.5 141.5t215.5 55.5q166 0 255 -89t89 -245v-731h-160v705q0 111 -57 169t-182 58q-123 0 -206 -88.5t-83 -235.5v-608h-160v1454z" />
    <glyph glyph-name="i" unicode="i" horiz-adv-x="417" 
d="M129 1454h160v-205h-160v205zM129 1044h160v-1044h-160v1044z" />
    <glyph glyph-name="j" unicode="j" horiz-adv-x="417" 
d="M129 1454h160v-205h-160v205zM289 -74q0 -152 -56 -213t-202 -61h-86v131h80q65 0 84.5 27t19.5 106v1128h160v-1118z" />
    <glyph glyph-name="k" unicode="k" horiz-adv-x="989" 
d="M836 0l-387 567l-160 -145v-422h-160v1454h160v-852l481 442h195l-406 -372l457 -672h-180z" />
    <glyph glyph-name="l" unicode="l" horiz-adv-x="417" 
d="M129 1454h160v-1454h-160v1454z" />
    <glyph glyph-name="m" unicode="m" horiz-adv-x="1685" 
d="M129 1044h160v-172q106 193 332 193q111 0 186.5 -55.5t103.5 -159.5q46 100 134.5 157.5t211.5 57.5q135 0 221.5 -80t86.5 -229v-756h-160v707q0 225 -215 225q-112 0 -187 -89t-75 -233v-610h-160v707q0 225 -215 225q-113 0 -188.5 -89t-75.5 -233v-610h-160v1044z
" />
    <glyph glyph-name="n" unicode="n" horiz-adv-x="1097" 
d="M129 1044h160v-176q44 86 128.5 141.5t215.5 55.5q166 0 255 -89t89 -245v-731h-160v705q0 111 -57 169t-182 58q-123 0 -206 -88.5t-83 -235.5v-608h-160v1044z" />
    <glyph glyph-name="o" unicode="o" horiz-adv-x="1130" 
d="M565 -25q-149 0 -263 71t-175 195t-61 281q0 237 137.5 390t361.5 153t362 -153.5t138 -389.5q0 -157 -61 -281t-175.5 -195t-263.5 -71zM565 109q152 0 240 114.5t88 298.5q0 182 -88 296t-240 114t-239.5 -114t-87.5 -296q0 -184 87.5 -298.5t239.5 -114.5z" />
    <glyph glyph-name="p" unicode="p" 
d="M129 1044h160v-170q107 191 336 191q200 0 323 -153t123 -392t-123 -392t-323 -153q-229 0 -336 191v-514h-160v1392zM592 109q144 0 225.5 114t81.5 297t-81.5 297.5t-225.5 114.5t-225.5 -114.5t-81.5 -297.5t81.5 -297t225.5 -114z" />
    <glyph glyph-name="q" unicode="q" 
d="M850 166q-107 -191 -336 -191q-200 0 -323 153t-123 392t123 392t323 153q229 0 336 -191v170h160v-1392h-160v514zM547 109q144 0 225.5 114t81.5 297t-81.5 297.5t-225.5 114.5t-225.5 -114.5t-81.5 -297.5t81.5 -297t225.5 -114z" />
    <glyph glyph-name="r" unicode="r" horiz-adv-x="684" 
d="M594 1044h72v-153h-111q-139 0 -204 -67t-62 -230v-594h-160v1044h156v-194q36 89 113.5 141.5t195.5 52.5z" />
    <glyph glyph-name="s" unicode="s" horiz-adv-x="989" 
d="M520 -25q-212 0 -334.5 95.5t-136.5 267.5h166q11 -123 93 -179.5t212 -56.5q121 0 180.5 53t59.5 134q0 83 -55 118.5t-213 75.5q-169 43 -228 67q-137 58 -167 164q-9 33 -9 72q0 124 111 203.5t293 79.5q184 0 292.5 -86.5t128.5 -228.5h-163q-12 91 -78.5 139.5
t-179.5 48.5q-107 0 -171.5 -42.5t-64.5 -104.5q0 -22 7.5 -41t17.5 -33t33 -27t40.5 -21.5t54.5 -20t61 -18t73 -18.5q53 -13 89.5 -23.5t80.5 -26t72.5 -31.5t58 -40t46.5 -51.5t27.5 -64t10.5 -80.5q0 -153 -111 -238.5t-297 -85.5z" />
    <glyph glyph-name="t" unicode="t" horiz-adv-x="620" 
d="M571 913h-229v-649q0 -79 19.5 -106t84.5 -27h125v-131h-165q-129 0 -176.5 59.5t-47.5 194.5v659h-164v131h164v279h160v-279h229v-131z" />
    <glyph glyph-name="u" unicode="u" horiz-adv-x="1081" 
d="M461 -25q-159 0 -249.5 91.5t-90.5 246.5v731h160v-704q0 -227 229 -227q120 0 201.5 88.5t81.5 234.5v608h159v-1044h-159v176q-40 -89 -121 -145t-211 -56z" />
    <glyph glyph-name="v" unicode="v" horiz-adv-x="962" 
d="M778 1044h168l-375 -1044h-182l-373 1044h177l292 -880z" />
    <glyph glyph-name="w" unicode="w" horiz-adv-x="1523" 
d="M1325 1044h176l-325 -1044h-177l-237 842l-238 -842h-176l-325 1044h176l243 -866l234 866h172l233 -866z" />
    <glyph glyph-name="x" unicode="x" horiz-adv-x="956" 
d="M391 535l-368 509h178l280 -389l283 389h170l-369 -505l389 -539h-178l-301 416l-303 -416h-170z" />
    <glyph glyph-name="y" unicode="y" horiz-adv-x="968" 
d="M186 1044l299 -851l308 851h165l-417 -1099q-65 -172 -128 -232.5t-192 -60.5h-117v133h82q47 0 74 6t53.5 29t47 64.5t47.5 115.5l-396 1044h174z" />
    <glyph glyph-name="z" unicode="z" horiz-adv-x="935" 
d="M227 135h658v-135h-840v135l641 778h-610v131h792v-131z" />
    <glyph glyph-name="uni00A0" unicode="&#xa0;" horiz-adv-x="409" 
 />
    <glyph glyph-name="G.ss01" horiz-adv-x="1484" 
d="M1380 254q-99 -135 -254 -207t-354 -72q-208 0 -366 98.5t-241 268.5t-83 385t83 385t241 268.5t366 98.5q244 0 403 -131t207 -340h-180q-36 141 -150.5 227t-279.5 86q-160 0 -277 -79t-175 -212t-58 -303t58 -303t175 -212t277 -79q138 0 251 44t183 126v311h-475v154
h649v-514z" />
    <glyph glyph-name="Q.ss01" horiz-adv-x="1544" 
d="M1462 727q0 -209 -79.5 -376t-225.5 -265l287 -252h-238l-200 178q-107 -37 -234 -37q-208 0 -366 98.5t-241 268.5t-83 385t83 385t241 268.5t366 98.5t366 -98.5t241 -268.5t83 -385zM262 727q0 -170 58 -303t175 -212t277 -79t277 79t175 212t58 303t-58 303t-175 212
t-277 79t-277 -79t-175 -212t-58 -303z" />
    <glyph glyph-name="R.ss01" horiz-adv-x="1327" 
d="M1300 0h-210l-494 641h-266v-641h-174v1454h604q214 0 341.5 -110.5t127.5 -299.5q0 -179 -116.5 -285.5t-315.5 -117.5zM330 1296v-503h383q166 0 252 63.5t86 187.5q0 252 -338 252h-383z" />
    <glyph glyph-name="J.ss02" horiz-adv-x="1040" 
d="M469 -25q-210 0 -317 107t-107 336v37h174v-37q0 -156 62.5 -220.5t187.5 -64.5q124 0 187 61t63 203v1057h174v-1077q0 -201 -108 -301.5t-316 -100.5z" />
    <glyph glyph-name="Q.ss02" horiz-adv-x="1546" 
d="M1462 727q0 -243 -108 -430q85 -126 108 -297h-159q-12 92 -50 166q-188 -191 -481 -191q-208 0 -366 98.5t-241 268.5t-83 385t83 385t241 268.5t366 98.5t366 -98.5t241 -268.5t83 -385zM772 133q236 0 375 168q-140 122 -375 131v143q284 -15 455 -143q55 128 55 295
q0 170 -58 303t-175 212t-277 79t-277 -79t-175 -212t-58 -303t58 -303t175 -212t277 -79z" />
    <glyph glyph-name="R.ss02" horiz-adv-x="1329" 
d="M760 1454q212 0 340.5 -105t128.5 -278q0 -145 -86.5 -239t-235.5 -117q169 -16 233 -107.5t64 -269.5v-338h-174v328q0 167 -73.5 240t-243.5 73h-383v-641h-174v1454h604zM713 793q166 0 252 63.5t86 187.5q0 252 -338 252h-383v-503h383z" />
    <glyph glyph-name="K.ss03" horiz-adv-x="1286" 
d="M1303 0h-230l-743 721v-721h-174v1454h174v-508l188 -182l561 690h203l-653 -799z" />
    <glyph glyph-name="S.ss03" horiz-adv-x="1202" 
d="M102 160h664q78 0 134 57t56 135q0 61 -29 112t-83 75l-549 245q-108 49 -165.5 134t-57.5 190q0 144 110 245t260 101h652v-160h-652q-80 0 -136 -53t-56 -131q0 -59 29.5 -106.5t82.5 -71.5l549 -246q113 -51 168.5 -137.5t55.5 -196.5q0 -145 -110.5 -248.5
t-258.5 -103.5h-664v160z" />
    <glyph glyph-name="R.ss04" horiz-adv-x="1351" 
d="M156 1454h604q212 0 340.5 -105t128.5 -278q0 -179 -122.5 -282t-322.5 -103q112 -27 174.5 -89t165.5 -241l207 -356h-194l-207 356q-45 77 -72.5 118.5t-60.5 79.5t-67 53.5t-78 24.5t-107 9h-215v-641h-174v1454zM713 793q166 0 252 63.5t86 187.5q0 252 -338 252
h-383v-503h383z" />
    <glyph glyph-name="a.ss01" horiz-adv-x="1048" 
d="M426 -25q-158 0 -261.5 85t-103.5 233q0 40 7 73t23.5 60.5t35 49t51 41t60.5 33.5t74.5 30t82 26.5t94.5 26.5l285 76v45q0 186 -244 186q-119 0 -190 -50.5t-80 -148.5h-166q21 145 135.5 234.5t300.5 89.5q189 0 293.5 -81.5t104.5 -231.5v-752h-154v195
q-31 -98 -119.5 -159t-228.5 -61zM461 98q144 0 228.5 106.5t84.5 256.5v135l-242 -66q-60 -16 -101 -30t-81.5 -34.5t-64 -43.5t-38 -55.5t-14.5 -73.5q0 -92 64 -143.5t164 -51.5z" />
    <glyph glyph-name="j.ss01" horiz-adv-x="417" 
d="M129 1454h160v-205h-160v205zM129 1044h160v-1392h-160v1392z" />
    <glyph glyph-name="y.ss01" horiz-adv-x="968" 
d="M186 1044l299 -851l308 851h165l-528 -1392h-164l142 348l-396 1044h174z" />
    <glyph glyph-name="k.ss03" horiz-adv-x="985" 
d="M1016 0h-205l-522 504v-504h-160v1454h160v-752l145 -139l348 481h183l-426 -583z" />
    <glyph glyph-name="s.ss03" horiz-adv-x="931" 
d="M86 133h500q57 0 93 31.5t36 87.5q0 44 -24 76t-83 59l-358 162q-93 41 -142 100.5t-49 149.5q0 119 84 182t213 63h473v-131h-473q-59 0 -95 -29.5t-36 -84.5q0 -43 23.5 -72.5t83.5 -56.5l358 -162q191 -85 191 -256q0 -121 -84 -186.5t-211 -65.5h-500v133z" />
    <glyph glyph-name="j.ss04" horiz-adv-x="417" 
d="M129 1454h160v-205h-160v205zM129 1044h160v-1275l-160 -148v1423z" />
    <glyph glyph-name="t.ss04" horiz-adv-x="620" 
d="M571 913h-229v-649q0 -79 19.5 -106t84.5 -27h125v-131h-165q-129 0 -176.5 59.5t-47.5 194.5v659h-164v131h164v216l160 147v-363h229v-131z" />
    <glyph glyph-name="g.ss05" horiz-adv-x="1036" 
d="M621 205q177 0 277.5 -72t100.5 -199q0 -142 -123 -224.5t-362 -82.5t-356 76.5t-117 194.5q0 128 149 202q-51 28 -76.5 71t-25.5 89q0 112 133 180q-106 101 -106 258q0 163 114.5 265t284.5 102q116 0 205 -47q53 135 225 135h53v-133h-30q-120 0 -148 -76
q94 -100 94 -246q0 -164 -114 -265t-285 -101q-119 0 -213 51q-59 -38 -59 -88q0 -90 170 -90h209zM514 938q-113 0 -174 -66.5t-61 -173.5q0 -108 60.5 -173.5t174.5 -65.5t175 65.5t61 173.5q0 107 -61.5 173.5t-174.5 66.5zM514 -246q164 0 243 46t79 128
q0 67 -58.5 103.5t-167.5 36.5h-256q-37 0 -53 2q-53 -22 -79.5 -59.5t-26.5 -82.5q0 -82 79 -128t240 -46z" />
    <glyph glyph-name="a.ss06" 
d="M514 -25q-200 0 -323 153t-123 392t123 392t323 153q229 0 336 -191v170h160v-1044h-160v166q-107 -191 -336 -191zM547 109q144 0 225.5 114t81.5 297t-81.5 297.5t-225.5 114.5t-225.5 -114.5t-81.5 -297.5t81.5 -297t225.5 -114z" />
    <glyph glyph-name="one.ss01" horiz-adv-x="708" 
d="M27 1124l358 330h164v-1454h-164v1260l-358 -330v194z" />
    <glyph glyph-name="two.ss01" horiz-adv-x="1177" 
d="M78 133l526 483q63 58 98.5 92.5t81.5 85.5t69.5 90.5t40.5 89.5t17 99q0 113 -80 191.5t-231 78.5q-163 0 -254 -98.5t-100 -275.5h-168q11 232 147 371t375 139q117 0 211 -32t153 -87t90 -126t31 -151q0 -73 -21.5 -137t-72.5 -132.5t-107 -125.5t-153 -147l-432 -398
h797v-143h-1018v133z" />
    <glyph glyph-name="four.ss01" horiz-adv-x="1189" 
d="M1165 481v-143h-254v-338h-159v338h-734v143l730 973h182l-729 -973h551v318h159v-318h254z" />
    <glyph glyph-name="seven.ss01" horiz-adv-x="1046" 
d="M4 1454h1024v-143l-668 -1311h-170l668 1311h-854v143z" />
    <glyph glyph-name="one.ss02" horiz-adv-x="702" 
d="M20 1073q144 15 241.5 115.5t117.5 265.5h164v-1454h-164v1155q-50 -99 -141.5 -159.5t-217.5 -75.5v153z" />
    <glyph glyph-name="four.ss04" horiz-adv-x="1189" 
d="M1165 481v-143h-254v-338h-159v338h-734v143l730 973h182l-729 -973h551v277l159 147v-424h254z" />
    <glyph glyph-name="DueStudio" horiz-adv-x="2439" 
d="M156 1454h2128v-1454h-2128v1454zM1116 147v93h-739l340 290q47 40 65 55t59.5 51.5t59 54t50 51.5t47 55t36 53t30.5 58t16 57.5t7 62.5q0 126 -94 210.5t-235 84.5q-178 0 -302 -120.5t-169 -328.5l104 -28q39 186 133.5 285.5t218.5 99.5q95 0 155 -61.5t60 -151.5
q0 -52 -15.5 -95.5t-59 -96t-95.5 -101t-149 -131.5l-334 -279v-168h811zM1751 131q168 0 284.5 90t116.5 232q0 148 -99 226.5t-327 125.5q-354 69 -354 229q0 87 73 142t177 55q131 0 246.5 -89t173.5 -241l108 37q-26 66 -70 130t-108 123t-155.5 95.5t-194.5 36.5
q-164 0 -269.5 -78.5t-105.5 -206.5q0 -235 428 -321q190 -39 270 -99t80 -172q0 -89 -78.5 -156t-201.5 -67q-83 0 -158 36.5t-130.5 98.5t-95.5 139.5t-61 164.5l-116 -37q32 -104 81.5 -190t118.5 -156t163 -109t204 -39z" />
    </font>
</defs>
</svg>
