<svg width="95" height="100" viewBox="0 0 95 100" fill="none" xmlns="http://www.w3.org/2000/svg">
<path d="M47.5796 24.4785C41.5545 25.1379 35.9862 28.0027 31.9467 32.5215C27.9073 37.0402 25.6821 42.8935 25.6996 48.9545C25.8846 62.6755 33.8586 74.1715 48.1356 75.2845C52.9587 75.6181 57.7613 74.3924 61.8346 71.7882C65.9079 69.184 69.0361 65.3393 70.7575 60.8215L94.8636 67.8675C87.8166 88.0795 69.2746 100.317 47.0236 99.3895C22.3616 98.4625 0.852539 79.9195 0.852539 48.7685C0.852539 21.5115 24.5876 0.187525 48.1356 0.00152454C75.2086 -0.183475 88.7445 16.5015 93.9355 32.0805L70.5725 38.3805C63.7125 25.7755 54.0696 23.7365 47.5796 24.4785Z" fill="white"/>
</svg>
