<svg width="98" height="99" viewBox="0 0 98 99" fill="none" xmlns="http://www.w3.org/2000/svg">
<path d="M49.3412 0.788857C55.7228 0.727339 62.053 1.93591 67.9631 4.34419C73.8732 6.75246 79.2452 10.3123 83.7664 14.8166C88.2876 19.3208 91.8676 24.6794 94.298 30.5805C96.7285 36.4815 97.9608 42.807 97.9232 49.1889C97.9232 75.8889 76.7852 98.6969 49.3412 98.6969C21.7142 98.6969 0.575195 75.8899 0.575195 49.1889C0.575195 22.4879 21.7142 0.788857 49.3412 0.788857ZM49.5272 75.8889C62.1352 75.8889 73.8182 66.0609 73.8182 49.3729C73.8182 33.7969 62.1352 23.2279 49.5272 23.2279C36.9192 23.2279 25.0512 33.7969 25.0512 49.3729C25.0512 66.0589 36.9192 75.8869 49.5272 75.8869V75.8889Z" fill="white"/>
</svg>
