<svg width="33" height="34" viewBox="0 0 33 34" fill="none" xmlns="http://www.w3.org/2000/svg">
<path d="M0.483398 16.966C0.501206 13.7281 1.47646 10.5679 3.28644 7.88313C5.09641 5.19835 7.6602 3.10902 10.655 1.87815C13.6499 0.647292 16.9419 0.329935 20.1167 0.965984C23.2915 1.60203 26.2072 3.16307 28.4968 5.45262C30.7863 7.74216 32.3473 10.6579 32.9834 13.8327C33.6194 17.0075 33.3021 20.2995 32.0712 23.2944C30.8404 26.2892 28.7511 28.853 26.0663 30.6629C23.3815 32.4729 20.2213 33.4482 16.9834 33.466C12.6073 33.466 8.41051 31.7276 5.31616 28.6333C2.22181 25.5389 0.483398 21.3421 0.483398 16.966Z" fill="white"/>
</svg>
